<?xml version="1.0" standalone="no"?>
<!DOCTYPE svg PUBLIC "-//W3C//DTD SVG 1.1//EN" "http://www.w3.org/Graphics/SVG/1.1/DTD/svg11.dtd" >
<svg xmlns="http://www.w3.org/2000/svg" xmlns:xlink="http://www.w3.org/1999/xlink" version="1.1">
<metadata>
Created by FontForge 20161013 at Fri Apr  4 17:41:40 2014
 By ,,,
Copyright (c) 2013 by Renzler Design. All rights reserved.
</metadata>
<defs>
<font id="LoveloLineBold" horiz-adv-x="716" >
  <font-face 
    font-family="Lovelo Line Bold"
    font-weight="700"
    font-stretch="normal"
    units-per-em="1000"
    panose-1="2 0 0 0 0 0 0 0 0 0"
    ascent="750"
    descent="-250"
    x-height="723"
    cap-height="725"
    bbox="-21 -272.695 909.13 973"
    underline-thickness="50"
    underline-position="-200"
    unicode-range="U+0020-20AC"
  />
<missing-glyph horiz-adv-x="284" 
 />
    <glyph glyph-name=".notdef" horiz-adv-x="284" 
 />
    <glyph glyph-name=".null" horiz-adv-x="0" 
 />
    <glyph glyph-name="nonmarkingreturn" horiz-adv-x="333" 
 />
    <glyph glyph-name="space" unicode=" " horiz-adv-x="284" 
 />
    <glyph glyph-name="exclam" unicode="!" horiz-adv-x="339" 
d="M274 694v-401q0 -13 -10 -23t-24 -10t-23.5 9.5t-9.5 23.5v401q0 15 9.5 24.5t23.5 9.5t24 -9.5t10 -24.5zM74 293v401q0 14 9.5 24t22.5 10q14 0 24 -10t10 -24v-401q0 -13 -10 -23t-24 -10q-13 0 -22.5 9.5t-9.5 23.5zM173 207q39 0 66 -19t38 -50q19 -45 0 -89
q-28 -68 -104 -68q-75 0 -104 68q-21 44 0 89q28 69 104 69zM216 113q-11 27 -43 27q-34 0 -43 -27q-9 -18 0 -40q9 -26 43 -26q32 0 43 27q8 20 0 39z" />
    <glyph glyph-name="quotedbl" unicode="&#x22;" horiz-adv-x="259" 
d="M35 547v144q0 21 16.5 29.5t33.5 0t17 -29.5v-144q0 -21 -17 -29.5t-33.5 0t-16.5 29.5zM155 547v144q0 21 16.5 29.5t33.5 0t17 -29.5v-144q0 -21 -17 -29.5t-33.5 0t-16.5 29.5z" />
    <glyph glyph-name="dollar" unicode="$" horiz-adv-x="566" 
d="M455 699q19 -7 21.5 -25.5t-11 -31.5t-33.5 -6q-183 65 -264 -24q-43 -46 -45 -110.5t49 -113.5q27 -25 68.5 -44t71 -29t53 -33.5t25.5 -60.5q2 -41 -28 -69.5t-72 -31.5q-119 -7 -212 60q-17 12 -13.5 31t19 26t33.5 -3q37 -27 87.5 -40t86 -6.5t32.5 30.5
q-1 16 -19.5 27.5t-44 19.5t-63.5 27t-69 46q-68 60 -72 148t52.5 158t149.5 82v69q0 21 16.5 29.5t33.5 0t17 -29.5v-67q57 -4 131 -29zM65 38q-17 12 -17.5 29t15.5 28t34 2q79 -42 162 -46.5t142 39t59 131.5q0 39 -18.5 69.5t-48.5 50t-60 33.5t-61 27t-43 23
q-40 32 -36 83q4 56 60 77q69 27 187 -21q18 -8 19.5 -26.5t-12.5 -30.5t-33 -4q-112 45 -148 14q-18 -16 -2 -36l6 -5q8 -6 40.5 -18.5t66.5 -30t69 -43t57.5 -68t22.5 -94.5q0 -97 -55.5 -157.5t-146.5 -74.5v-63q0 -21 -17 -29.5t-33.5 0t-16.5 29.5v60q-37 1 -80 11
q-58 12 -112 41z" />
    <glyph glyph-name="quotesingle" unicode="'" horiz-adv-x="147" 
d="M35 547v144q0 21 16.5 29.5t33.5 0t17 -29.5v-144q0 -21 -17 -29.5t-33.5 0t-16.5 29.5z" />
    <glyph glyph-name="comma" unicode="," horiz-adv-x="264" 
d="M10 -100l45 194q2 13 12 19.5t21 3.5q28 -7 23 -36l-35 -159h47l65 176q5 12 15.5 17t21.5 1t16 -15.5t1 -22.5l-72 -193q-5 -21 -27 -21h-103q-5 0 -7 1q-28 7 -23 35z" />
    <glyph glyph-name="hyphen" unicode="-" horiz-adv-x="396" 
d="M312 315h-245q-21 0 -29.5 16.5t0 33.5t29.5 17h245q21 0 29.5 -17t0 -33.5t-29.5 -16.5z" />
    <glyph glyph-name="period" unicode="." horiz-adv-x="247" 
d="M121 196q45 0 75 -30.5t30 -75.5q0 -44 -30 -74.5t-75 -30.5t-75.5 30.5t-30.5 74.5q0 45 30 75.5t76 30.5zM121 137q-21 0 -34.5 -13t-13.5 -34t13.5 -33.5t34.5 -12.5t34 13t13 33q0 21 -12.5 34t-34.5 13z" />
    <glyph glyph-name="slash" unicode="/" horiz-adv-x="444" 
d="M17 42l349 663q13 17 30 16.5t27.5 -16.5t0.5 -34l-349 -663q-13 -17 -30 -16.5t-27.5 16.5t-0.5 34z" />
    <glyph glyph-name="zero" unicode="0" horiz-adv-x="633" 
d="M264 455q-4 -20 -22 -25t-32.5 7t-10.5 32q11 56 40.5 92.5t80.5 36.5q57 0 89.5 -51t37.5 -120t-2.5 -135t-23.5 -101q-20 -43 -55 -60.5t-69.5 -9.5t-58.5 36q-7 9 -16.5 27.5t-17.5 41t-3.5 41t25.5 22.5t30 -10t16 -40t18 -39q13 -18 35.5 -13.5t35.5 32.5
q16 35 21 109.5t-10.5 139t-51.5 64.5q-24 0 -36 -21t-20 -56zM512 261q3 21 21 26.5t33 -5.5t12 -31q-18 -120 -82 -194t-176 -74q-74 0 -128 32.5t-83.5 88t-43 119t-13.5 136.5t13.5 136.5t43 119t83.5 88t128 32.5q113 0 176.5 -74t81.5 -194q3 -20 -12 -31t-33 -5.5
t-21 26.5q-31 212 -192 212q-58 0 -99.5 -27.5t-62.5 -74.5t-30 -98t-9 -110q0 -47 5 -88t19 -82.5t36 -71.5t58 -48.5t83 -18.5q161 0 192 211z" />
    <glyph glyph-name="one" unicode="1" horiz-adv-x="440" 
d="M63 524q-13 0 -23 10t-10 23q0 14 9.5 24t23.5 10h129q14 0 24 -10t10 -24v-534q0 -14 -10 -24t-24 -10t-23.5 10t-9.5 24v501h-96zM359 23q0 -14 -9.5 -24t-23.5 -10t-24 10t-10 24v635h-229q-13 0 -23 10t-10 23q0 14 9.5 23.5t23.5 9.5h263q14 0 23.5 -9.5t9.5 -23.5
v-668z" />
    <glyph glyph-name="two" unicode="2" horiz-adv-x="578" 
d="M138 505q-19 -9 -34 2t-15 30t19 28q70 38 147 38q105 2 118 -86q7 -45 -38 -113l-233 -354h400q21 0 29.5 -17t0 -34t-29.5 -17h-460q-21 0 -31 18t2 35l266 405q2 3 8 11.5t8.5 13.5l6.5 13t5 14.5t0 13.5q-7 33 -57 30q-55 -1 -112 -31zM113 647q-19 -8 -33.5 3.5
t-13 30.5t20.5 27q88 37 169 34q188 -2 246 -136q16 -39 18 -90t-13 -92q-12 -35 -41 -79l-103 -157h134q21 0 29.5 -17t0 -33.5t-29.5 -16.5h-195q-20 0 -30 17.5t1 34.5q5 7 27.5 41t42.5 63.5t42.5 65t38 62t19.5 38.5q10 30 9 68t-12 65q-39 99 -183 99q-75 0 -144 -28z
" />
    <glyph glyph-name="three" unicode="3" horiz-adv-x="499" 
d="M50 11q-19 8 -20.5 27t12.5 31t34 4q51 -21 100 -24.5t86 8t67.5 34t45.5 53.5t19 66t-12 73q-5 13 -13 26.5t-14 21.5t-11 16.5t-3.5 16.5t8.5 17q31 34 41 78t-4 84.5t-44 72.5t-84 46t-120 1q-12 -2 -28 -7t-26.5 -8.5t-21.5 -5t-18.5 3.5t-12.5 17t0.5 25t18.5 18
q56 23 110 29t98.5 -4t83 -31t64.5 -53t41 -69.5t14.5 -80.5t-16.5 -86q-11 -29 -28 -52q35 -50 42.5 -109t-14 -111t-63 -92t-109 -57t-147.5 -1q-38 7 -76 22zM95 504q-19 -9 -34.5 3t-14.5 31t22 28q70 35 142 32q50 -2 77 -34.5t26 -70.5t-29 -69t-75 -31
q-3 0 -13.5 -0.5t-15.5 0t-14 1t-14.5 3t-11 6t-8 10t-2.5 14.5q0 23 18 30t40 4t40 4.5t18 30.5q0 16 -11 25t-28 10q-54 3 -112 -27zM65 152q-19 10 -19 29t15.5 30t35.5 1q14 -7 37.5 -14.5t56 -11.5t46.5 13q16 14 7 35.5t-35 21.5q-3 0 -13.5 -0.5t-15.5 0t-14 1
t-14.5 3t-11 6t-8 10t-2.5 14.5t2.5 14.5t8 10t11 6t14.5 3t14 1t15.5 0t13.5 -0.5q47 0 75 -31t29 -68.5t-26 -70t-77 -35.5q-66 -3 -145 33z" />
    <glyph glyph-name="four" unicode="4" horiz-adv-x="590" 
d="M476 13q0 -13 -10 -23t-24 -10t-23.5 10t-9.5 23v207q0 14 9.5 23.5t23.5 9.5h90q14 0 23.5 -9.5t9.5 -23.5t-9.5 -24t-23.5 -10h-56v-173zM309 391q13 0 23 -9.5t10 -23.5t-9.5 -24t-23.5 -10h-81q-14 0 -24 10t-10 24q0 8 4 13l135 344q5 12 18 17.5t26 0.5
q12 -5 17.5 -17.5t0.5 -25.5l-118 -299h32zM532 391q14 0 23.5 -9.5t9.5 -23.5t-9.5 -24t-23.5 -10h-90q-14 0 -23.5 10t-9.5 24v117q0 14 9.5 23.5t23.5 9.5t24 -9.5t10 -23.5v-84h56zM189 715q5 12 17.5 17.5t25.5 0.5t18.5 -17.5t0.5 -25.5l-173 -437h231q13 0 23 -9.5
t10 -23.5v-207q0 -13 -10 -23t-23 -10q-14 0 -24 10t-10 23v173h-244q-18 0 -28.5 14t-3.5 32z" />
    <glyph glyph-name="five" unicode="5" horiz-adv-x="580" 
d="M286 487q252 -40 252 -261q0 -100 -64.5 -164.5t-167.5 -69.5q-53 -3 -120.5 6t-123.5 30q-19 8 -21 26.5t12 31t33 5.5q102 -39 217 -33q56 3 94.5 27.5t54.5 59.5t18.5 74.5t-9 75t-32.5 58.5q-52 56 -179 72q-13 1 -22 10.5t-9 22.5v102q0 14 9.5 23.5t23.5 9.5h204
q21 0 29.5 -16.5t0 -33.5t-29.5 -17h-170v-39zM456 727q21 0 29.5 -16.5t0 -33.5t-29.5 -17h-304v-285q248 -11 251 -147q1 -51 -39 -78.5t-99 -28.5q-77 -2 -185 37q-19 7 -22 25t10.5 31t33.5 6q158 -54 216 -21q24 14 18 40q-12 48 -122 64q-40 6 -92 6q-37 2 -37 34v350
q0 14 9.5 24t23.5 10h338z" />
    <glyph glyph-name="six" unicode="6" horiz-adv-x="548" 
d="M264 426l132 303q8 19 27 20.5t30.5 -13t2.5 -33.5l-116 -267q80 -22 123.5 -78.5t43.5 -140.5q0 -130 -98 -194q-82 -55 -185 -35q-104 21 -154 107q-65 113 4 286q8 20 147 352q8 19 26.5 20.5t30.5 -12.5t4 -33q-15 -36 -67 -159.5t-79 -190.5q-64 -161 8 -250
q49 -61 133 -59q82 1 130 61q35 44 35 107q0 141 -153 161q-16 2 -24.5 17.5t-0.5 30.5zM262 252q-20 0 -28.5 16.5t0 33t28.5 16.5q34 0 59.5 -18.5t36 -44.5t5 -57t-28.5 -53q-29 -28 -66.5 -28.5t-38.5 32.5q0 13 9.5 23t23.5 10q23 0 32 17.5t0 35t-32 17.5z" />
    <glyph glyph-name="seven" unicode="7" horiz-adv-x="497" 
d="M49 524q-21 0 -29.5 17t0 33.5t29.5 16.5h245q17 0 27.5 -15t2.5 -34l-205 -531q-7 -19 -25.5 -21t-31 12t-5.5 33l189 489h-197zM49 658q-21 0 -29.5 16.5t0 33t29.5 16.5h433q17 0 27.5 -14.5t2.5 -33.5l-256 -665q-8 -19 -26.5 -21t-31 12t-4.5 33l239 623h-384z" />
    <glyph glyph-name="eight" unicode="8" horiz-adv-x="565" 
d="M264 257q-21 0 -29.5 16.5t0 33.5t29.5 17q46 0 75.5 -31.5t28.5 -70.5t-30 -73q-30 -30 -68 -30.5t-39 33.5q0 14 9.5 23.5t23.5 9.5q24 0 33.5 18t0 36t-33.5 18zM106 222q0 -21 -17 -29.5t-33.5 0t-16.5 29.5q0 76 43 137q-38 54 -42 120.5t20.5 122.5t81.5 94t134 38
t134 -38t82 -93.5t20.5 -122t-42.5 -121.5q32 -46 40.5 -99.5t-6 -102t-45 -88.5t-79 -64t-104.5 -24q-20 0 -28.5 16.5t0 33t28.5 16.5q57 0 99 32t59 76.5t10.5 95t-39.5 85.5q-11 15 -10.5 22.5t8.5 21t18 26t18 37.5t8 54q0 47 -19 84t-49 56t-66 27.5t-72.5 0
t-66.5 -27.5t-49 -56t-19 -84q0 -69 44 -116h-2q10 -14 9.5 -21.5t-8.5 -21t-17.5 -26t-17.5 -37t-8 -53.5zM264 533q-21 0 -29.5 16.5t0 33t29.5 16.5q46 0 75.5 -31.5t28.5 -70t-30 -72.5q-30 -29 -68 -29.5t-39 32.5q0 14 9.5 23.5t23.5 9.5q24 0 33.5 18t0 36t-33.5 18z
" />
    <glyph glyph-name="nine" unicode="9" horiz-adv-x="538" 
d="M275 297l-127 -293q-8 -18 -26 -19.5t-29.5 12.5t-3.5 32l113 259q-77 21 -119.5 75t-42.5 136q0 126 96 188q81 52 180 31q101 -21 148 -106q59 -109 -6 -273q-25 -62 -73 -176.5t-68 -162.5q-8 -18 -26 -19t-29.5 12.5t-3.5 31.5q11 27 62.5 149.5t77.5 188.5
q62 157 -8 242q-48 59 -130 56q-80 -2 -125 -62q-31 -41 -31 -100q0 -134 147 -157q16 -2 23.5 -16t0.5 -29zM276 465q20 0 28.5 -16t0 -32t-28.5 -16q-43 0 -71 30t-27 67t29 69q28 28 64 29t37 -32q0 -13 -9.5 -22.5t-22.5 -9.5q-21 0 -30 -16.5t0 -33.5t30 -17z" />
    <glyph glyph-name="colon" unicode=":" horiz-adv-x="247" 
d="M121 196q45 0 75 -30.5t30 -75.5q0 -44 -30 -74.5t-75 -30.5t-75.5 30.5t-30.5 74.5q0 45 30 75.5t76 30.5zM121 137q-21 0 -34.5 -13t-13.5 -34t13.5 -33.5t34.5 -12.5t34 13t13 33q0 21 -12.5 34t-34.5 13zM121 465q45 0 75 -30.5t30 -75.5q0 -44 -30 -74.5t-75 -30.5
t-75.5 30t-30.5 75t30 75.5t76 30.5zM121 406q-21 0 -34.5 -13t-13.5 -34t13.5 -33.5t34.5 -12.5t34 12.5t13 33.5t-12.5 34t-34.5 13z" />
    <glyph glyph-name="semicolon" unicode=";" horiz-adv-x="247" 
d="M121 465q45 0 75 -30.5t30 -75.5q0 -44 -30 -74.5t-75 -30.5t-75.5 30t-30.5 75t30 75.5t76 30.5zM121 406q-21 0 -34.5 -13t-13.5 -34t13.5 -33.5t34.5 -12.5t34 12.5t13 33.5t-12.5 34t-34.5 13zM-13 -100l45 194q2 13 12 19.5t21 3.5q28 -7 23 -36l-35 -159h47l65 176
q5 12 15.5 17t21.5 1t16 -15.5t1 -22.5l-72 -193q-5 -21 -27 -21h-103q-5 0 -7 1q-28 7 -23 35z" />
    <glyph glyph-name="question" unicode="?" horiz-adv-x="510" 
d="M384 275q-11 -17 -30.5 -14.5t-26.5 18t3 33.5q5 8 23 34t25 38.5t18 34t15.5 42t4.5 42.5q0 75 -47.5 121t-113.5 48q-74 1 -120.5 -46.5t-46.5 -122.5q0 -21 -16.5 -29.5t-33.5 0t-17 29.5q0 102 66 169t168 65q93 -2 160 -66t67 -168q0 -23 -4.5 -46.5t-9 -38
t-17.5 -38.5t-18.5 -32.5t-25 -37t-23.5 -35.5zM249 202q46 0 77 -31t31 -77q0 -47 -31 -78.5t-77 -31.5q-48 0 -79 31.5t-31 78.5q0 46 31 77t79 31zM249 143q-24 0 -38 -13.5t-14 -35.5q0 -23 13.5 -36.5t38.5 -13.5q23 0 36.5 13.5t13.5 36.5q0 22 -13.5 35.5t-36.5 13.5
zM329 428l-104 -153q-12 -17 -31 -14.5t-26.5 18t2.5 33.5q2 2 33.5 48.5t53.5 80t26 44.5q12 35 -15 50q-24 13 -40 -4q-10 -10 -10 -28q0 -21 -17 -29.5t-33.5 0t-16.5 29.5q0 46 30 75.5t71.5 29t71.5 -32.5q28 -30 28 -72t-23 -75z" />
    <glyph glyph-name="A" unicode="A" horiz-adv-x="648" 
d="M273 190q-14 0 -23.5 10t-9.5 24t9.5 23.5t23.5 9.5h48l-30 74q-5 13 0.5 26t17.5 17q14 5 26.5 0t17.5 -17l49 -120q3 -6 3 -13q0 -14 -10.5 -24t-24.5 -10h-97zM224 17q-4 -13 -16.5 -18.5t-26.5 -0.5q-13 6 -18 18.5t0 25.5l24 61q11 21 31 21h207q25 0 32 -24l24 -58
q5 -13 0 -25.5t-18 -18.5q-13 -5 -26 0.5t-18 18.5l-16 39h-162zM81 17q-6 -13 -18.5 -18.5t-25.5 -0.5q-12 6 -17.5 18.5t-1.5 25.5l273 682q5 13 18 18.5t25 0.5q13 -4 19 -19l272 -682q5 -13 0 -25.5t-18 -18.5q-13 -5 -26 0.5t-18 18.5l-241 607z" />
    <glyph glyph-name="B" unicode="B" horiz-adv-x="657" 
d="M365 123q-1 0 -13 -0.5t-16.5 0t-14.5 2t-14.5 5t-8.5 10.5t-4 17q0 22 16.5 29t36.5 4.5t36.5 4.5t16.5 29q0 15 -9.5 24.5t-25.5 9.5h-117q-21 0 -29.5 16.5t0 33t29.5 16.5h117q69 0 94.5 -62.5t-22.5 -109.5q-29 -29 -72 -29zM248 526q-21 0 -29.5 17t0 33.5
t29.5 16.5h117q34 0 59.5 -18.5t36 -44.5t5 -57t-28.5 -53q-7 -7 -14 -12t-16 -8t-13.5 -5t-16.5 -3t-14.5 -1h-18h-16.5q-21 0 -29.5 16.5t0 33.5t29.5 17q2 0 14.5 -0.5t17 0t14.5 2t14 5t8 10.5t4 17q0 14 -10 24t-25 10h-117zM147 22q0 -21 -16.5 -29.5t-33.5 0
t-17 29.5v672q0 14 10 24t23 10h264q101 0 166.5 -68.5t65.5 -165.5q0 -77 -41 -136q39 -56 41 -122.5t-25.5 -120.5t-82.5 -90.5t-123 -36.5h-130q-21 0 -29.5 17t0 34t29.5 17h130q55 0 95.5 31t57 74t9.5 91t-39 81q-11 15 -11 22.5t8.5 21.5t18 26t17.5 36t8 53
q0 69 -48 118.5t-117 49.5h-230v-638z" />
    <glyph glyph-name="C" unicode="C" horiz-adv-x="627" 
d="M572 710q19 -8 20.5 -26.5t-13 -31t-33.5 -4.5q-59 25 -125 25q-134 0 -221 -89.5t-87 -222.5q1 -81 34.5 -150t106 -114.5t170.5 -45.5q60 0 122 24q19 8 33.5 -4t13 -30.5t-20.5 -26.5q-72 -29 -148 -29q-90 0 -163 32t-118.5 85t-70 119t-24.5 138q0 73 23.5 140
t69 121t119 86.5t164.5 32.5q76 0 148 -29zM526 214q18 9 33.5 -1.5t15 -27.5t-17.5 -29q-63 -37 -136 -35q-96 2 -163 67.5t-67 172.5q0 75 34.5 131.5t87.5 83.5t118.5 26t125.5 -35q17 -12 17.5 -29t-15 -27.5t-33.5 -0.5q-43 24 -91 25.5t-87 -17t-65 -60t-26 -97.5
q0 -79 47.5 -125t115.5 -48q57 -2 106 26z" />
    <glyph glyph-name="D" unicode="D" horiz-adv-x="735" 
d="M313 123h-66q-14 0 -23.5 10t-9.5 24q0 13 10 23t23 10h66q73 0 117.5 47.5t44.5 120.5q0 72 -44.5 119.5t-117.5 47.5h-33v-234q0 -14 -9.5 -24t-23.5 -10t-23.5 10t-9.5 24v267q0 14 9.5 24t23.5 10h66q101 0 164.5 -67t63.5 -167q0 -101 -63.5 -168t-164.5 -67z
M147 23q0 -14 -10 -23.5t-24 -9.5q-13 0 -23 10t-10 23v669q0 14 10 23.5t23 9.5h200q162 0 265 -104t103 -263q0 -160 -103 -264t-265 -104h-67q-14 0 -23.5 10t-9.5 23q0 14 9.5 24t23.5 10h67q134 0 217.5 84.5t83.5 216.5q0 131 -84 215.5t-217 84.5h-166v-635z" />
    <glyph glyph-name="E" unicode="E" horiz-adv-x="547" 
d="M459 591q14 0 24 -9.5t10 -23.5t-10 -23.5t-24 -9.5h-179v-67h117q14 0 24 -10t10 -24t-10 -23.5t-24 -9.5h-150q-14 0 -24 9.5t-10 23.5v134q0 14 10 23.5t24 9.5h212zM397 324q14 0 24 -9.5t10 -23.5t-10 -24t-24 -10h-117v-66h179q14 0 24 -10t10 -24t-10 -23.5
t-24 -9.5h-212q-14 0 -24 9.5t-10 23.5v134q0 14 10 23.5t24 9.5h150zM459 57q14 0 24 -10t10 -24t-10 -23.5t-24 -9.5h-346q-13 0 -23 10t-10 23v669q0 14 10 23.5t23 9.5h346q14 0 24 -9.5t10 -23.5t-10 -24t-24 -10h-312v-601h312z" />
    <glyph glyph-name="F" unicode="F" horiz-adv-x="531" 
d="M459 591q14 0 24 -9.5t10 -23.5t-10 -23.5t-24 -9.5h-179v-67h117q14 0 23.5 -10t9.5 -24t-10 -23.5t-23 -9.5h-150q-14 0 -24 9.5t-10 23.5v134q0 14 10 23.5t24 9.5h212zM397 324q13 0 23 -10t10 -23q0 -14 -9.5 -24t-23.5 -10h-117v-234q0 -13 -10 -23t-23 -10
q-14 0 -24 9.5t-10 23.5v268q0 14 10 23.5t24 9.5h150zM146 23q0 -13 -10 -23t-23 -10q-14 0 -23.5 9.5t-9.5 23.5v669q0 14 9.5 23.5t23.5 9.5h346q14 0 24 -9.5t10 -23.5t-10 -24t-24 -10h-313v-635z" />
    <glyph glyph-name="G" unicode="G" horiz-adv-x="708" 
d="M631 62q0 -19 -18 -29q-92 -51 -193 -50.5t-182 43t-134.5 129t-55.5 196.5q-2 104 43 188.5t120.5 131t173.5 60.5t203 -22q14 -4 21 -13.5t6 -19.5t-6 -19t-16 -12t-25 1q-71 21 -137.5 21.5t-124.5 -23.5t-101 -63.5t-67 -99t-23 -129.5q1 -73 29.5 -133.5t75 -98
t104 -57t120.5 -14.5t120 33v276q0 21 17 29.5t33.5 0t16.5 -29.5v-296zM578 571q19 -9 20 -27.5t-13.5 -30.5t-33.5 -4q-53 24 -126 22q-47 -2 -83.5 -22t-55 -50.5t-26.5 -67t1 -72.5t28 -66t55.5 -48t82.5 -18v171q0 21 17 29.5t34 0t17 -29.5v-202q0 -37 -71 -37
q-73 0 -127 34.5t-79.5 87t-26.5 113.5t23 114t78.5 89.5t130.5 39.5q86 3 155 -26z" />
    <glyph glyph-name="H" unicode="H" horiz-adv-x="696" 
d="M214 692q0 14 10 23.5t23 9.5q14 0 24 -9.5t10 -23.5v-234h133v234q0 14 10 23.5t24 9.5t23.5 -9.5t9.5 -23.5v-268q0 -14 -9.5 -23.5t-23.5 -9.5h-201q-13 0 -23 9.5t-10 23.5v268zM481 23q0 -13 -9.5 -23t-23.5 -10t-24 9.5t-10 23.5v234h-133v-234q0 -14 -10 -23.5
t-24 -9.5q-13 0 -23 10t-10 23v268q0 13 10 23t23 10h201q14 0 23.5 -10t9.5 -23v-268zM147 23q0 -13 -9.5 -23t-23.5 -10t-24 9.5t-10 23.5v669q0 14 10 23.5t24 9.5t23.5 -9.5t9.5 -23.5v-669zM548 692q0 14 10 23.5t23 9.5q14 0 24 -9.5t10 -23.5v-669q0 -14 -10 -23.5
t-24 -9.5q-13 0 -23 10t-10 23v669z" />
    <glyph glyph-name="I" unicode="I" horiz-adv-x="362" 
d="M281 23q0 -13 -9.5 -23t-23.5 -10t-24 9.5t-10 23.5v669q0 14 10 23.5t24 9.5t23.5 -9.5t9.5 -23.5v-669zM147 23q0 -13 -9.5 -23t-23.5 -10t-24 9.5t-10 23.5v669q0 14 10 23.5t24 9.5t23.5 -9.5t9.5 -23.5v-669z" />
    <glyph glyph-name="J" unicode="J" horiz-adv-x="507" 
d="M65 -10q-13 0 -23 10t-10 23q0 14 9.5 24t23.5 10h132q76 -1 120 47t44 120v468q0 14 10 23.5t24 9.5q13 0 23 -9.5t10 -23.5v-468q0 -99 -62.5 -166.5t-168.5 -67.5h-132zM228 224v468q0 14 10 23.5t23 9.5t23 -9.5t10 -23.5v-468q0 -42 -29.5 -71t-71.5 -29h-118
q-14 0 -24 9.5t-10 23.5t10 24t24 10h118q15 0 25 9t10 24z" />
    <glyph glyph-name="K" unicode="K" horiz-adv-x="611" 
d="M147 23q0 -14 -10 -23.5t-24 -9.5q-13 0 -23 10t-10 23v669q0 14 10 23.5t23 9.5q14 0 24 -9.5t10 -23.5v-669zM428 43q8 -12 5.5 -25.5t-14.5 -21.5q-11 -8 -24.5 -5.5t-21.5 13.5l-93 133v-114q0 -14 -9.5 -23.5t-23.5 -9.5q-13 0 -23 10t-10 23v219q0 25 23 32.5
t37 -12.5zM373 711q8 11 21.5 13.5t24.5 -5.5q12 -8 14.5 -21.5t-5.5 -24.5l-154 -220q-8 -11 -21.5 -13.5t-24.5 5.5q-14 10 -14 29v218q0 14 10 23.5t23 9.5q14 0 23.5 -9.5t9.5 -23.5v-114zM536 711q8 11 21.5 13.5t24.5 -5.5q12 -8 14.5 -21.5t-5.5 -24.5l-220 -315
l220 -315q8 -12 5.5 -25.5t-14.5 -21.5q-11 -8 -24.5 -5.5t-21.5 13.5l-233 334q-14 19 0 39z" />
    <glyph glyph-name="L" unicode="L" horiz-adv-x="579" 
d="M503 57q14 0 23.5 -10t9.5 -24t-9.5 -23.5t-23.5 -9.5h-389q-14 0 -24 9.5t-10 23.5v669q0 14 10 23.5t24 9.5t23.5 -9.5t9.5 -23.5v-635h356zM214 692q0 14 10 23.5t23 9.5q14 0 24 -9.5t10 -23.5v-501h222q14 0 23.5 -10t9.5 -24t-9.5 -23.5t-23.5 -9.5h-256
q-13 0 -23 10t-10 23v535z" />
    <glyph glyph-name="M" unicode="M" horiz-adv-x="899" 
d="M682 24q0 -14 -10 -24t-24 -10t-24 10t-10 24v315l-137 -197q-8 -11 -22.5 -14t-25.5 5q-6 6 -8 9l-137 197v-315q0 -14 -10 -24t-25 -10q-14 0 -23.5 10t-9.5 24v423q0 18 14 27q11 8 25.5 5.5t22.5 -13.5l170 -246l172 245q10 15 28 15q14 0 24 -9.5t10 -23.5v-423z
M148 24q0 -14 -10 -24t-24 -10t-24 10t-10 24v678q0 14 10 24t24 10t24 -10t10 -24v-678zM818 24q0 -14 -10 -24t-25 -10q-14 0 -23.5 10t-9.5 24v678q0 14 9.5 24t23.5 10q15 0 25 -10t10 -24v-678zM633 722q8 11 22 13.5t26 -5.5q11 -8 13.5 -22t-5.5 -25l-212 -304
q-8 -12 -22.5 -14.5t-25.5 6.5q-5 3 -8 9l-212 303q-8 11 -5.5 25t13.5 22t25.5 5.5t22.5 -13.5l183 -265z" />
    <glyph glyph-name="N" unicode="N" horiz-adv-x="773" 
d="M146 23q0 -14 -9.5 -24t-23.5 -10q-13 0 -23 10t-10 24v669q0 13 9.5 22.5t23.5 9.5t23.5 -9t9.5 -23v-669zM692 23q0 -14 -10 -24t-24 -10q-13 0 -23 10t-10 24v669q0 13 9.5 22.5t23.5 9.5t24 -9.5t10 -22.5v-669zM565 42q7 -11 5 -24.5t-13 -22.5q-28 -17 -47 9
l-230 329v-310q0 -14 -10 -23.5t-24 -9.5q-13 0 -22.5 9.5t-9.5 23.5v416q0 19 14 27q11 9 24.5 6.5t21.5 -14.5zM207 672q-8 12 -5.5 25t13.5 21q11 9 24.5 6.5t21.5 -14.5l230 -329v311q0 13 10 22.5t24 9.5t23.5 -9.5t9.5 -22.5v-416q0 -19 -15 -28q-11 -8 -24.5 -5.5
t-21.5 13.5z" />
    <glyph glyph-name="O" unicode="O" horiz-adv-x="861" 
d="M805 473q4 -14 -2.5 -26t-19.5 -16q-14 -5 -26.5 2t-16.5 20q-32 98 -116 159q-84 60 -188 60q-75 0 -136 -27t-98.5 -71t-58 -100t-20.5 -115t20.5 -115t58 -100t98.5 -71t136 -27q106 0 188 60q84 59 116 159q4 13 16.5 19.5t26.5 2.5q13 -4 19.5 -16.5t2.5 -26.5
q-38 -119 -140 -193q-105 -74 -229 -74q-92 0 -166 33t-119.5 86.5t-70.5 122t-25 140t25 140t70.5 122t119.5 86.5t166 33q126 0 229 -73q103 -76 140 -194zM230 238q-7 13 -3.5 25.5t15.5 20.5q13 7 26 3.5t20 -16.5q26 -43 64 -63q38 -24 84 -24q73 0 121 51
q51 49 51 124q0 74 -51 123q-49 51 -121 51q-46 0 -84 -23q-39 -23 -64 -63q-7 -13 -20 -17t-26 3q-12 7 -15.5 20.5t3.5 26.5q32 57 87 89t119 32q100 0 171 -71q69 -72 69 -171t-69 -171q-70 -72 -171 -72q-61 0 -119 32q-55 34 -87 90z" />
    <glyph glyph-name="P" unicode="P" horiz-adv-x="637" 
d="M365 391q-2 0 -14 -0.5t-16.5 0t-14 2t-14 5t-8.5 10t-4 16.5t4 16.5t8.5 10t13.5 5t14.5 2t16.5 0t14 -0.5q22 0 31 16.5t0 33.5t-31 17h-118q-21 0 -29.5 17t0 33.5t29.5 16.5h118q38 0 64 -20.5t32.5 -50t0 -59t-32.5 -50t-64 -20.5zM147 24q0 -21 -16.5 -29.5
t-33.5 0t-17 29.5v666q0 15 9.5 24.5t23.5 9.5h264q72 0 125.5 -34.5t77 -86.5t23.5 -112.5t-24 -112.5t-77 -86.5t-125 -34.5h-96v-233q0 -21 -17 -29.5t-34 0t-17 29.5v267q0 13 10 23t24 10h130q51 0 89 24.5t55 62t17 80.5t-17 80.5t-55 62t-89 24.5h-230v-634z" />
    <glyph glyph-name="Q" unicode="Q" horiz-adv-x="858" 
d="M730 135l67 -97q12 -17 3 -34t-26.5 -18.5t-31.5 14.5l-82 116q-16 23 1 43q50 57 67 127t0.5 135t-55 120t-104 88t-142.5 33q-73 0 -132.5 -26t-96 -69t-56.5 -97.5t-20 -112t19.5 -112t56 -97.5t96 -69t133.5 -26q40 0 75 9t51.5 17.5t30.5 8.5t24 -16q1 -2 8.5 -11.5
t10.5 -14t7.5 -13.5t4.5 -15t-3.5 -13t-11.5 -13q-27 -21 -55 20q-74 -28 -142 -28q-90 0 -162.5 32t-117 84.5t-68.5 119.5t-24 137t24 137t68.5 119.5t117 84.5t162.5 32q76 0 143 -27.5t114.5 -73t78.5 -106.5t38.5 -126t-10 -134t-61.5 -128zM530 304q-12 17 -2.5 33.5
t26.5 18.5t31 -14l7 -9q10 75 -38.5 134.5t-126.5 59.5q-108 0 -148.5 -90t9 -175t157.5 -74l-80 116q-12 17 -2.5 33.5t26.5 18.5t31 -14l112 -162q7 -18 -3 -31t-30.5 -18.5t-38.5 -8t-33 -2.5q-63 0 -113 26t-75.5 68t-37.5 92.5t0 101t37.5 92.5t75.5 68t113 26
q65 0 119.5 -33t82 -84t32.5 -113t-29 -121q-9 -17 -28 -18t-30 15z" />
    <glyph glyph-name="R" unicode="R" horiz-adv-x="624" 
d="M366 391h-9.5h-12.5h-11q-15 1 -25 8t-13 16.5t-0.5 19t13 16t25.5 6.5h11.5h12t11 0.5t11 2t9 4t7.5 6t4 9t2 12.5q0 15 -10 24.5t-25 9.5h-119q-21 0 -29.5 16.5t0 33.5t29.5 17h119q44 0 72.5 -31t28.5 -71q0 -42 -29.5 -70.5t-71.5 -28.5zM428 43q12 -17 2.5 -34
t-26.5 -19t-31 14l-92 133v-114q0 -21 -16.5 -29.5t-33.5 0t-17 29.5v218q0 26 23.5 33t37.5 -12zM147 23q0 -21 -16.5 -29.5t-33.5 0t-17 29.5v669q0 13 10 23t24 10h263q50 0 93 -19.5t72.5 -51t47 -73.5t19 -85.5t-15.5 -88.5t-52 -81q-46 -46 -105 -61l155 -222
q12 -17 2.5 -34t-26.5 -19t-30 14l-185 265q-14 19 -4.5 37t29.5 18q53 0 94 30.5t58.5 73.5t9 93.5t-45.5 88.5q-48 48 -116 48h-230v-635z" />
    <glyph glyph-name="S" unicode="S" horiz-adv-x="566" 
d="M455 699q19 -7 21.5 -25.5t-11 -31.5t-33.5 -6q-183 65 -264 -24q-43 -46 -45 -110.5t49 -113.5q27 -25 68.5 -44t71 -29t53 -33.5t25.5 -60.5q2 -41 -28 -69.5t-72 -31.5q-119 -7 -212 60q-17 12 -13.5 31t19 26t33.5 -3q37 -27 87.5 -40t86 -6.5t32.5 30.5
q-1 16 -19.5 27.5t-44 19.5t-63.5 27t-69 46q-53 46 -66.5 113t8.5 126.5t77.5 103t129.5 47.5q82 4 179 -29zM65 38q-17 12 -17.5 29t15.5 28t34 2q79 -42 162 -46.5t142 39t59 131.5q0 39 -18.5 69.5t-48.5 50t-60 33.5t-61 27t-43 23q-40 32 -36 83q4 56 60 77
q69 27 187 -21q18 -8 19.5 -26.5t-12.5 -30.5t-33 -4q-112 45 -148 14q-18 -16 -2 -36l6 -5q8 -6 40.5 -18.5t66.5 -30t69 -43t57.5 -68t22.5 -94.5q0 -134 -102.5 -196.5t-246.5 -27.5q-58 12 -112 41zM284 186z" />
    <glyph glyph-name="T" unicode="T" horiz-adv-x="581" 
d="M521 591q13 0 22.5 -10t9.5 -24q0 -13 -9.5 -22.5t-22.5 -9.5h-134v-501q0 -14 -10 -24t-24 -10t-23.5 10t-9.5 24v533q0 14 9.5 24t23.5 10h168zM54 658q-14 0 -24 9.5t-10 23.5t10 23.5t24 9.5h467q14 0 23 -9.5t9 -23.5t-9.5 -23.5t-22.5 -9.5h-467zM54 525
q-14 0 -24 9.5t-10 22.5q0 14 10 24t24 10h166q14 0 24 -10t10 -24v-533q0 -14 -10 -24t-24 -10t-24 10t-10 24v501h-132z" />
    <glyph glyph-name="U" unicode="U" 
d="M213 265v428q0 14 9.5 24t23.5 10t24 -10t10 -24v-428q0 -50 38.5 -70.5t77.5 0t39 70.5v428q0 14 9.5 24t24.5 10q14 0 23.5 -10t9.5 -24v-428q0 -40 -16 -71.5t-41.5 -48t-56 -24t-61.5 0t-56.5 24t-41.5 48t-16 71.5zM638 257q0 -66 -24 -120t-63.5 -87t-90 -50.5
t-103.5 -17.5t-103.5 18t-90 51t-63.5 86.5t-24 119.5v436q0 14 9.5 24t23.5 10t24 -10t10 -24v-436q0 -67 32 -116t79.5 -71t103 -22t103 22t79.5 71t32 116v436q0 14 9.5 24t23.5 10t23.5 -10t9.5 -24v-436z" />
    <glyph glyph-name="V" unicode="V" horiz-adv-x="651" 
d="M161 679q-6 14 -0.5 26t17.5 18q14 5 26.5 -0.5t17.5 -18.5l104 -253l103 253q4 13 17 18.5t26 0.5q29 -14 19 -44l-135 -329q-8 -20 -30.5 -20t-31.5 20zM580 704q5 13 18 18.5t25 0.5q13 -6 18 -18.5t0 -25.5l-285 -699q-9 -21 -31 -21t-31 21l-285 699q-10 31 19 44
q13 5 25.5 -0.5t17.5 -18.5l255 -624z" />
    <glyph glyph-name="W" unicode="W" horiz-adv-x="916" 
d="M159 683q-5 13 0.5 25.5t18.5 17.5t25.5 0t17.5 -18l103 -253l103 253q4 13 17 18t26 0q11 -4 19 -18l103 -253l103 253q4 13 17 18t26 0q12 -5 17.5 -17.5t0.5 -25.5l-134 -328q-6 -15 -18 -19q-13 -5 -25.5 0.5t-18.5 18.5l-103 252l-103 -252q-6 -15 -17 -19
q-13 -5 -26 0.5t-18 18.5zM845 708q5 13 18 18t26 0q12 -5 17.5 -17.5t-0.5 -25.5l-284 -698q-9 -21 -31 -20.5t-31 20.5l-103 253l-103 -253q-8 -21 -30.5 -21t-30.5 22l-285 697q-4 13 1.5 25.5t17.5 17.5q13 5 26 0t17 -18l254 -623l102 251q10 22 31.5 22.5t31.5 -22.5
l103 -251z" />
    <glyph glyph-name="X" unicode="X" horiz-adv-x="643" 
d="M188 687q-6 11 -4.5 21.5t9 17.5t16.5 10t19.5 -1t16.5 -15l77 -132l76 132q12 17 28.5 17t27 -16t0.5 -34l-105 -181q-9 -16 -28 -16t-28 16zM480 30q10 -18 -0.5 -34t-27.5 -16t-29 17l-101 175l-102 -175q-13 -17 -30 -17t-27.5 16t-0.5 34l131 224q9 16 28 16t28 -16
zM69 1q-11 -18 -30 -16.5t-27 16t0 33.5l202 349l-177 305q-10 17 0.5 33t27.5 16t29 -16l185 -322q12 -16 1 -33zM548 721q12 16 29 16t27.5 -16t0.5 -33l-177 -305l203 -349q10 -18 -0.5 -33.5t-27.5 -16t-29 16.5l-211 364q-11 17 0 34z" />
    <glyph glyph-name="Y" unicode="Y" horiz-adv-x="675" 
d="M309 459l-135 227q-8 13 -4.5 26t16.5 20q11 8 24.5 4.5t20.5 -15.5l108 -183l108 183q7 12 21 15.5t25 -4.5q12 -7 15.5 -20t-3.5 -26l-136 -228q-11 -19 -30 -18.5t-30 19.5zM611 721q7 13 20.5 16t25.5 -5q11 -8 14 -21t-4 -25l-227 -365v-308q0 -14 -10 -24t-24 -10
t-24 10t-10 24v316q0 9 5 19zM306 13q0 -14 -9.5 -24t-23.5 -10t-24 10t-10 24v308l-228 365q-7 12 -4 25.5t15 20.5q11 8 25 5t21 -16l232 -371q6 -10 6 -20v-317z" />
    <glyph glyph-name="Z" unicode="Z" horiz-adv-x="581" 
d="M85 659q-21 0 -29.5 16.5t0 33t29.5 16.5h387q18 0 28 -14.5t3 -32.5l-199 -487h210q21 0 29.5 -16.5t0 -33.5t-29.5 -17h-263q-18 0 -26.5 14t-0.5 32l199 489h-338zM514 58q21 0 29.5 -17t0 -34t-29.5 -17h-458q-18 0 -28 15t-3 33l199 487h-139q-21 0 -29.5 16.5
t0 33.5t29.5 17h186q21 0 30.5 -15t1.5 -35l-198 -484h409z" />
    <glyph glyph-name="grave" unicode="`" horiz-adv-x="375" 
d="M172 714l100 -108q8 -9 8 -22t-10 -22q-10 -10 -22.5 -9t-22.5 11l-101 106q-16 23 2 46q25 19 46 -2z" />
    <glyph glyph-name="a" unicode="a" horiz-adv-x="648" 
d="M273 190q-14 0 -23.5 10t-9.5 24t9.5 23.5t23.5 9.5h48l-30 74q-5 13 0.5 26t17.5 17q14 5 26.5 0t17.5 -17l49 -120q3 -6 3 -13q0 -14 -10.5 -24t-24.5 -10h-97zM224 17q-4 -13 -16.5 -18.5t-26.5 -0.5q-13 6 -18 18.5t0 25.5l24 61q11 21 31 21h207q25 0 32 -24l24 -58
q5 -13 0 -25.5t-18 -18.5q-13 -5 -26 0.5t-18 18.5l-16 39h-162zM81 17q-6 -13 -18.5 -18.5t-25.5 -0.5q-12 6 -17.5 18.5t-1.5 25.5l273 682q5 13 18 18.5t25 0.5q13 -4 19 -19l272 -682q5 -13 0 -25.5t-18 -18.5q-13 -5 -26 0.5t-18 18.5l-241 607z" />
    <glyph glyph-name="b" unicode="b" horiz-adv-x="657" 
d="M365 123q-1 0 -13 -0.5t-16.5 0t-14.5 2t-14.5 5t-8.5 10.5t-4 17q0 22 16.5 29t36.5 4.5t36.5 4.5t16.5 29q0 15 -9.5 24.5t-25.5 9.5h-117q-21 0 -29.5 16.5t0 33t29.5 16.5h117q69 0 94.5 -62.5t-22.5 -109.5q-29 -29 -72 -29zM248 526q-21 0 -29.5 17t0 33.5
t29.5 16.5h117q34 0 59.5 -18.5t36 -44.5t5 -57t-28.5 -53q-7 -7 -14 -12t-16 -8t-13.5 -5t-16.5 -3t-14.5 -1h-18h-16.5q-21 0 -29.5 16.5t0 33.5t29.5 17q2 0 14.5 -0.5t17 0t14.5 2t14 5t8 10.5t4 17q0 14 -10 24t-25 10h-117zM147 22q0 -21 -16.5 -29.5t-33.5 0
t-17 29.5v672q0 14 10 24t23 10h264q101 0 166.5 -68.5t65.5 -165.5q0 -77 -41 -136q39 -56 41 -122.5t-25.5 -120.5t-82.5 -90.5t-123 -36.5h-130q-21 0 -29.5 17t0 34t29.5 17h130q55 0 95.5 31t57 74t9.5 91t-39 81q-11 15 -11 22.5t8.5 21.5t18 26t17.5 36t8 53
q0 69 -48 118.5t-117 49.5h-230v-638z" />
    <glyph glyph-name="c" unicode="c" horiz-adv-x="627" 
d="M572 710q19 -8 20.5 -26.5t-13 -31t-33.5 -4.5q-59 25 -125 25q-134 0 -221 -89.5t-87 -222.5q1 -81 34.5 -150t106 -114.5t170.5 -45.5q60 0 122 24q19 8 33.5 -4t13 -30.5t-20.5 -26.5q-72 -29 -148 -29q-90 0 -163 32t-118.5 85t-70 119t-24.5 138q0 73 23.5 140
t69 121t119 86.5t164.5 32.5q76 0 148 -29zM526 214q18 9 33.5 -1.5t15 -27.5t-17.5 -29q-63 -37 -136 -35q-96 2 -163 67.5t-67 172.5q0 75 34.5 131.5t87.5 83.5t118.5 26t125.5 -35q17 -12 17.5 -29t-15 -27.5t-33.5 -0.5q-43 24 -91 25.5t-87 -17t-65 -60t-26 -97.5
q0 -79 47.5 -125t115.5 -48q57 -2 106 26z" />
    <glyph glyph-name="d" unicode="d" horiz-adv-x="735" 
d="M313 123h-66q-14 0 -23.5 10t-9.5 24q0 13 10 23t23 10h66q73 0 117.5 47.5t44.5 120.5q0 72 -44.5 119.5t-117.5 47.5h-33v-234q0 -14 -9.5 -24t-23.5 -10t-23.5 10t-9.5 24v267q0 14 9.5 24t23.5 10h66q101 0 164.5 -67t63.5 -167q0 -101 -63.5 -168t-164.5 -67z
M147 23q0 -14 -10 -23.5t-24 -9.5q-13 0 -23 10t-10 23v669q0 14 10 23.5t23 9.5h200q162 0 265 -104t103 -263q0 -160 -103 -264t-265 -104h-67q-14 0 -23.5 10t-9.5 23q0 14 9.5 24t23.5 10h67q134 0 217.5 84.5t83.5 216.5q0 131 -84 215.5t-217 84.5h-166v-635z" />
    <glyph glyph-name="e" unicode="e" horiz-adv-x="547" 
d="M459 591q14 0 24 -9.5t10 -23.5t-10 -23.5t-24 -9.5h-179v-67h117q14 0 24 -10t10 -24t-10 -23.5t-24 -9.5h-150q-14 0 -24 9.5t-10 23.5v134q0 14 10 23.5t24 9.5h212zM397 324q14 0 24 -9.5t10 -23.5t-10 -24t-24 -10h-117v-66h179q14 0 24 -10t10 -24t-10 -23.5
t-24 -9.5h-212q-14 0 -24 9.5t-10 23.5v134q0 14 10 23.5t24 9.5h150zM459 57q14 0 24 -10t10 -24t-10 -23.5t-24 -9.5h-346q-13 0 -23 10t-10 23v669q0 14 10 23.5t23 9.5h346q14 0 24 -9.5t10 -23.5t-10 -24t-24 -10h-312v-601h312z" />
    <glyph glyph-name="f" unicode="f" horiz-adv-x="531" 
d="M459 591q14 0 24 -9.5t10 -23.5t-10 -23.5t-24 -9.5h-179v-67h117q14 0 23.5 -10t9.5 -24t-10 -23.5t-23 -9.5h-150q-14 0 -24 9.5t-10 23.5v134q0 14 10 23.5t24 9.5h212zM397 324q13 0 23 -10t10 -23q0 -14 -9.5 -24t-23.5 -10h-117v-234q0 -13 -10 -23t-23 -10
q-14 0 -24 9.5t-10 23.5v268q0 14 10 23.5t24 9.5h150zM146 23q0 -13 -10 -23t-23 -10q-14 0 -23.5 9.5t-9.5 23.5v669q0 14 9.5 23.5t23.5 9.5h346q14 0 24 -9.5t10 -23.5t-10 -24t-24 -10h-313v-635z" />
    <glyph glyph-name="g" unicode="g" horiz-adv-x="708" 
d="M631 62q0 -19 -18 -29q-92 -51 -193 -50.5t-182 43t-134.5 129t-55.5 196.5q-2 104 43 188.5t120.5 131t173.5 60.5t203 -22q14 -4 21 -13.5t6 -19.5t-6 -19t-16 -12t-25 1q-71 21 -137.5 21.5t-124.5 -23.5t-101 -63.5t-67 -99t-23 -129.5q1 -73 29.5 -133.5t75 -98
t104 -57t120.5 -14.5t120 33v276q0 21 17 29.5t33.5 0t16.5 -29.5v-296zM578 571q19 -9 20 -27.5t-13.5 -30.5t-33.5 -4q-53 24 -126 22q-47 -2 -83.5 -22t-55 -50.5t-26.5 -67t1 -72.5t28 -66t55.5 -48t82.5 -18v171q0 21 17 29.5t34 0t17 -29.5v-202q0 -37 -71 -37
q-73 0 -127 34.5t-79.5 87t-26.5 113.5t23 114t78.5 89.5t130.5 39.5q86 3 155 -26z" />
    <glyph glyph-name="h" unicode="h" horiz-adv-x="696" 
d="M214 692q0 14 10 23.5t23 9.5q14 0 24 -9.5t10 -23.5v-234h133v234q0 14 10 23.5t24 9.5t23.5 -9.5t9.5 -23.5v-268q0 -14 -9.5 -23.5t-23.5 -9.5h-201q-13 0 -23 9.5t-10 23.5v268zM481 23q0 -13 -9.5 -23t-23.5 -10t-24 9.5t-10 23.5v234h-133v-234q0 -14 -10 -23.5
t-24 -9.5q-13 0 -23 10t-10 23v268q0 13 10 23t23 10h201q14 0 23.5 -10t9.5 -23v-268zM147 23q0 -13 -9.5 -23t-23.5 -10t-24 9.5t-10 23.5v669q0 14 10 23.5t24 9.5t23.5 -9.5t9.5 -23.5v-669zM548 692q0 14 10 23.5t23 9.5q14 0 24 -9.5t10 -23.5v-669q0 -14 -10 -23.5
t-24 -9.5q-13 0 -23 10t-10 23v669z" />
    <glyph glyph-name="i" unicode="i" horiz-adv-x="362" 
d="M281 23q0 -13 -9.5 -23t-23.5 -10t-24 9.5t-10 23.5v669q0 14 10 23.5t24 9.5t23.5 -9.5t9.5 -23.5v-669zM147 23q0 -13 -9.5 -23t-23.5 -10t-24 9.5t-10 23.5v669q0 14 10 23.5t24 9.5t23.5 -9.5t9.5 -23.5v-669z" />
    <glyph glyph-name="j" unicode="j" horiz-adv-x="507" 
d="M65 -10q-13 0 -23 10t-10 23q0 14 9.5 24t23.5 10h132q76 -1 120 47t44 120v468q0 14 10 23.5t24 9.5q13 0 23 -9.5t10 -23.5v-468q0 -99 -62.5 -166.5t-168.5 -67.5h-132zM228 224v468q0 14 10 23.5t23 9.5t23 -9.5t10 -23.5v-468q0 -42 -29.5 -71t-71.5 -29h-118
q-14 0 -24 9.5t-10 23.5t10 24t24 10h118q15 0 25 9t10 24z" />
    <glyph glyph-name="k" unicode="k" horiz-adv-x="611" 
d="M147 23q0 -14 -10 -23.5t-24 -9.5q-13 0 -23 10t-10 23v669q0 14 10 23.5t23 9.5q14 0 24 -9.5t10 -23.5v-669zM428 43q8 -12 5.5 -25.5t-14.5 -21.5q-11 -8 -24.5 -5.5t-21.5 13.5l-93 133v-114q0 -14 -9.5 -23.5t-23.5 -9.5q-13 0 -23 10t-10 23v219q0 25 23 32.5
t37 -12.5zM373 711q8 11 21.5 13.5t24.5 -5.5q12 -8 14.5 -21.5t-5.5 -24.5l-154 -220q-8 -11 -21.5 -13.5t-24.5 5.5q-14 10 -14 29v218q0 14 10 23.5t23 9.5q14 0 23.5 -9.5t9.5 -23.5v-114zM536 711q8 11 21.5 13.5t24.5 -5.5q12 -8 14.5 -21.5t-5.5 -24.5l-220 -315
l220 -315q8 -12 5.5 -25.5t-14.5 -21.5q-11 -8 -24.5 -5.5t-21.5 13.5l-233 334q-14 19 0 39z" />
    <glyph glyph-name="l" unicode="l" horiz-adv-x="579" 
d="M503 57q14 0 23.5 -10t9.5 -24t-9.5 -23.5t-23.5 -9.5h-389q-14 0 -24 9.5t-10 23.5v669q0 14 10 23.5t24 9.5t23.5 -9.5t9.5 -23.5v-635h356zM214 692q0 14 10 23.5t23 9.5q14 0 24 -9.5t10 -23.5v-501h222q14 0 23.5 -10t9.5 -24t-9.5 -23.5t-23.5 -9.5h-256
q-13 0 -23 10t-10 23v535z" />
    <glyph glyph-name="m" unicode="m" horiz-adv-x="899" 
d="M682 24q0 -14 -10 -24t-24 -10t-24 10t-10 24v315l-137 -197q-8 -11 -22.5 -14t-25.5 5q-6 6 -8 9l-137 197v-315q0 -14 -10 -24t-25 -10q-14 0 -23.5 10t-9.5 24v423q0 18 14 27q11 8 25.5 5.5t22.5 -13.5l170 -246l172 245q10 15 28 15q14 0 24 -9.5t10 -23.5v-423z
M148 24q0 -14 -10 -24t-24 -10t-24 10t-10 24v678q0 14 10 24t24 10t24 -10t10 -24v-678zM818 24q0 -14 -10 -24t-25 -10q-14 0 -23.5 10t-9.5 24v678q0 14 9.5 24t23.5 10q15 0 25 -10t10 -24v-678zM633 722q8 11 22 13.5t26 -5.5q11 -8 13.5 -22t-5.5 -25l-212 -304
q-8 -12 -22.5 -14.5t-25.5 6.5q-5 3 -8 9l-212 303q-8 11 -5.5 25t13.5 22t25.5 5.5t22.5 -13.5l183 -265z" />
    <glyph glyph-name="n" unicode="n" horiz-adv-x="773" 
d="M146 23q0 -14 -9.5 -24t-23.5 -10q-13 0 -23 10t-10 24v669q0 13 9.5 22.5t23.5 9.5t23.5 -9t9.5 -23v-669zM692 23q0 -14 -10 -24t-24 -10q-13 0 -23 10t-10 24v669q0 13 9.5 22.5t23.5 9.5t24 -9.5t10 -22.5v-669zM565 42q7 -11 5 -24.5t-13 -22.5q-28 -17 -47 9
l-230 329v-310q0 -14 -10 -23.5t-24 -9.5q-13 0 -22.5 9.5t-9.5 23.5v416q0 19 14 27q11 9 24.5 6.5t21.5 -14.5zM207 672q-8 12 -5.5 25t13.5 21q11 9 24.5 6.5t21.5 -14.5l230 -329v311q0 13 10 22.5t24 9.5t23.5 -9.5t9.5 -22.5v-416q0 -19 -15 -28q-11 -8 -24.5 -5.5
t-21.5 13.5z" />
    <glyph glyph-name="o" unicode="o" horiz-adv-x="861" 
d="M805 473q4 -14 -2.5 -26t-19.5 -16q-14 -5 -26.5 2t-16.5 20q-32 98 -116 159q-84 60 -188 60q-75 0 -136 -27t-98.5 -71t-58 -100t-20.5 -115t20.5 -115t58 -100t98.5 -71t136 -27q106 0 188 60q84 59 116 159q4 13 16.5 19.5t26.5 2.5q13 -4 19.5 -16.5t2.5 -26.5
q-38 -119 -140 -193q-105 -74 -229 -74q-92 0 -166 33t-119.5 86.5t-70.5 122t-25 140t25 140t70.5 122t119.5 86.5t166 33q126 0 229 -73q103 -76 140 -194zM230 238q-7 13 -3.5 25.5t15.5 20.5q13 7 26 3.5t20 -16.5q26 -43 64 -63q38 -24 84 -24q73 0 121 51
q51 49 51 124q0 74 -51 123q-49 51 -121 51q-46 0 -84 -23q-39 -23 -64 -63q-7 -13 -20 -17t-26 3q-12 7 -15.5 20.5t3.5 26.5q32 57 87 89t119 32q100 0 171 -71q69 -72 69 -171t-69 -171q-70 -72 -171 -72q-61 0 -119 32q-55 34 -87 90z" />
    <glyph glyph-name="p" unicode="p" horiz-adv-x="637" 
d="M365 391q-2 0 -14 -0.5t-16.5 0t-14 2t-14 5t-8.5 10t-4 16.5t4 16.5t8.5 10t13.5 5t14.5 2t16.5 0t14 -0.5q22 0 31 16.5t0 33.5t-31 17h-118q-21 0 -29.5 17t0 33.5t29.5 16.5h118q38 0 64 -20.5t32.5 -50t0 -59t-32.5 -50t-64 -20.5zM147 24q0 -21 -16.5 -29.5
t-33.5 0t-17 29.5v666q0 15 9.5 24.5t23.5 9.5h264q72 0 125.5 -34.5t77 -86.5t23.5 -112.5t-24 -112.5t-77 -86.5t-125 -34.5h-96v-233q0 -21 -17 -29.5t-34 0t-17 29.5v267q0 13 10 23t24 10h130q51 0 89 24.5t55 62t17 80.5t-17 80.5t-55 62t-89 24.5h-230v-634z" />
    <glyph glyph-name="q" unicode="q" horiz-adv-x="858" 
d="M730 135l67 -97q12 -17 3 -34t-26.5 -18.5t-31.5 14.5l-82 116q-16 23 1 43q50 57 67 127t0.5 135t-55 120t-104 88t-142.5 33q-73 0 -132.5 -26t-96 -69t-56.5 -97.5t-20 -112t19.5 -112t56 -97.5t96 -69t133.5 -26q40 0 75 9t51.5 17.5t30.5 8.5t24 -16q1 -2 8.5 -11.5
t10.5 -14t7.5 -13.5t4.5 -15t-3.5 -13t-11.5 -13q-27 -21 -55 20q-74 -28 -142 -28q-90 0 -162.5 32t-117 84.5t-68.5 119.5t-24 137t24 137t68.5 119.5t117 84.5t162.5 32q76 0 143 -27.5t114.5 -73t78.5 -106.5t38.5 -126t-10 -134t-61.5 -128zM530 304q-12 17 -2.5 33.5
t26.5 18.5t31 -14l7 -9q10 75 -38.5 134.5t-126.5 59.5q-108 0 -148.5 -90t9 -175t157.5 -74l-80 116q-12 17 -2.5 33.5t26.5 18.5t31 -14l112 -162q7 -18 -3 -31t-30.5 -18.5t-38.5 -8t-33 -2.5q-63 0 -113 26t-75.5 68t-37.5 92.5t0 101t37.5 92.5t75.5 68t113 26
q65 0 119.5 -33t82 -84t32.5 -113t-29 -121q-9 -17 -28 -18t-30 15z" />
    <glyph glyph-name="r" unicode="r" horiz-adv-x="624" 
d="M366 391h-9.5h-12.5h-11q-15 1 -25 8t-13 16.5t-0.5 19t13 16t25.5 6.5h11.5h12t11 0.5t11 2t9 4t7.5 6t4 9t2 12.5q0 15 -10 24.5t-25 9.5h-119q-21 0 -29.5 16.5t0 33.5t29.5 17h119q44 0 72.5 -31t28.5 -71q0 -42 -29.5 -70.5t-71.5 -28.5zM428 43q12 -17 2.5 -34
t-26.5 -19t-31 14l-92 133v-114q0 -21 -16.5 -29.5t-33.5 0t-17 29.5v218q0 26 23.5 33t37.5 -12zM147 23q0 -21 -16.5 -29.5t-33.5 0t-17 29.5v669q0 13 10 23t24 10h263q50 0 93 -19.5t72.5 -51t47 -73.5t19 -85.5t-15.5 -88.5t-52 -81q-46 -46 -105 -61l155 -222
q12 -17 2.5 -34t-26.5 -19t-30 14l-185 265q-14 19 -4.5 37t29.5 18q53 0 94 30.5t58.5 73.5t9 93.5t-45.5 88.5q-48 48 -116 48h-230v-635z" />
    <glyph glyph-name="s" unicode="s" horiz-adv-x="566" 
d="M455 699q19 -7 21.5 -25.5t-11 -31.5t-33.5 -6q-183 65 -264 -24q-43 -46 -45 -110.5t49 -113.5q27 -25 68.5 -44t71 -29t53 -33.5t25.5 -60.5q2 -41 -28 -69.5t-72 -31.5q-119 -7 -212 60q-17 12 -13.5 31t19 26t33.5 -3q37 -27 87.5 -40t86 -6.5t32.5 30.5
q-1 16 -19.5 27.5t-44 19.5t-63.5 27t-69 46q-53 46 -66.5 113t8.5 126.5t77.5 103t129.5 47.5q82 4 179 -29zM65 38q-17 12 -17.5 29t15.5 28t34 2q79 -42 162 -46.5t142 39t59 131.5q0 39 -18.5 69.5t-48.5 50t-60 33.5t-61 27t-43 23q-40 32 -36 83q4 56 60 77
q69 27 187 -21q18 -8 19.5 -26.5t-12.5 -30.5t-33 -4q-112 45 -148 14q-18 -16 -2 -36l6 -5q8 -6 40.5 -18.5t66.5 -30t69 -43t57.5 -68t22.5 -94.5q0 -134 -102.5 -196.5t-246.5 -27.5q-58 12 -112 41zM284 186z" />
    <glyph glyph-name="t" unicode="t" horiz-adv-x="581" 
d="M521 591q13 0 22.5 -10t9.5 -24q0 -13 -9.5 -22.5t-22.5 -9.5h-134v-501q0 -14 -10 -24t-24 -10t-23.5 10t-9.5 24v533q0 14 9.5 24t23.5 10h168zM54 658q-14 0 -24 9.5t-10 23.5t10 23.5t24 9.5h467q14 0 23 -9.5t9 -23.5t-9.5 -23.5t-22.5 -9.5h-467zM54 525
q-14 0 -24 9.5t-10 22.5q0 14 10 24t24 10h166q14 0 24 -10t10 -24v-533q0 -14 -10 -24t-24 -10t-24 10t-10 24v501h-132z" />
    <glyph glyph-name="u" unicode="u" 
d="M213 265v428q0 14 9.5 24t23.5 10t24 -10t10 -24v-428q0 -50 38.5 -70.5t77.5 0t39 70.5v428q0 14 9.5 24t24.5 10q14 0 23.5 -10t9.5 -24v-428q0 -40 -16 -71.5t-41.5 -48t-56 -24t-61.5 0t-56.5 24t-41.5 48t-16 71.5zM638 257q0 -66 -24 -120t-63.5 -87t-90 -50.5
t-103.5 -17.5t-103.5 18t-90 51t-63.5 86.5t-24 119.5v436q0 14 9.5 24t23.5 10t24 -10t10 -24v-436q0 -67 32 -116t79.5 -71t103 -22t103 22t79.5 71t32 116v436q0 14 9.5 24t23.5 10t23.5 -10t9.5 -24v-436z" />
    <glyph glyph-name="v" unicode="v" horiz-adv-x="651" 
d="M161 679q-6 14 -0.5 26t17.5 18q14 5 26.5 -0.5t17.5 -18.5l104 -253l103 253q4 13 17 18.5t26 0.5q29 -14 19 -44l-135 -329q-8 -20 -30.5 -20t-31.5 20zM580 704q5 13 18 18.5t25 0.5q13 -6 18 -18.5t0 -25.5l-285 -699q-9 -21 -31 -21t-31 21l-285 699q-10 31 19 44
q13 5 25.5 -0.5t17.5 -18.5l255 -624z" />
    <glyph glyph-name="w" unicode="w" horiz-adv-x="916" 
d="M159 683q-5 13 0.5 25.5t18.5 17.5t25.5 0t17.5 -18l103 -253l103 253q4 13 17 18t26 0q11 -4 19 -18l103 -253l103 253q4 13 17 18t26 0q12 -5 17.5 -17.5t0.5 -25.5l-134 -328q-6 -15 -18 -19q-13 -5 -25.5 0.5t-18.5 18.5l-103 252l-103 -252q-6 -15 -17 -19
q-13 -5 -26 0.5t-18 18.5zM845 708q5 13 18 18t26 0q12 -5 17.5 -17.5t-0.5 -25.5l-284 -698q-9 -21 -31 -20.5t-31 20.5l-103 253l-103 -253q-8 -21 -30.5 -21t-30.5 22l-285 697q-4 13 1.5 25.5t17.5 17.5q13 5 26 0t17 -18l254 -623l102 251q10 22 31.5 22.5t31.5 -22.5
l103 -251z" />
    <glyph glyph-name="x" unicode="x" horiz-adv-x="643" 
d="M188 687q-6 11 -4.5 21.5t9 17.5t16.5 10t19.5 -1t16.5 -15l77 -132l76 132q12 17 28.5 17t27 -16t0.5 -34l-105 -181q-9 -16 -28 -16t-28 16zM480 30q10 -18 -0.5 -34t-27.5 -16t-29 17l-101 175l-102 -175q-13 -17 -30 -17t-27.5 16t-0.5 34l131 224q9 16 28 16t28 -16
zM69 1q-11 -18 -30 -16.5t-27 16t0 33.5l202 349l-177 305q-10 17 0.5 33t27.5 16t29 -16l185 -322q12 -16 1 -33zM548 721q12 16 29 16t27.5 -16t0.5 -33l-177 -305l203 -349q10 -18 -0.5 -33.5t-27.5 -16t-29 16.5l-211 364q-11 17 0 34z" />
    <glyph glyph-name="y" unicode="y" horiz-adv-x="675" 
d="M309 459l-135 227q-8 13 -4.5 26t16.5 20q11 8 24.5 4.5t20.5 -15.5l108 -183l108 183q7 12 21 15.5t25 -4.5q12 -7 15.5 -20t-3.5 -26l-136 -228q-11 -19 -30 -18.5t-30 19.5zM611 721q7 13 20.5 16t25.5 -5q11 -8 14 -21t-4 -25l-227 -365v-308q0 -14 -10 -24t-24 -10
t-24 10t-10 24v316q0 9 5 19zM306 13q0 -14 -9.5 -24t-23.5 -10t-24 10t-10 24v308l-228 365q-7 12 -4 25.5t15 20.5q11 8 25 5t21 -16l232 -371q6 -10 6 -20v-317z" />
    <glyph glyph-name="z" unicode="z" horiz-adv-x="581" 
d="M85 659q-21 0 -29.5 16.5t0 33t29.5 16.5h387q18 0 28 -14.5t3 -32.5l-199 -487h210q21 0 29.5 -16.5t0 -33.5t-29.5 -17h-263q-18 0 -26.5 14t-0.5 32l199 489h-338zM514 58q21 0 29.5 -17t0 -34t-29.5 -17h-458q-18 0 -28 15t-3 33l199 487h-139q-21 0 -29.5 16.5
t0 33.5t29.5 17h186q21 0 30.5 -15t1.5 -35l-198 -484h409z" />
    <glyph glyph-name="exclamdown" unicode="&#xa1;" horiz-adv-x="339" 
d="M70 -202v401q0 13 10 23t24 10t23.5 -9.5t9.5 -23.5v-401q0 -15 -9.5 -24.5t-23.5 -9.5t-24 9.5t-10 24.5zM270 199v-401q0 -14 -9.5 -24t-22.5 -10q-14 0 -24 10t-10 24v401q0 13 10 23t24 10q13 0 22.5 -9.5t9.5 -23.5zM171 285q-39 0 -66 19t-38 50q-19 44 0 89
q28 68 104 68q75 0 104 -68q21 -44 0 -89q-28 -69 -104 -69zM128 379q11 -27 43 -27q34 0 43 27q9 18 0 40q-9 26 -43 26q-32 0 -43 -27q-8 -20 0 -39z" />
    <glyph glyph-name="yen" unicode="&#xa5;" horiz-adv-x="675" 
d="M377 348l234 373q7 13 20.5 16t25.5 -5q11 -8 14 -21t-4 -25l-192 -309h94q18 0 25.5 -15t-0.5 -30t-26 -15h-128v-54h127q18 0 25.5 -15t-0.5 -30t-26 -15h-126v-190q0 -14 -10 -24t-24 -10t-24 10t-10 24v316q0 9 5 19zM306 330v-317q0 -14 -9.5 -24t-23.5 -10t-24 10
t-10 24v190h-120q-18 0 -26 15t-0.5 30t25.5 15h121v54h-122q-18 0 -26 15t-0.5 30t25.5 15h88l-193 309q-7 12 -4 25.5t15 20.5q11 8 25 5t21 -16l232 -371q6 -10 6 -20zM309 459l-135 227q-8 13 -4.5 26t16.5 20q11 8 24.5 4.5t20.5 -15.5l108 -183l108 183q7 12 21 15.5
t25 -4.5q12 -7 15.5 -20t-3.5 -26l-136 -228q-11 -19 -30 -18.5t-30 19.5z" />
    <glyph glyph-name="dieresis" unicode="&#xa8;" horiz-adv-x="535" 
d="M399 729q36 0 62 -26t26 -63t-26 -62.5t-62 -25.5q-37 0 -63 25.5t-26 62.5t26 63t63 26zM147 729q36 0 62.5 -26t26.5 -63q0 -36 -26.5 -62t-62.5 -26q-37 0 -62.5 25.5t-25.5 62.5t25.5 63t62.5 26zM147 678q-16 0 -27.5 -11t-11.5 -27t11.5 -27t27.5 -11t27 11t11 27
t-11 27t-27 11zM399 678q-17 0 -28.5 -11t-11.5 -27t11.5 -27t28.5 -11q15 0 26.5 11t11.5 27t-11.5 27t-26.5 11z" />
    <glyph glyph-name="macron" unicode="&#xaf;" horiz-adv-x="349" 
d="M277 656h-193q-21 0 -29.5 17t0 33.5t29.5 16.5h193q21 0 29.5 -16.5t0 -33.5t-29.5 -17z" />
    <glyph glyph-name="acute" unicode="&#xb4;" horiz-adv-x="231" 
d="M45 601l100 108q21 21 46 2q18 -23 2 -46l-101 -106q-24 -23 -45 -2q-10 9 -10 22t8 22z" />
    <glyph glyph-name="periodcentered" unicode="&#xb7;" horiz-adv-x="247" 
d="M121 449q45 0 75 -30.5t30 -75.5q0 -44 -30 -74.5t-75 -30.5t-75.5 30t-30.5 75t30 75.5t76 30.5zM121 390q-21 0 -34.5 -13t-13.5 -34t13.5 -33.5t34.5 -12.5t34 12.5t13 33.5t-12.5 34t-34.5 13z" />
    <glyph glyph-name="cedilla" unicode="&#xb8;" horiz-adv-x="322" 
d="M107 -79l12 76q4 12 15 19.5t24 6.5t19.5 -12t3.5 -24l-6 -39q65 -5 99 -52q34 -51 7.5 -103.5t-87.5 -60.5q-63 -10 -147 39q-25 15 -11 42q15 25 43 11q62 -36 106 -29q25 2 37.5 22.5t-0.5 43.5q-22 29 -79 22q-17 -2 -28.5 9t-7.5 29z" />
    <glyph glyph-name="questiondown" unicode="&#xbf;" horiz-adv-x="510" 
d="M121 226q11 17 30.5 14.5t26.5 -18t-3 -33.5q-5 -8 -23 -34t-25 -38.5t-18 -34t-15.5 -42t-4.5 -42.5q0 -75 47.5 -121t113.5 -48q74 -1 120.5 46.5t46.5 122.5q0 21 16.5 29.5t33.5 0t17 -29.5q0 -102 -66 -169t-168 -65q-93 2 -160 66t-67 168q0 23 4.5 46.5t9 38
t17.5 38.5t18.5 32.5t25 37t23.5 35.5zM256 299q-46 0 -77 31t-31 77q0 47 31 78.5t77 31.5q48 0 79 -31.5t31 -78.5q0 -46 -31 -77t-79 -31zM256 358q24 0 38 13.5t14 35.5q0 23 -13.5 36.5t-38.5 13.5q-23 0 -36.5 -13.5t-13.5 -36.5q0 -22 13.5 -35.5t36.5 -13.5zM176 73
l104 153q12 17 31 14.5t26.5 -18t-2.5 -33.5q-2 -2 -33.5 -48.5t-53.5 -80t-26 -44.5q-12 -35 15 -50q24 -13 40 4q10 10 10 28q0 21 16.5 29.5t33.5 0t17 -29.5q0 -46 -30 -75.5t-71.5 -29t-71.5 32.5q-28 30 -28 72t23 75z" />
    <glyph glyph-name="Agrave" unicode="&#xc0;" horiz-adv-x="648" 
d="M273 190h97q14 0 24.5 10t10.5 24q0 7 -3 13l-49 120q-5 12 -17.5 17t-26.5 0q-12 -4 -17.5 -17t-0.5 -26l30 -74h-48q-14 0 -23.5 -9.5t-9.5 -23.5t9.5 -24t23.5 -10zM224 17l17 39h162l16 -39q5 -13 18 -18.5t26 -0.5q13 6 18 18.5t0 25.5l-24 58q-7 24 -32 24h-207
q-20 0 -31 -21l-24 -61q-5 -13 0 -25.5t18 -18.5q14 -5 26.5 0.5t16.5 18.5zM81 17l241 607l241 -607q5 -13 18 -18.5t26 -0.5q13 6 18 18.5t0 25.5l-272 682q-6 15 -19 19q-12 5 -25 -0.5t-18 -18.5l-273 -682q-4 -13 1.5 -25.5t17.5 -18.5q13 -5 25.5 0.5t18.5 18.5z
M297 941l100 -108q8 -9 8 -22t-10 -22q-21 -21 -45 2l-101 106q-16 23 2 46q25 19 46 -2z" />
    <glyph glyph-name="Aacute" unicode="&#xc1;" horiz-adv-x="648" 
d="M273 190q-14 0 -23.5 10t-9.5 24t9.5 23.5t23.5 9.5h48l-30 74q-5 13 0.5 26t17.5 17q14 5 26.5 0t17.5 -17l49 -120q3 -6 3 -13q0 -14 -10.5 -24t-24.5 -10h-97zM224 17q-4 -13 -16.5 -18.5t-26.5 -0.5q-13 6 -18 18.5t0 25.5l24 61q11 21 31 21h207q25 0 32 -24l24 -58
q5 -13 0 -25.5t-18 -18.5q-13 -5 -26 0.5t-18 18.5l-16 39h-162zM81 17q-6 -13 -18.5 -18.5t-25.5 -0.5q-12 6 -17.5 18.5t-1.5 25.5l273 682q5 13 18 18.5t25 0.5q13 -4 19 -19l272 -682q5 -13 0 -25.5t-18 -18.5q-13 -5 -26 0.5t-18 18.5l-241 607zM252 831l100 108
q21 21 46 2q18 -23 2 -46l-101 -106q-23 -23 -45 -2q-10 9 -10 22t8 22z" />
    <glyph glyph-name="Acircumflex" unicode="&#xc2;" horiz-adv-x="648" 
d="M273 190h97q14 0 24.5 10t10.5 24q0 7 -3 13l-49 120q-5 12 -17.5 17t-26.5 0q-12 -4 -17.5 -17t-0.5 -26l30 -74h-48q-14 0 -23.5 -9.5t-9.5 -23.5t9.5 -24t23.5 -10zM224 17l17 39h162l16 -39q5 -13 18 -18.5t26 -0.5q13 6 18 18.5t0 25.5l-24 58q-7 24 -32 24h-207
q-20 0 -31 -21l-24 -61q-5 -13 0 -25.5t18 -18.5q14 -5 26.5 0.5t16.5 18.5zM81 17l241 607l241 -607q5 -13 18 -18.5t26 -0.5q13 6 18 18.5t0 25.5l-272 682q-6 15 -19 19q-12 5 -25 -0.5t-18 -18.5l-273 -682q-4 -13 1.5 -25.5t17.5 -18.5q13 -5 25.5 0.5t18.5 18.5z
M415 768l-92 74l-89 -74q-12 -9 -24.5 -7.5t-20.5 11.5t-7 22.5t11 20.5l111 91q20 18 40 0l111 -91q10 -8 11 -20.5t-7 -22.5q-9 -10 -21.5 -11.5t-22.5 7.5z" />
    <glyph glyph-name="Atilde" unicode="&#xc3;" horiz-adv-x="648" 
d="M273 190q-14 0 -23.5 10t-9.5 24t9.5 23.5t23.5 9.5h48l-30 74q-5 13 0.5 26t17.5 17q14 5 26.5 0t17.5 -17l49 -120q3 -6 3 -13q0 -14 -10.5 -24t-24.5 -10h-97zM224 17q-4 -13 -16.5 -18.5t-26.5 -0.5q-13 6 -18 18.5t0 25.5l24 61q11 21 31 21h207q25 0 32 -24l24 -58
q5 -13 0 -25.5t-18 -18.5q-13 -5 -26 0.5t-18 18.5l-16 39h-162zM81 17q-6 -13 -18.5 -18.5t-25.5 -0.5q-12 6 -17.5 18.5t-1.5 25.5l273 682q5 13 18 18.5t25 0.5q13 -4 19 -19l272 -682q5 -13 0 -25.5t-18 -18.5q-13 -5 -26 0.5t-18 18.5l-241 607zM228 809
q-14 -26 -43 -13q-10 5 -13 17t2 23q25 46 59.5 60.5t76.5 -7.5q12 -6 29.5 -19.5t22.5 -16.5q34 -20 57 25q11 24 41 13q10 -6 13.5 -19t-1.5 -24q-22 -45 -57 -60.5t-79 8.5q-11 6 -26.5 19t-24.5 17q-35 19 -57 -23z" />
    <glyph glyph-name="Adieresis" unicode="&#xc4;" horiz-adv-x="648" 
d="M273 190q-14 0 -23.5 10t-9.5 24t9.5 23.5t23.5 9.5h48l-30 74q-5 13 0.5 26t17.5 17q14 5 26.5 0t17.5 -17l49 -120q3 -6 3 -13q0 -14 -10.5 -24t-24.5 -10h-97zM224 17q-4 -13 -16.5 -18.5t-26.5 -0.5q-13 6 -18 18.5t0 25.5l24 61q11 21 31 21h207q25 0 32 -24l24 -58
q5 -13 0 -25.5t-18 -18.5q-13 -5 -26 0.5t-18 18.5l-16 39h-162zM81 17q-6 -13 -18.5 -18.5t-25.5 -0.5q-12 6 -17.5 18.5t-1.5 25.5l273 682q5 13 18 18.5t25 0.5q13 -4 19 -19l272 -682q5 -13 0 -25.5t-18 -18.5q-13 -5 -26 0.5t-18 18.5l-241 607zM450 926q36 0 62 -25
t26 -60q0 -34 -26 -58.5t-62 -24.5q-37 0 -63 24.5t-26 58.5q0 35 26 60t63 25zM198 926q36 0 62.5 -25t26.5 -60q0 -34 -26.5 -58.5t-62.5 -24.5q-37 0 -62.5 24t-25.5 59t25.5 60t62.5 25zM198 878q-16 0 -27.5 -10.5t-11.5 -26.5q0 -14 11.5 -25t27.5 -11t27 11t11 25
q0 16 -11 26.5t-27 10.5zM450 878q-17 0 -28.5 -10.5t-11.5 -26.5q0 -14 12 -25t28 -11q15 0 26.5 11t11.5 25q0 15 -11.5 26t-26.5 11z" />
    <glyph glyph-name="Aring" unicode="&#xc5;" horiz-adv-x="648" 
d="M324 882q56 0 92.5 -37.5t36.5 -92.5q0 -36 -18 -66.5t-48 -47.5l238 -596q5 -13 0 -25.5t-18 -18.5q-13 -5 -26 0.5t-18 18.5l-241 606h-1l-240 -606q-6 -13 -18.5 -18.5t-25.5 -0.5q-12 6 -17.5 18.5t-1.5 25.5l240 598q-30 17 -47 46.5t-17 65.5q0 55 37.5 92.5
t92.5 37.5zM241 56l-17 -39q-4 -13 -16.5 -18.5t-26.5 -0.5q-13 6 -18 18.5t0 25.5l24 61q11 21 31 21h207q25 0 32 -24l24 -58q5 -13 0 -25.5t-18 -18.5q-13 -5 -26 0.5t-18 18.5l-16 39h-162zM370 190h-97q-14 0 -23.5 10t-9.5 24t9.5 23.5t23.5 9.5h48l-30 74
q-5 13 0.5 26t17.5 17q14 5 26.5 0t17.5 -17l49 -120q3 -6 3 -13q0 -14 -10.5 -24t-24.5 -10zM324 818q-29 0 -48 -18.5t-19 -47.5t19 -47t48 -18q30 0 48 18t18 47q0 30 -18 48t-48 18z" />
    <glyph glyph-name="AE" unicode="&#xc6;" horiz-adv-x="873" 
d="M777 595h-184q-14 0 -23 -9t-9 -23v-137q0 -14 9 -24.5t23 -10.5h155q13 0 23.5 11t10.5 24t-10.5 23.5t-23.5 10.5h-121v68h150q21 0 29.5 17t0 33.5t-29.5 16.5zM363 730h414q21 0 29.5 -17t0 -34t-29.5 -17h-284v-421q0 -35 -15.5 -45.5t-51.5 -10.5h-137
q-19 0 -29.5 15.5t-3.5 32.5l53 132q13 30 44 17t20 -44l-34 -84h87v408h-44l-296 -655q-6 -13 -19.5 -19t-25.5 0q-14 5 -20 17.5t1 26.5l308 677q3 11 12.5 17t20.5 4zM429 115q37 0 50.5 -12t13.5 -50h290q22 0 31 -17t0 -34t-31 -17h-322q-16 0 -25.5 9.5t-9.5 24.5v29
h-177l-16 -41q-5 -12 -19.5 -18.5t-26.5 -0.5q-12 5 -18 18t0 26l25 59q1 11 10.5 17.5t21.5 6.5h203zM748 324h-155q-14 0 -23 -9.5t-9 -25.5v-134q0 -14 9 -24.5t23 -10.5h190q22 0 31 17.5t0 35t-31 17.5h-156v66h121q13 0 23.5 10t10.5 23q0 15 -10.5 25t-23.5 10z" />
    <glyph glyph-name="Ccedilla" unicode="&#xc7;" horiz-adv-x="627" 
d="M572 710q19 -8 20.5 -26.5t-13 -31t-33.5 -4.5q-59 25 -125 25q-134 0 -221 -89.5t-87 -222.5q1 -81 34.5 -150t106 -114.5t170.5 -45.5q60 0 122 24q19 8 33.5 -4t13 -30.5t-20.5 -26.5q-72 -29 -148 -29q-4 0 -13 0.5t-13 0.5v-2l-9 -48q71 -1 102 -43
q34 -51 7.5 -103.5t-87.5 -60.5q-63 -10 -147 39q-25 15 -11 42q15 25 43 11q62 -36 106 -29q25 2 37.5 22.5t-0.5 43.5q-18 24 -80 17q-17 -2 -28.5 9t-7.5 29l13 81q-92 18 -158.5 75t-97.5 131.5t-32 158.5q0 73 23.5 140t69 121t119 86.5t164.5 32.5q76 0 148 -29z
M526 214q18 9 33.5 -1.5t15 -27.5t-17.5 -29q-63 -37 -136 -35q-96 2 -163 67.5t-67 172.5q0 75 34.5 131.5t87.5 83.5t118.5 26t125.5 -35q17 -12 17.5 -29t-15 -27.5t-33.5 -0.5q-43 24 -91 25.5t-87 -17t-65 -60t-26 -97.5q0 -79 47.5 -125t115.5 -48q57 -2 106 26z" />
    <glyph glyph-name="Egrave" unicode="&#xc8;" horiz-adv-x="547" 
d="M459 591h-212q-14 0 -24 -9.5t-10 -23.5v-134q0 -14 10 -23.5t24 -9.5h150q14 0 24 9.5t10 23.5t-10 24t-24 10h-117v67h179q14 0 24 9.5t10 23.5t-10 23.5t-24 9.5zM397 324h-150q-14 0 -24 -9.5t-10 -23.5v-134q0 -14 10 -23.5t24 -9.5h212q14 0 24 9.5t10 23.5t-10 24
t-24 10h-179v66h117q14 0 24 10t10 24t-10 23.5t-24 9.5zM459 57h-312v601h312q14 0 24 10t10 24t-10 23.5t-24 9.5h-346q-13 0 -23 -9.5t-10 -23.5v-669q0 -13 10 -23t23 -10h346q14 0 24 9.5t10 23.5t-10 24t-24 10zM246 930l99 -101q8 -8 8 -20.5t-10 -20.5
q-21 -19 -44 2l-101 99q-16 22 2 43q25 18 46 -2z" />
    <glyph glyph-name="Eacute" unicode="&#xc9;" horiz-adv-x="547" 
d="M459 591q14 0 24 -9.5t10 -23.5t-10 -23.5t-24 -9.5h-179v-67h117q14 0 24 -10t10 -24t-10 -23.5t-24 -9.5h-150q-14 0 -24 9.5t-10 23.5v134q0 14 10 23.5t24 9.5h212zM397 324q14 0 24 -9.5t10 -23.5t-10 -24t-24 -10h-117v-66h179q14 0 24 -10t10 -24t-10 -23.5
t-24 -9.5h-212q-14 0 -24 9.5t-10 23.5v134q0 14 10 23.5t24 9.5h150zM459 57q14 0 24 -10t10 -24t-10 -23.5t-24 -9.5h-346q-13 0 -23 10t-10 23v669q0 14 10 23.5t23 9.5h346q14 0 24 -9.5t10 -23.5t-10 -24t-24 -10h-312v-601h312zM231 823l106 102q23 20 50 2
q18 -21 2 -43l-108 -100q-25 -23 -48 -2q-10 8 -10.5 20.5t8.5 20.5z" />
    <glyph glyph-name="Ecircumflex" unicode="&#xca;" horiz-adv-x="547" 
d="M459 591h-212q-14 0 -24 -9.5t-10 -23.5v-134q0 -14 10 -23.5t24 -9.5h150q14 0 24 9.5t10 23.5t-10 24t-24 10h-117v67h179q14 0 24 9.5t10 23.5t-10 23.5t-24 9.5zM397 324h-150q-14 0 -24 -9.5t-10 -23.5v-134q0 -14 10 -23.5t24 -9.5h212q14 0 24 9.5t10 23.5t-10 24
t-24 10h-179v66h117q14 0 24 10t10 24t-10 23.5t-24 9.5zM459 57h-312v601h312q14 0 24 10t10 24t-10 23.5t-24 9.5h-346q-13 0 -23 -9.5t-10 -23.5v-669q0 -13 10 -23t23 -10h346q14 0 24 9.5t10 23.5t-10 24t-24 10zM379 779l-92 74l-89 -74q-12 -9 -24.5 -7.5t-20.5 11.5
t-7 22.5t11 20.5l111 91q20 18 40 0l111 -91q10 -8 11 -20.5t-7 -22.5q-9 -10 -21.5 -11.5t-22.5 7.5z" />
    <glyph glyph-name="Edieresis" unicode="&#xcb;" horiz-adv-x="547" 
d="M459 591q14 0 24 -9.5t10 -23.5t-10 -23.5t-24 -9.5h-179v-67h117q14 0 24 -10t10 -24t-10 -23.5t-24 -9.5h-150q-14 0 -24 9.5t-10 23.5v134q0 14 10 23.5t24 9.5h212zM397 324q14 0 24 -9.5t10 -23.5t-10 -24t-24 -10h-117v-66h179q14 0 24 -10t10 -24t-10 -23.5
t-24 -9.5h-212q-14 0 -24 9.5t-10 23.5v134q0 14 10 23.5t24 9.5h150zM459 57q14 0 24 -10t10 -24t-10 -23.5t-24 -9.5h-346q-13 0 -23 10t-10 23v669q0 14 10 23.5t23 9.5h346q14 0 24 -9.5t10 -23.5t-10 -24t-24 -10h-312v-601h312zM413 929q35 0 60 -23.5t25 -57.5
t-25 -57.5t-60 -23.5t-60.5 23.5t-25.5 57.5t25.5 57.5t60.5 23.5zM171 929q35 0 60 -23.5t25 -57.5t-25 -57.5t-60 -23.5q-36 0 -60.5 23.5t-24.5 57.5t24.5 57.5t60.5 23.5zM171 883q-16 0 -27 -10t-11 -25q0 -14 11 -24.5t27 -10.5q15 0 25.5 10.5t10.5 24.5
q0 15 -10.5 25t-25.5 10zM413 883q-16 0 -27 -10t-11 -25q0 -14 11 -24.5t27 -10.5q14 0 25.5 10.5t11.5 24.5q0 15 -11 25t-26 10z" />
    <glyph glyph-name="Igrave" unicode="&#xcc;" horiz-adv-x="362" 
d="M281 23v669q0 14 -9.5 23.5t-23.5 9.5t-24 -9.5t-10 -23.5v-669q0 -14 10 -23.5t24 -9.5t23.5 10t9.5 23zM147 23v669q0 14 -9.5 23.5t-23.5 9.5t-24 -9.5t-10 -23.5v-669q0 -14 10 -23.5t24 -9.5t23.5 10t9.5 23zM154 929l100 -108q8 -9 8 -22t-10 -22q-22 -21 -45 2
l-101 106q-16 23 2 46q25 19 46 -2z" />
    <glyph glyph-name="Iacute" unicode="&#xcd;" horiz-adv-x="362" 
d="M281 23q0 -13 -9.5 -23t-23.5 -10t-24 9.5t-10 23.5v669q0 14 10 23.5t24 9.5t23.5 -9.5t9.5 -23.5v-669zM147 23q0 -13 -9.5 -23t-23.5 -10t-24 9.5t-10 23.5v669q0 14 10 23.5t24 9.5t23.5 -9.5t9.5 -23.5v-669zM108 816l100 108q21 21 46 2q18 -23 2 -46l-101 -106
q-10 -10 -22.5 -11t-22.5 9q-10 9 -10 22t8 22z" />
    <glyph glyph-name="Icircumflex" unicode="&#xce;" horiz-adv-x="362" 
d="M281 23v669q0 14 -9.5 23.5t-23.5 9.5t-24 -9.5t-10 -23.5v-669q0 -14 10 -23.5t24 -9.5t23.5 10t9.5 23zM147 23v669q0 14 -9.5 23.5t-23.5 9.5t-24 -9.5t-10 -23.5v-669q0 -14 10 -23.5t24 -9.5t23.5 10t9.5 23zM272 786l-92 74l-89 -74q-12 -9 -24.5 -7.5t-20.5 11.5
t-7 22.5t11 20.5l111 91q20 18 40 0l111 -91q10 -8 11 -20.5t-7 -22.5q-9 -10 -21.5 -11.5t-22.5 7.5z" />
    <glyph glyph-name="Idieresis" unicode="&#xcf;" horiz-adv-x="362" 
d="M288 944q36 0 62 -25.5t26 -60.5t-26 -60t-62 -25q-37 0 -63 25t-26 60t26 60.5t63 25.5zM67 944q36 0 62.5 -25.5t26.5 -60.5t-26.5 -60t-62.5 -25q-37 0 -62.5 25t-25.5 60t25.5 60.5t62.5 25.5zM67 895q-16 0 -27.5 -10.5t-11.5 -26.5q0 -15 11.5 -26t27.5 -11t27 11
t11 26q0 16 -11 26.5t-27 10.5zM288 895q-17 0 -28.5 -10.5t-11.5 -26.5q0 -15 12 -26t28 -11q15 0 26.5 11t11.5 26t-11.5 26t-26.5 11zM281 23q0 -13 -9.5 -23t-23.5 -10t-24 9.5t-10 23.5v669q0 14 10 23.5t24 9.5t23.5 -9.5t9.5 -23.5v-669zM147 23q0 -13 -9.5 -23
t-23.5 -10t-24 9.5t-10 23.5v669q0 14 10 23.5t24 9.5t23.5 -9.5t9.5 -23.5v-669z" />
    <glyph glyph-name="Eth" unicode="&#xd0;" horiz-adv-x="735" 
d="M147 658v-635q0 -14 -10 -23.5t-24 -9.5q-13 0 -23 10t-10 23v289h-45q-21 0 -29.5 17t0 33.5t29.5 16.5h45v313q0 14 10 23.5t23 9.5h200q162 0 265 -104t103 -263q0 -160 -103 -264t-265 -104h-67q-14 0 -23.5 10t-9.5 23q0 14 9.5 24t23.5 10h67q134 0 217.5 84.5
t83.5 216.5q0 131 -84 215.5t-217 84.5h-166zM313 123h-66q-14 0 -23.5 10t-9.5 24q0 13 10 23t23 10h66q73 0 117.5 47.5t44.5 120.5q0 72 -44.5 119.5t-117.5 47.5h-33v-146h80q21 0 29.5 -16.5t0 -33.5t-29.5 -17h-113q-14 0 -23.5 10t-9.5 24v212q0 14 9.5 24t23.5 10
h66q101 0 164.5 -67t63.5 -167q0 -101 -63.5 -168t-164.5 -67z" />
    <glyph glyph-name="Ntilde" unicode="&#xd1;" horiz-adv-x="773" 
d="M146 23q0 -14 -9.5 -24t-23.5 -10q-13 0 -23 10t-10 24v669q0 13 9.5 22.5t23.5 9.5t23.5 -9t9.5 -23v-669zM692 23q0 -14 -10 -24t-24 -10q-13 0 -23 10t-10 24v669q0 13 9.5 22.5t23.5 9.5t24 -9.5t10 -22.5v-669zM565 42q7 -11 5 -24.5t-13 -22.5q-28 -17 -47 9
l-230 329v-310q0 -14 -10 -23.5t-24 -9.5q-13 0 -22.5 9.5t-9.5 23.5v416q0 19 14 27q11 9 24.5 6.5t21.5 -14.5zM207 672q-8 12 -5.5 25t13.5 21q11 9 24.5 6.5t21.5 -14.5l230 -329v311q0 13 10 22.5t24 9.5t23.5 -9.5t9.5 -22.5v-416q0 -19 -15 -28q-11 -8 -24.5 -5.5
t-21.5 13.5zM289 805q-14 -26 -44 -13q-10 5 -13.5 17t1.5 23q26 45 61.5 59.5t78.5 -7.5q12 -6 30 -19t24 -17q35 -19 58 25q13 24 43 13q10 -6 13.5 -19t-1.5 -24q-23 -45 -59 -59.5t-81 8.5q-11 6 -27.5 19t-25.5 17q-36 18 -58 -23z" />
    <glyph glyph-name="Ograve" unicode="&#xd2;" horiz-adv-x="861" 
d="M805 473q-37 118 -140 194q-103 73 -229 73q-92 0 -166 -33t-119.5 -86.5t-70.5 -122t-25 -140t25 -140t70.5 -122t119.5 -86.5t166 -33q124 0 229 74q102 74 140 193q4 14 -2.5 26.5t-19.5 16.5q-14 4 -26.5 -2.5t-16.5 -19.5q-32 -100 -116 -159q-82 -60 -188 -60
q-75 0 -136 27t-98.5 71t-58 100t-20.5 115t20.5 115t58 100t98.5 71t136 27q104 0 188 -60q84 -61 116 -159q4 -13 16.5 -20t26.5 -2q13 4 19.5 16t2.5 26zM230 238q32 -56 87 -90q58 -32 119 -32q101 0 171 72q69 72 69 171t-69 171q-71 71 -171 71q-64 0 -119 -32
t-87 -89q-7 -13 -3.5 -26.5t15.5 -20.5q13 -7 26 -3t20 17q25 40 64 63q38 23 84 23q72 0 121 -51q51 -49 51 -123q0 -75 -51 -124q-48 -51 -121 -51q-46 0 -84 24q-38 20 -64 63q-7 13 -20 16.5t-26 -3.5q-12 -8 -15.5 -20.5t3.5 -25.5zM394 948l100 -108q8 -9 8 -22
t-10 -22q-10 -10 -22.5 -9t-22.5 11l-101 106q-16 23 2 46q25 19 46 -2z" />
    <glyph glyph-name="Oacute" unicode="&#xd3;" horiz-adv-x="861" 
d="M805 473q4 -14 -2.5 -26t-19.5 -16q-14 -5 -26.5 2t-16.5 20q-32 98 -116 159q-84 60 -188 60q-75 0 -136 -27t-98.5 -71t-58 -100t-20.5 -115t20.5 -115t58 -100t98.5 -71t136 -27q106 0 188 60q84 59 116 159q4 13 16.5 19.5t26.5 2.5q13 -4 19.5 -16.5t2.5 -26.5
q-38 -119 -140 -193q-105 -74 -229 -74q-92 0 -166 33t-119.5 86.5t-70.5 122t-25 140t25 140t70.5 122t119.5 86.5t166 33q126 0 229 -73q103 -76 140 -194zM230 238q-7 13 -3.5 25.5t15.5 20.5q13 7 26 3.5t20 -16.5q26 -43 64 -63q38 -24 84 -24q73 0 121 51
q51 49 51 124q0 74 -51 123q-49 51 -121 51q-46 0 -84 -23q-39 -23 -64 -63q-7 -13 -20 -17t-26 3q-12 7 -15.5 20.5t3.5 26.5q32 57 87 89t119 32q100 0 171 -71q69 -72 69 -171t-69 -171q-70 -72 -171 -72q-61 0 -119 32q-55 34 -87 90zM379 842l100 108q21 21 46 2
q18 -23 2 -46l-101 -106q-10 -10 -22.5 -11t-22.5 9q-10 9 -10 22t8 22z" />
    <glyph glyph-name="Ocircumflex" unicode="&#xd4;" horiz-adv-x="861" 
d="M805 473q-37 118 -140 194q-103 73 -229 73q-92 0 -166 -33t-119.5 -86.5t-70.5 -122t-25 -140t25 -140t70.5 -122t119.5 -86.5t166 -33q124 0 229 74q102 74 140 193q4 14 -2.5 26.5t-19.5 16.5q-14 4 -26.5 -2.5t-16.5 -19.5q-32 -100 -116 -159q-82 -60 -188 -60
q-75 0 -136 27t-98.5 71t-58 100t-20.5 115t20.5 115t58 100t98.5 71t136 27q104 0 188 -60q84 -61 116 -159q4 -13 16.5 -20t26.5 -2q13 4 19.5 16t2.5 26zM230 238q32 -56 87 -90q58 -32 119 -32q101 0 171 72q69 72 69 171t-69 171q-71 71 -171 71q-64 0 -119 -32
t-87 -89q-7 -13 -3.5 -26.5t15.5 -20.5q13 -7 26 -3t20 17q25 40 64 63q38 23 84 23q72 0 121 -51q51 -49 51 -123q0 -75 -51 -124q-48 -51 -121 -51q-46 0 -84 24q-38 20 -64 63q-7 13 -20 16.5t-26 -3.5q-12 -8 -15.5 -20.5t3.5 -25.5zM521 805l-92 74l-89 -74
q-12 -9 -24.5 -7.5t-20.5 11.5t-7 22.5t11 20.5l111 91q20 18 40 0l111 -91q10 -8 11 -20.5t-7 -22.5q-9 -10 -21.5 -11.5t-22.5 7.5z" />
    <glyph glyph-name="Otilde" unicode="&#xd5;" horiz-adv-x="861" 
d="M805 473q4 -14 -2.5 -26t-19.5 -16q-14 -5 -26.5 2t-16.5 20q-32 98 -116 159q-84 60 -188 60q-75 0 -136 -27t-98.5 -71t-58 -100t-20.5 -115t20.5 -115t58 -100t98.5 -71t136 -27q106 0 188 60q84 59 116 159q4 13 16.5 19.5t26.5 2.5q13 -4 19.5 -16.5t2.5 -26.5
q-38 -119 -140 -193q-105 -74 -229 -74q-92 0 -166 33t-119.5 86.5t-70.5 122t-25 140t25 140t70.5 122t119.5 86.5t166 33q126 0 229 -73q103 -76 140 -194zM230 238q-7 13 -3.5 25.5t15.5 20.5q13 7 26 3.5t20 -16.5q26 -43 64 -63q38 -24 84 -24q73 0 121 51
q51 49 51 124q0 74 -51 123q-49 51 -121 51q-46 0 -84 -23q-39 -23 -64 -63q-7 -13 -20 -17t-26 3q-12 7 -15.5 20.5t3.5 26.5q32 57 87 89t119 32q100 0 171 -71q69 -72 69 -171t-69 -171q-70 -72 -171 -72q-61 0 -119 32q-55 34 -87 90zM333 832q-14 -26 -44 -13
q-10 5 -13.5 17t1.5 23q26 45 61.5 59.5t78.5 -7.5q12 -6 30 -19t24 -17q35 -19 58 25q13 24 43 13q10 -6 13.5 -19t-1.5 -24q-23 -45 -59 -59.5t-81 8.5q-11 6 -27.5 19t-25.5 17q-36 18 -58 -23z" />
    <glyph glyph-name="Odieresis" unicode="&#xd6;" horiz-adv-x="861" 
d="M805 473q4 -14 -2.5 -26t-19.5 -16q-14 -5 -26.5 2t-16.5 20q-32 98 -116 159q-84 60 -188 60q-75 0 -136 -27t-98.5 -71t-58 -100t-20.5 -115t20.5 -115t58 -100t98.5 -71t136 -27q106 0 188 60q84 59 116 159q4 13 16.5 19.5t26.5 2.5q13 -4 19.5 -16.5t2.5 -26.5
q-38 -119 -140 -193q-105 -74 -229 -74q-92 0 -166 33t-119.5 86.5t-70.5 122t-25 140t25 140t70.5 122t119.5 86.5t166 33q126 0 229 -73q103 -76 140 -194zM230 238q-7 13 -3.5 25.5t15.5 20.5q13 7 26 3.5t20 -16.5q26 -43 64 -63q38 -24 84 -24q73 0 121 51
q51 49 51 124q0 74 -51 123q-49 51 -121 51q-46 0 -84 -23q-39 -23 -64 -63q-7 -13 -20 -17t-26 3q-12 7 -15.5 20.5t3.5 26.5q32 57 87 89t119 32q100 0 171 -71q69 -72 69 -171t-69 -171q-70 -72 -171 -72q-61 0 -119 32q-55 34 -87 90zM556 950q36 0 62 -26t26 -63
t-26 -62.5t-62 -25.5q-37 0 -63 25.5t-26 62.5t26 63t63 26zM304 950q36 0 62.5 -26t26.5 -63q0 -36 -26.5 -62t-62.5 -26q-37 0 -62.5 25.5t-25.5 62.5t25.5 63t62.5 26zM304 899q-16 0 -27.5 -11t-11.5 -27t11.5 -27t27.5 -11t27 11t11 27t-11 27t-27 11zM556 899
q-17 0 -28.5 -11t-11.5 -27t11.5 -27t28.5 -11q15 0 26.5 11t11.5 27t-11.5 27t-26.5 11z" />
    <glyph glyph-name="Oslash" unicode="&#xd8;" horiz-adv-x="836" 
d="M779 470q4 -13 -2.5 -25t-20.5 -16q-13 -4 -24.5 2t-16.5 19q-31 97 -112 156q-1 1 -9 5l-37 -61q16 -13 27 -25q69 -67 69 -167t-69 -167q-67 -72 -167 -72q-59 0 -116 33q-54 31 -85 86q-7 13 -3.5 27t14.5 21q13 6 26 2.5t20 -15.5q11 -23 33 -42l167 289q-29 9 -56 9
q-45 0 -81 -24q-39 -21 -63 -61q-7 -12 -20 -16t-26 3q-11 7 -14.5 20t3.5 25q34 59 85 89q56 31 116 31q52 0 89 -17l36 61q-62 24 -125 24q-74 0 -134 -26.5t-96.5 -69.5t-56.5 -98t-20 -112t20 -112t56.5 -98t96.5 -69.5t134 -26.5q104 0 186 58q82 61 112 156
q5 13 17 19.5t24 2.5q14 -5 20.5 -17t2.5 -25q-36 -117 -137 -189q-99 -72 -225 -72q-91 0 -167 34l-41 -74q-6 -10 -18.5 -13t-22.5 3q-11 6 -14 17.5t3 21.5l43 73q-64 44 -103 113.5t-49 144.5t9.5 151.5t63 137.5t121 99t175.5 38q84 0 158 -33l43 72q5 11 17 14t22 -3
t13 -17.5t-2 -22.5l-41 -71q12 -10 15 -11q102 -76 137 -189zM523 490l-167 -290q29 -13 61 -13q71 0 120 49q49 52 49 122q0 71 -49 122q-3 1 -7 4.5t-7 5.5z" />
    <glyph glyph-name="Ugrave" unicode="&#xd9;" 
d="M213 265q0 -40 16 -71.5t41.5 -48t56.5 -24t61.5 0t56 24t41.5 48t16 71.5v428q0 14 -9.5 24t-23.5 10q-15 0 -24.5 -10t-9.5 -24v-428q0 -50 -38.5 -70.5t-77.5 0t-39 70.5v428q0 14 -10 24t-24 10t-23.5 -10t-9.5 -24v-428zM638 257v436q0 14 -9.5 24t-23.5 10
t-23.5 -10t-9.5 -24v-436q0 -51 -18.5 -92t-48.5 -66t-68.5 -38.5t-79 -13.5t-79 13.5t-68.5 38.5t-48.5 66t-18.5 92v436q0 14 -10 24t-24 10t-23.5 -10t-9.5 -24v-436q0 -66 24 -119.5t63.5 -86.5t90 -51t103.5 -18t103.5 17.5t90 50.5t63.5 87t24 120zM318 929l100 -108
q8 -9 8 -22t-10 -22q-22 -21 -45 2l-101 106q-16 23 2 46q25 19 46 -2z" />
    <glyph glyph-name="Uacute" unicode="&#xda;" 
d="M213 265v428q0 14 9.5 24t23.5 10t24 -10t10 -24v-428q0 -50 38.5 -70.5t77.5 0t39 70.5v428q0 14 9.5 24t24.5 10q14 0 23.5 -10t9.5 -24v-428q0 -40 -16 -71.5t-41.5 -48t-56 -24t-61.5 0t-56.5 24t-41.5 48t-16 71.5zM638 257q0 -66 -24 -120t-63.5 -87t-90 -50.5
t-103.5 -17.5t-103.5 18t-90 51t-63.5 86.5t-24 119.5v436q0 14 9.5 24t23.5 10t24 -10t10 -24v-436q0 -67 32 -116t79.5 -71t103 -22t103 22t79.5 71t32 116v436q0 14 9.5 24t23.5 10t23.5 -10t9.5 -24v-436zM285 816l100 108q21 21 46 2q18 -23 2 -46l-101 -106
q-10 -10 -22.5 -11t-22.5 9q-10 9 -10 22t8 22z" />
    <glyph glyph-name="Ucircumflex" unicode="&#xdb;" 
d="M213 265q0 -40 16 -71.5t41.5 -48t56.5 -24t61.5 0t56 24t41.5 48t16 71.5v428q0 14 -9.5 24t-23.5 10q-15 0 -24.5 -10t-9.5 -24v-428q0 -50 -38.5 -70.5t-77.5 0t-39 70.5v428q0 14 -10 24t-24 10t-23.5 -10t-9.5 -24v-428zM638 257v436q0 14 -9.5 24t-23.5 10
t-23.5 -10t-9.5 -24v-436q0 -51 -18.5 -92t-48.5 -66t-68.5 -38.5t-79 -13.5t-79 13.5t-68.5 38.5t-48.5 66t-18.5 92v436q0 14 -10 24t-24 10t-23.5 -10t-9.5 -24v-436q0 -66 24 -119.5t63.5 -86.5t90 -51t103.5 -18t103.5 17.5t90 50.5t63.5 87t24 120zM449 794l-92 74
l-89 -74q-12 -9 -24.5 -7.5t-20.5 11.5t-7 22.5t11 20.5l111 91q20 18 40 0l111 -91q10 -8 11 -20.5t-7 -22.5q-9 -10 -21.5 -11.5t-22.5 7.5z" />
    <glyph glyph-name="Udieresis" unicode="&#xdc;" 
d="M213 265v428q0 14 9.5 24t23.5 10t24 -10t10 -24v-428q0 -50 38.5 -70.5t77.5 0t39 70.5v428q0 14 9.5 24t24.5 10q14 0 23.5 -10t9.5 -24v-428q0 -40 -16 -71.5t-41.5 -48t-56 -24t-61.5 0t-56.5 24t-41.5 48t-16 71.5zM638 257q0 -66 -24 -120t-63.5 -87t-90 -50.5
t-103.5 -17.5t-103.5 18t-90 51t-63.5 86.5t-24 119.5v436q0 14 9.5 24t23.5 10t24 -10t10 -24v-436q0 -67 32 -116t79.5 -71t103 -22t103 22t79.5 71t32 116v436q0 14 9.5 24t23.5 10t23.5 -10t9.5 -24v-436zM484 944q36 0 62 -26t26 -63t-26 -62.5t-62 -25.5
q-37 0 -63 25.5t-26 62.5t26 63t63 26zM232 944q36 0 62.5 -26t26.5 -63q0 -36 -26.5 -62t-62.5 -26q-37 0 -62.5 25.5t-25.5 62.5t25.5 63t62.5 26zM232 893q-16 0 -27.5 -11t-11.5 -27t11.5 -27t27.5 -11t27 11t11 27t-11 27t-27 11zM484 893q-17 0 -28.5 -11t-11.5 -27
t11.5 -27t28.5 -11q15 0 26.5 11t11.5 27t-11.5 27t-26.5 11z" />
    <glyph glyph-name="Yacute" unicode="&#xdd;" horiz-adv-x="675" 
d="M309 459l-135 227q-8 13 -4.5 26t16.5 20q11 8 24.5 4.5t20.5 -15.5l108 -183l108 183q7 12 21 15.5t25 -4.5q12 -7 15.5 -20t-3.5 -26l-136 -228q-11 -19 -30 -18.5t-30 19.5zM611 721q7 13 20.5 16t25.5 -5q11 -8 14 -21t-4 -25l-227 -365v-308q0 -14 -10 -24t-24 -10
t-24 10t-10 24v316q0 9 5 19zM306 13q0 -14 -9.5 -24t-23.5 -10t-24 10t-10 24v308l-228 365q-7 12 -4 25.5t15 20.5q11 8 25 5t21 -16l232 -371q6 -10 6 -20v-317zM270 823l102 102q22 19 48 2q18 -21 2 -44l-104 -100q-10 -10 -23 -11t-23 9q-10 8 -10 20.5t8 21.5z" />
    <glyph glyph-name="Thorn" unicode="&#xde;" horiz-adv-x="637" 
d="M281 592h96q55 0 99 -20t71.5 -53t42 -75t14.5 -85.5t-14.5 -85.5t-42 -75t-71.5 -53t-99 -20h-96v-101q0 -21 -17 -29.5t-34 0t-17 29.5v135q0 13 10 23t24 10h130q44 0 79 18.5t53 48t26 65t0 71t-26 65t-53 48t-79 18.5h-134q-13 2 -21.5 11t-8.5 22v126q0 21 17 29.5
t34 0t17 -29.5v-93zM80 24v661q0 21 16.5 29.5t33.5 0t17 -29.5v-661q0 -21 -16.5 -29.5t-33.5 0t-17 29.5zM365 259q-2 0 -14 -0.5t-16.5 0t-14 2t-14 5t-8.5 10t-4 16.5t4 16.5t8.5 10t13.5 5t14.5 2t16.5 0t14 -0.5q22 0 31 16.5t0 33.5t-31 17h-118q-21 0 -29.5 17
t0 33.5t29.5 16.5h118q38 0 64 -20.5t32.5 -50t0 -59t-32.5 -50t-64 -20.5z" />
    <glyph glyph-name="agrave" unicode="&#xe0;" horiz-adv-x="648" 
d="M273 190h97q14 0 24.5 10t10.5 24q0 7 -3 13l-49 120q-5 12 -17.5 17t-26.5 0q-12 -4 -17.5 -17t-0.5 -26l30 -74h-48q-14 0 -23.5 -9.5t-9.5 -23.5t9.5 -24t23.5 -10zM224 17l17 39h162l16 -39q5 -13 18 -18.5t26 -0.5q13 6 18 18.5t0 25.5l-24 58q-7 24 -32 24h-207
q-20 0 -31 -21l-24 -61q-5 -13 0 -25.5t18 -18.5q14 -5 26.5 0.5t16.5 18.5zM81 17l241 607l241 -607q5 -13 18 -18.5t26 -0.5q13 6 18 18.5t0 25.5l-272 682q-6 15 -19 19q-12 5 -25 -0.5t-18 -18.5l-273 -682q-4 -13 1.5 -25.5t17.5 -18.5q13 -5 25.5 0.5t18.5 18.5z
M297 941l100 -108q8 -9 8 -22t-10 -22q-21 -21 -45 2l-101 106q-16 23 2 46q25 19 46 -2z" />
    <glyph glyph-name="aacute" unicode="&#xe1;" horiz-adv-x="648" 
d="M273 190q-14 0 -23.5 10t-9.5 24t9.5 23.5t23.5 9.5h48l-30 74q-5 13 0.5 26t17.5 17q14 5 26.5 0t17.5 -17l49 -120q3 -6 3 -13q0 -14 -10.5 -24t-24.5 -10h-97zM224 17q-4 -13 -16.5 -18.5t-26.5 -0.5q-13 6 -18 18.5t0 25.5l24 61q11 21 31 21h207q25 0 32 -24l24 -58
q5 -13 0 -25.5t-18 -18.5q-13 -5 -26 0.5t-18 18.5l-16 39h-162zM81 17q-6 -13 -18.5 -18.5t-25.5 -0.5q-12 6 -17.5 18.5t-1.5 25.5l273 682q5 13 18 18.5t25 0.5q13 -4 19 -19l272 -682q5 -13 0 -25.5t-18 -18.5q-13 -5 -26 0.5t-18 18.5l-241 607zM252 831l100 108
q21 21 46 2q18 -23 2 -46l-101 -106q-23 -23 -45 -2q-10 9 -10 22t8 22z" />
    <glyph glyph-name="acircumflex" unicode="&#xe2;" horiz-adv-x="648" 
d="M273 190h97q14 0 24.5 10t10.5 24q0 7 -3 13l-49 120q-5 12 -17.5 17t-26.5 0q-12 -4 -17.5 -17t-0.5 -26l30 -74h-48q-14 0 -23.5 -9.5t-9.5 -23.5t9.5 -24t23.5 -10zM224 17l17 39h162l16 -39q5 -13 18 -18.5t26 -0.5q13 6 18 18.5t0 25.5l-24 58q-7 24 -32 24h-207
q-20 0 -31 -21l-24 -61q-5 -13 0 -25.5t18 -18.5q14 -5 26.5 0.5t16.5 18.5zM81 17l241 607l241 -607q5 -13 18 -18.5t26 -0.5q13 6 18 18.5t0 25.5l-272 682q-6 15 -19 19q-12 5 -25 -0.5t-18 -18.5l-273 -682q-4 -13 1.5 -25.5t17.5 -18.5q13 -5 25.5 0.5t18.5 18.5z
M415 768l-92 74l-89 -74q-12 -9 -24.5 -7.5t-20.5 11.5t-7 22.5t11 20.5l111 91q20 18 40 0l111 -91q10 -8 11 -20.5t-7 -22.5q-9 -10 -21.5 -11.5t-22.5 7.5z" />
    <glyph glyph-name="atilde" unicode="&#xe3;" horiz-adv-x="648" 
d="M273 190q-14 0 -23.5 10t-9.5 24t9.5 23.5t23.5 9.5h48l-30 74q-5 13 0.5 26t17.5 17q14 5 26.5 0t17.5 -17l49 -120q3 -6 3 -13q0 -14 -10.5 -24t-24.5 -10h-97zM224 17q-4 -13 -16.5 -18.5t-26.5 -0.5q-13 6 -18 18.5t0 25.5l24 61q11 21 31 21h207q25 0 32 -24l24 -58
q5 -13 0 -25.5t-18 -18.5q-13 -5 -26 0.5t-18 18.5l-16 39h-162zM81 17q-6 -13 -18.5 -18.5t-25.5 -0.5q-12 6 -17.5 18.5t-1.5 25.5l273 682q5 13 18 18.5t25 0.5q13 -4 19 -19l272 -682q5 -13 0 -25.5t-18 -18.5q-13 -5 -26 0.5t-18 18.5l-241 607zM228 809
q-14 -26 -43 -13q-10 5 -13 17t2 23q25 46 59.5 60.5t76.5 -7.5q12 -6 29.5 -19.5t22.5 -16.5q34 -20 57 25q11 24 41 13q10 -6 13.5 -19t-1.5 -24q-22 -45 -57 -60.5t-79 8.5q-11 6 -26.5 19t-24.5 17q-35 19 -57 -23z" />
    <glyph glyph-name="adieresis" unicode="&#xe4;" horiz-adv-x="648" 
d="M273 190q-14 0 -23.5 10t-9.5 24t9.5 23.5t23.5 9.5h48l-30 74q-5 13 0.5 26t17.5 17q14 5 26.5 0t17.5 -17l49 -120q3 -6 3 -13q0 -14 -10.5 -24t-24.5 -10h-97zM224 17q-4 -13 -16.5 -18.5t-26.5 -0.5q-13 6 -18 18.5t0 25.5l24 61q11 21 31 21h207q25 0 32 -24l24 -58
q5 -13 0 -25.5t-18 -18.5q-13 -5 -26 0.5t-18 18.5l-16 39h-162zM81 17q-6 -13 -18.5 -18.5t-25.5 -0.5q-12 6 -17.5 18.5t-1.5 25.5l273 682q5 13 18 18.5t25 0.5q13 -4 19 -19l272 -682q5 -13 0 -25.5t-18 -18.5q-13 -5 -26 0.5t-18 18.5l-241 607zM450 926q36 0 62 -25
t26 -60q0 -34 -26 -58.5t-62 -24.5q-37 0 -63 24.5t-26 58.5q0 35 26 60t63 25zM198 926q36 0 62.5 -25t26.5 -60q0 -34 -26.5 -58.5t-62.5 -24.5q-37 0 -62.5 24t-25.5 59t25.5 60t62.5 25zM198 878q-16 0 -27.5 -10.5t-11.5 -26.5q0 -14 11.5 -25t27.5 -11t27 11t11 25
q0 16 -11 26.5t-27 10.5zM450 878q-17 0 -28.5 -10.5t-11.5 -26.5q0 -14 12 -25t28 -11q15 0 26.5 11t11.5 25q0 15 -11.5 26t-26.5 11z" />
    <glyph glyph-name="aring" unicode="&#xe5;" horiz-adv-x="648" 
d="M324 882q56 0 92.5 -37.5t36.5 -92.5q0 -36 -18 -66.5t-48 -47.5l238 -596q5 -13 0 -25.5t-18 -18.5q-13 -5 -26 0.5t-18 18.5l-241 606h-1l-240 -606q-6 -13 -18.5 -18.5t-25.5 -0.5q-12 6 -17.5 18.5t-1.5 25.5l240 598q-30 17 -47 46.5t-17 65.5q0 55 37.5 92.5
t92.5 37.5zM241 56l-17 -39q-4 -13 -16.5 -18.5t-26.5 -0.5q-13 6 -18 18.5t0 25.5l24 61q11 21 31 21h207q25 0 32 -24l24 -58q5 -13 0 -25.5t-18 -18.5q-13 -5 -26 0.5t-18 18.5l-16 39h-162zM370 190h-97q-14 0 -23.5 10t-9.5 24t9.5 23.5t23.5 9.5h48l-30 74
q-5 13 0.5 26t17.5 17q14 5 26.5 0t17.5 -17l49 -120q3 -6 3 -13q0 -14 -10.5 -24t-24.5 -10zM324 818q-29 0 -48 -18.5t-19 -47.5t19 -47t48 -18q30 0 48 18t18 47q0 30 -18 48t-48 18z" />
    <glyph glyph-name="ae" unicode="&#xe6;" horiz-adv-x="873" 
d="M777 595h-184q-14 0 -23 -9t-9 -23v-137q0 -14 9 -24.5t23 -10.5h155q13 0 23.5 11t10.5 24t-10.5 23.5t-23.5 10.5h-121v68h150q21 0 29.5 17t0 33.5t-29.5 16.5zM363 730h414q21 0 29.5 -17t0 -34t-29.5 -17h-284v-421q0 -35 -15.5 -45.5t-51.5 -10.5h-137
q-19 0 -29.5 15.5t-3.5 32.5l53 132q13 30 44 17t20 -44l-34 -84h87v408h-44l-296 -655q-6 -13 -19.5 -19t-25.5 0q-14 5 -20 17.5t1 26.5l308 677q3 11 12.5 17t20.5 4zM429 115q37 0 50.5 -12t13.5 -50h290q22 0 31 -17t0 -34t-31 -17h-322q-16 0 -25.5 9.5t-9.5 24.5v29
h-177l-16 -41q-5 -12 -19.5 -18.5t-26.5 -0.5q-12 5 -18 18t0 26l25 59q1 11 10.5 17.5t21.5 6.5h203zM748 324h-155q-14 0 -23 -9.5t-9 -25.5v-134q0 -14 9 -24.5t23 -10.5h190q22 0 31 17.5t0 35t-31 17.5h-156v66h121q13 0 23.5 10t10.5 23q0 15 -10.5 25t-23.5 10z" />
    <glyph glyph-name="ccedilla" unicode="&#xe7;" horiz-adv-x="627" 
d="M572 710q19 -8 20.5 -26.5t-13 -31t-33.5 -4.5q-59 25 -125 25q-134 0 -221 -89.5t-87 -222.5q1 -81 34.5 -150t106 -114.5t170.5 -45.5q60 0 122 24q19 8 33.5 -4t13 -30.5t-20.5 -26.5q-72 -29 -148 -29q-4 0 -13 0.5t-13 0.5v-2l-9 -48q71 -1 102 -43
q34 -51 7.5 -103.5t-87.5 -60.5q-63 -10 -147 39q-25 15 -11 42q15 25 43 11q62 -36 106 -29q25 2 37.5 22.5t-0.5 43.5q-18 24 -80 17q-17 -2 -28.5 9t-7.5 29l13 81q-92 18 -158.5 75t-97.5 131.5t-32 158.5q0 73 23.5 140t69 121t119 86.5t164.5 32.5q76 0 148 -29z
M526 214q18 9 33.5 -1.5t15 -27.5t-17.5 -29q-63 -37 -136 -35q-96 2 -163 67.5t-67 172.5q0 75 34.5 131.5t87.5 83.5t118.5 26t125.5 -35q17 -12 17.5 -29t-15 -27.5t-33.5 -0.5q-43 24 -91 25.5t-87 -17t-65 -60t-26 -97.5q0 -79 47.5 -125t115.5 -48q57 -2 106 26z" />
    <glyph glyph-name="egrave" unicode="&#xe8;" horiz-adv-x="547" 
d="M459 591h-212q-14 0 -24 -9.5t-10 -23.5v-134q0 -14 10 -23.5t24 -9.5h150q14 0 24 9.5t10 23.5t-10 24t-24 10h-117v67h179q14 0 24 9.5t10 23.5t-10 23.5t-24 9.5zM397 324h-150q-14 0 -24 -9.5t-10 -23.5v-134q0 -14 10 -23.5t24 -9.5h212q14 0 24 9.5t10 23.5t-10 24
t-24 10h-179v66h117q14 0 24 10t10 24t-10 23.5t-24 9.5zM459 57h-312v601h312q14 0 24 10t10 24t-10 23.5t-24 9.5h-346q-13 0 -23 -9.5t-10 -23.5v-669q0 -13 10 -23t23 -10h346q14 0 24 9.5t10 23.5t-10 24t-24 10zM246 930l99 -101q8 -8 8 -20.5t-10 -20.5
q-21 -19 -44 2l-101 99q-16 22 2 43q25 18 46 -2z" />
    <glyph glyph-name="eacute" unicode="&#xe9;" horiz-adv-x="547" 
d="M459 591q14 0 24 -9.5t10 -23.5t-10 -23.5t-24 -9.5h-179v-67h117q14 0 24 -10t10 -24t-10 -23.5t-24 -9.5h-150q-14 0 -24 9.5t-10 23.5v134q0 14 10 23.5t24 9.5h212zM397 324q14 0 24 -9.5t10 -23.5t-10 -24t-24 -10h-117v-66h179q14 0 24 -10t10 -24t-10 -23.5
t-24 -9.5h-212q-14 0 -24 9.5t-10 23.5v134q0 14 10 23.5t24 9.5h150zM459 57q14 0 24 -10t10 -24t-10 -23.5t-24 -9.5h-346q-13 0 -23 10t-10 23v669q0 14 10 23.5t23 9.5h346q14 0 24 -9.5t10 -23.5t-10 -24t-24 -10h-312v-601h312zM231 823l106 102q23 20 50 2
q18 -21 2 -43l-108 -100q-25 -23 -48 -2q-10 8 -10.5 20.5t8.5 20.5z" />
    <glyph glyph-name="ecircumflex" unicode="&#xea;" horiz-adv-x="547" 
d="M459 591h-212q-14 0 -24 -9.5t-10 -23.5v-134q0 -14 10 -23.5t24 -9.5h150q14 0 24 9.5t10 23.5t-10 24t-24 10h-117v67h179q14 0 24 9.5t10 23.5t-10 23.5t-24 9.5zM397 324h-150q-14 0 -24 -9.5t-10 -23.5v-134q0 -14 10 -23.5t24 -9.5h212q14 0 24 9.5t10 23.5t-10 24
t-24 10h-179v66h117q14 0 24 10t10 24t-10 23.5t-24 9.5zM459 57h-312v601h312q14 0 24 10t10 24t-10 23.5t-24 9.5h-346q-13 0 -23 -9.5t-10 -23.5v-669q0 -13 10 -23t23 -10h346q14 0 24 9.5t10 23.5t-10 24t-24 10zM379 779l-92 74l-89 -74q-12 -9 -24.5 -7.5t-20.5 11.5
t-7 22.5t11 20.5l111 91q20 18 40 0l111 -91q10 -8 11 -20.5t-7 -22.5q-9 -10 -21.5 -11.5t-22.5 7.5z" />
    <glyph glyph-name="edieresis" unicode="&#xeb;" horiz-adv-x="547" 
d="M459 591q14 0 24 -9.5t10 -23.5t-10 -23.5t-24 -9.5h-179v-67h117q14 0 24 -10t10 -24t-10 -23.5t-24 -9.5h-150q-14 0 -24 9.5t-10 23.5v134q0 14 10 23.5t24 9.5h212zM397 324q14 0 24 -9.5t10 -23.5t-10 -24t-24 -10h-117v-66h179q14 0 24 -10t10 -24t-10 -23.5
t-24 -9.5h-212q-14 0 -24 9.5t-10 23.5v134q0 14 10 23.5t24 9.5h150zM459 57q14 0 24 -10t10 -24t-10 -23.5t-24 -9.5h-346q-13 0 -23 10t-10 23v669q0 14 10 23.5t23 9.5h346q14 0 24 -9.5t10 -23.5t-10 -24t-24 -10h-312v-601h312zM413 929q35 0 60 -23.5t25 -57.5
t-25 -57.5t-60 -23.5t-60.5 23.5t-25.5 57.5t25.5 57.5t60.5 23.5zM171 929q35 0 60 -23.5t25 -57.5t-25 -57.5t-60 -23.5q-36 0 -60.5 23.5t-24.5 57.5t24.5 57.5t60.5 23.5zM171 883q-16 0 -27 -10t-11 -25q0 -14 11 -24.5t27 -10.5q15 0 25.5 10.5t10.5 24.5
q0 15 -10.5 25t-25.5 10zM413 883q-16 0 -27 -10t-11 -25q0 -14 11 -24.5t27 -10.5q14 0 25.5 10.5t11.5 24.5q0 15 -11 25t-26 10z" />
    <glyph glyph-name="igrave" unicode="&#xec;" horiz-adv-x="362" 
d="M281 23v669q0 14 -9.5 23.5t-23.5 9.5t-24 -9.5t-10 -23.5v-669q0 -14 10 -23.5t24 -9.5t23.5 10t9.5 23zM147 23v669q0 14 -9.5 23.5t-23.5 9.5t-24 -9.5t-10 -23.5v-669q0 -14 10 -23.5t24 -9.5t23.5 10t9.5 23zM154 929l100 -108q8 -9 8 -22t-10 -22q-22 -21 -45 2
l-101 106q-16 23 2 46q25 19 46 -2z" />
    <glyph glyph-name="iacute" unicode="&#xed;" horiz-adv-x="362" 
d="M281 23q0 -13 -9.5 -23t-23.5 -10t-24 9.5t-10 23.5v669q0 14 10 23.5t24 9.5t23.5 -9.5t9.5 -23.5v-669zM147 23q0 -13 -9.5 -23t-23.5 -10t-24 9.5t-10 23.5v669q0 14 10 23.5t24 9.5t23.5 -9.5t9.5 -23.5v-669zM108 816l100 108q21 21 46 2q18 -23 2 -46l-101 -106
q-10 -10 -22.5 -11t-22.5 9q-10 9 -10 22t8 22z" />
    <glyph glyph-name="icircumflex" unicode="&#xee;" horiz-adv-x="362" 
d="M281 23v669q0 14 -9.5 23.5t-23.5 9.5t-24 -9.5t-10 -23.5v-669q0 -14 10 -23.5t24 -9.5t23.5 10t9.5 23zM147 23v669q0 14 -9.5 23.5t-23.5 9.5t-24 -9.5t-10 -23.5v-669q0 -14 10 -23.5t24 -9.5t23.5 10t9.5 23zM272 786l-92 74l-89 -74q-12 -9 -24.5 -7.5t-20.5 11.5
t-7 22.5t11 20.5l111 91q20 18 40 0l111 -91q10 -8 11 -20.5t-7 -22.5q-9 -10 -21.5 -11.5t-22.5 7.5z" />
    <glyph glyph-name="idieresis" unicode="&#xef;" horiz-adv-x="362" 
d="M288 944q36 0 62 -25.5t26 -60.5t-26 -60t-62 -25q-37 0 -63 25t-26 60t26 60.5t63 25.5zM67 944q36 0 62.5 -25.5t26.5 -60.5t-26.5 -60t-62.5 -25q-37 0 -62.5 25t-25.5 60t25.5 60.5t62.5 25.5zM67 895q-16 0 -27.5 -10.5t-11.5 -26.5q0 -15 11.5 -26t27.5 -11t27 11
t11 26q0 16 -11 26.5t-27 10.5zM288 895q-17 0 -28.5 -10.5t-11.5 -26.5q0 -15 12 -26t28 -11q15 0 26.5 11t11.5 26t-11.5 26t-26.5 11zM281 23q0 -13 -9.5 -23t-23.5 -10t-24 9.5t-10 23.5v669q0 14 10 23.5t24 9.5t23.5 -9.5t9.5 -23.5v-669zM147 23q0 -13 -9.5 -23
t-23.5 -10t-24 9.5t-10 23.5v669q0 14 10 23.5t24 9.5t23.5 -9.5t9.5 -23.5v-669z" />
    <glyph glyph-name="eth" unicode="&#xf0;" horiz-adv-x="735" 
d="M147 658v-635q0 -14 -10 -23.5t-24 -9.5q-13 0 -23 10t-10 23v289h-45q-21 0 -29.5 17t0 33.5t29.5 16.5h45v313q0 14 10 23.5t23 9.5h200q162 0 265 -104t103 -263q0 -160 -103 -264t-265 -104h-67q-14 0 -23.5 10t-9.5 23q0 14 9.5 24t23.5 10h67q134 0 217.5 84.5
t83.5 216.5q0 131 -84 215.5t-217 84.5h-166zM313 123h-66q-14 0 -23.5 10t-9.5 24q0 13 10 23t23 10h66q73 0 117.5 47.5t44.5 120.5q0 72 -44.5 119.5t-117.5 47.5h-33v-146h80q21 0 29.5 -16.5t0 -33.5t-29.5 -17h-113q-14 0 -23.5 10t-9.5 24v212q0 14 9.5 24t23.5 10
h66q101 0 164.5 -67t63.5 -167q0 -101 -63.5 -168t-164.5 -67z" />
    <glyph glyph-name="ntilde" unicode="&#xf1;" horiz-adv-x="773" 
d="M146 23q0 -14 -9.5 -24t-23.5 -10q-13 0 -23 10t-10 24v669q0 13 9.5 22.5t23.5 9.5t23.5 -9t9.5 -23v-669zM692 23q0 -14 -10 -24t-24 -10q-13 0 -23 10t-10 24v669q0 13 9.5 22.5t23.5 9.5t24 -9.5t10 -22.5v-669zM565 42q7 -11 5 -24.5t-13 -22.5q-28 -17 -47 9
l-230 329v-310q0 -14 -10 -23.5t-24 -9.5q-13 0 -22.5 9.5t-9.5 23.5v416q0 19 14 27q11 9 24.5 6.5t21.5 -14.5zM207 672q-8 12 -5.5 25t13.5 21q11 9 24.5 6.5t21.5 -14.5l230 -329v311q0 13 10 22.5t24 9.5t23.5 -9.5t9.5 -22.5v-416q0 -19 -15 -28q-11 -8 -24.5 -5.5
t-21.5 13.5zM289 805q-14 -26 -44 -13q-10 5 -13.5 17t1.5 23q26 45 61.5 59.5t78.5 -7.5q12 -6 30 -19t24 -17q35 -19 58 25q13 24 43 13q10 -6 13.5 -19t-1.5 -24q-23 -45 -59 -59.5t-81 8.5q-11 6 -27.5 19t-25.5 17q-36 18 -58 -23z" />
    <glyph glyph-name="ograve" unicode="&#xf2;" horiz-adv-x="861" 
d="M805 473q-37 118 -140 194q-103 73 -229 73q-92 0 -166 -33t-119.5 -86.5t-70.5 -122t-25 -140t25 -140t70.5 -122t119.5 -86.5t166 -33q124 0 229 74q102 74 140 193q4 14 -2.5 26.5t-19.5 16.5q-14 4 -26.5 -2.5t-16.5 -19.5q-32 -100 -116 -159q-82 -60 -188 -60
q-75 0 -136 27t-98.5 71t-58 100t-20.5 115t20.5 115t58 100t98.5 71t136 27q104 0 188 -60q84 -61 116 -159q4 -13 16.5 -20t26.5 -2q13 4 19.5 16t2.5 26zM230 238q32 -56 87 -90q58 -32 119 -32q101 0 171 72q69 72 69 171t-69 171q-71 71 -171 71q-64 0 -119 -32
t-87 -89q-7 -13 -3.5 -26.5t15.5 -20.5q13 -7 26 -3t20 17q25 40 64 63q38 23 84 23q72 0 121 -51q51 -49 51 -123q0 -75 -51 -124q-48 -51 -121 -51q-46 0 -84 24q-38 20 -64 63q-7 13 -20 16.5t-26 -3.5q-12 -8 -15.5 -20.5t3.5 -25.5zM394 948l100 -108q8 -9 8 -22
t-10 -22q-10 -10 -22.5 -9t-22.5 11l-101 106q-16 23 2 46q25 19 46 -2z" />
    <glyph glyph-name="oacute" unicode="&#xf3;" horiz-adv-x="861" 
d="M805 473q4 -14 -2.5 -26t-19.5 -16q-14 -5 -26.5 2t-16.5 20q-32 98 -116 159q-84 60 -188 60q-75 0 -136 -27t-98.5 -71t-58 -100t-20.5 -115t20.5 -115t58 -100t98.5 -71t136 -27q106 0 188 60q84 59 116 159q4 13 16.5 19.5t26.5 2.5q13 -4 19.5 -16.5t2.5 -26.5
q-38 -119 -140 -193q-105 -74 -229 -74q-92 0 -166 33t-119.5 86.5t-70.5 122t-25 140t25 140t70.5 122t119.5 86.5t166 33q126 0 229 -73q103 -76 140 -194zM230 238q-7 13 -3.5 25.5t15.5 20.5q13 7 26 3.5t20 -16.5q26 -43 64 -63q38 -24 84 -24q73 0 121 51
q51 49 51 124q0 74 -51 123q-49 51 -121 51q-46 0 -84 -23q-39 -23 -64 -63q-7 -13 -20 -17t-26 3q-12 7 -15.5 20.5t3.5 26.5q32 57 87 89t119 32q100 0 171 -71q69 -72 69 -171t-69 -171q-70 -72 -171 -72q-61 0 -119 32q-55 34 -87 90zM379 842l100 108q21 21 46 2
q18 -23 2 -46l-101 -106q-10 -10 -22.5 -11t-22.5 9q-10 9 -10 22t8 22z" />
    <glyph glyph-name="ocircumflex" unicode="&#xf4;" horiz-adv-x="861" 
d="M805 473q-37 118 -140 194q-103 73 -229 73q-92 0 -166 -33t-119.5 -86.5t-70.5 -122t-25 -140t25 -140t70.5 -122t119.5 -86.5t166 -33q124 0 229 74q102 74 140 193q4 14 -2.5 26.5t-19.5 16.5q-14 4 -26.5 -2.5t-16.5 -19.5q-32 -100 -116 -159q-82 -60 -188 -60
q-75 0 -136 27t-98.5 71t-58 100t-20.5 115t20.5 115t58 100t98.5 71t136 27q104 0 188 -60q84 -61 116 -159q4 -13 16.5 -20t26.5 -2q13 4 19.5 16t2.5 26zM230 238q32 -56 87 -90q58 -32 119 -32q101 0 171 72q69 72 69 171t-69 171q-71 71 -171 71q-64 0 -119 -32
t-87 -89q-7 -13 -3.5 -26.5t15.5 -20.5q13 -7 26 -3t20 17q25 40 64 63q38 23 84 23q72 0 121 -51q51 -49 51 -123q0 -75 -51 -124q-48 -51 -121 -51q-46 0 -84 24q-38 20 -64 63q-7 13 -20 16.5t-26 -3.5q-12 -8 -15.5 -20.5t3.5 -25.5zM521 805l-92 74l-89 -74
q-12 -9 -24.5 -7.5t-20.5 11.5t-7 22.5t11 20.5l111 91q20 18 40 0l111 -91q10 -8 11 -20.5t-7 -22.5q-9 -10 -21.5 -11.5t-22.5 7.5z" />
    <glyph glyph-name="otilde" unicode="&#xf5;" horiz-adv-x="861" 
d="M805 473q4 -14 -2.5 -26t-19.5 -16q-14 -5 -26.5 2t-16.5 20q-32 98 -116 159q-84 60 -188 60q-75 0 -136 -27t-98.5 -71t-58 -100t-20.5 -115t20.5 -115t58 -100t98.5 -71t136 -27q106 0 188 60q84 59 116 159q4 13 16.5 19.5t26.5 2.5q13 -4 19.5 -16.5t2.5 -26.5
q-38 -119 -140 -193q-105 -74 -229 -74q-92 0 -166 33t-119.5 86.5t-70.5 122t-25 140t25 140t70.5 122t119.5 86.5t166 33q126 0 229 -73q103 -76 140 -194zM230 238q-7 13 -3.5 25.5t15.5 20.5q13 7 26 3.5t20 -16.5q26 -43 64 -63q38 -24 84 -24q73 0 121 51
q51 49 51 124q0 74 -51 123q-49 51 -121 51q-46 0 -84 -23q-39 -23 -64 -63q-7 -13 -20 -17t-26 3q-12 7 -15.5 20.5t3.5 26.5q32 57 87 89t119 32q100 0 171 -71q69 -72 69 -171t-69 -171q-70 -72 -171 -72q-61 0 -119 32q-55 34 -87 90zM333 832q-14 -26 -44 -13
q-10 5 -13.5 17t1.5 23q26 45 61.5 59.5t78.5 -7.5q12 -6 30 -19t24 -17q35 -19 58 25q13 24 43 13q10 -6 13.5 -19t-1.5 -24q-23 -45 -59 -59.5t-81 8.5q-11 6 -27.5 19t-25.5 17q-36 18 -58 -23z" />
    <glyph glyph-name="odieresis" unicode="&#xf6;" horiz-adv-x="861" 
d="M805 473q4 -14 -2.5 -26t-19.5 -16q-14 -5 -26.5 2t-16.5 20q-32 98 -116 159q-84 60 -188 60q-75 0 -136 -27t-98.5 -71t-58 -100t-20.5 -115t20.5 -115t58 -100t98.5 -71t136 -27q106 0 188 60q84 59 116 159q4 13 16.5 19.5t26.5 2.5q13 -4 19.5 -16.5t2.5 -26.5
q-38 -119 -140 -193q-105 -74 -229 -74q-92 0 -166 33t-119.5 86.5t-70.5 122t-25 140t25 140t70.5 122t119.5 86.5t166 33q126 0 229 -73q103 -76 140 -194zM230 238q-7 13 -3.5 25.5t15.5 20.5q13 7 26 3.5t20 -16.5q26 -43 64 -63q38 -24 84 -24q73 0 121 51
q51 49 51 124q0 74 -51 123q-49 51 -121 51q-46 0 -84 -23q-39 -23 -64 -63q-7 -13 -20 -17t-26 3q-12 7 -15.5 20.5t3.5 26.5q32 57 87 89t119 32q100 0 171 -71q69 -72 69 -171t-69 -171q-70 -72 -171 -72q-61 0 -119 32q-55 34 -87 90zM556 950q36 0 62 -26t26 -63
t-26 -62.5t-62 -25.5q-37 0 -63 25.5t-26 62.5t26 63t63 26zM304 950q36 0 62.5 -26t26.5 -63q0 -36 -26.5 -62t-62.5 -26q-37 0 -62.5 25.5t-25.5 62.5t25.5 63t62.5 26zM304 899q-16 0 -27.5 -11t-11.5 -27t11.5 -27t27.5 -11t27 11t11 27t-11 27t-27 11zM556 899
q-17 0 -28.5 -11t-11.5 -27t11.5 -27t28.5 -11q15 0 26.5 11t11.5 27t-11.5 27t-26.5 11z" />
    <glyph glyph-name="oslash" unicode="&#xf8;" horiz-adv-x="836" 
d="M779 470q4 -13 -2.5 -25t-20.5 -16q-13 -4 -24.5 2t-16.5 19q-31 97 -112 156q-1 1 -9 5l-37 -61q16 -13 27 -25q69 -67 69 -167t-69 -167q-67 -72 -167 -72q-59 0 -116 33q-54 31 -85 86q-7 13 -3.5 27t14.5 21q13 6 26 2.5t20 -15.5q11 -23 33 -42l167 289q-29 9 -56 9
q-45 0 -81 -24q-39 -21 -63 -61q-7 -12 -20 -16t-26 3q-11 7 -14.5 20t3.5 25q34 59 85 89q56 31 116 31q52 0 89 -17l36 61q-62 24 -125 24q-74 0 -134 -26.5t-96.5 -69.5t-56.5 -98t-20 -112t20 -112t56.5 -98t96.5 -69.5t134 -26.5q104 0 186 58q82 61 112 156
q5 13 17 19.5t24 2.5q14 -5 20.5 -17t2.5 -25q-36 -117 -137 -189q-99 -72 -225 -72q-91 0 -167 34l-41 -74q-6 -10 -18.5 -13t-22.5 3q-11 6 -14 17.5t3 21.5l43 73q-64 44 -103 113.5t-49 144.5t9.5 151.5t63 137.5t121 99t175.5 38q84 0 158 -33l43 72q5 11 17 14t22 -3
t13 -17.5t-2 -22.5l-41 -71q12 -10 15 -11q102 -76 137 -189zM523 490l-167 -290q29 -13 61 -13q71 0 120 49q49 52 49 122q0 71 -49 122q-3 1 -7 4.5t-7 5.5z" />
    <glyph glyph-name="ugrave" unicode="&#xf9;" 
d="M213 265q0 -40 16 -71.5t41.5 -48t56.5 -24t61.5 0t56 24t41.5 48t16 71.5v428q0 14 -9.5 24t-23.5 10q-15 0 -24.5 -10t-9.5 -24v-428q0 -50 -38.5 -70.5t-77.5 0t-39 70.5v428q0 14 -10 24t-24 10t-23.5 -10t-9.5 -24v-428zM638 257v436q0 14 -9.5 24t-23.5 10
t-23.5 -10t-9.5 -24v-436q0 -51 -18.5 -92t-48.5 -66t-68.5 -38.5t-79 -13.5t-79 13.5t-68.5 38.5t-48.5 66t-18.5 92v436q0 14 -10 24t-24 10t-23.5 -10t-9.5 -24v-436q0 -66 24 -119.5t63.5 -86.5t90 -51t103.5 -18t103.5 17.5t90 50.5t63.5 87t24 120zM318 929l100 -108
q8 -9 8 -22t-10 -22q-22 -21 -45 2l-101 106q-16 23 2 46q25 19 46 -2z" />
    <glyph glyph-name="uacute" unicode="&#xfa;" 
d="M213 265v428q0 14 9.5 24t23.5 10t24 -10t10 -24v-428q0 -50 38.5 -70.5t77.5 0t39 70.5v428q0 14 9.5 24t24.5 10q14 0 23.5 -10t9.5 -24v-428q0 -40 -16 -71.5t-41.5 -48t-56 -24t-61.5 0t-56.5 24t-41.5 48t-16 71.5zM638 257q0 -66 -24 -120t-63.5 -87t-90 -50.5
t-103.5 -17.5t-103.5 18t-90 51t-63.5 86.5t-24 119.5v436q0 14 9.5 24t23.5 10t24 -10t10 -24v-436q0 -67 32 -116t79.5 -71t103 -22t103 22t79.5 71t32 116v436q0 14 9.5 24t23.5 10t23.5 -10t9.5 -24v-436zM285 816l100 108q21 21 46 2q18 -23 2 -46l-101 -106
q-10 -10 -22.5 -11t-22.5 9q-10 9 -10 22t8 22z" />
    <glyph glyph-name="ucircumflex" unicode="&#xfb;" 
d="M213 265q0 -40 16 -71.5t41.5 -48t56.5 -24t61.5 0t56 24t41.5 48t16 71.5v428q0 14 -9.5 24t-23.5 10q-15 0 -24.5 -10t-9.5 -24v-428q0 -50 -38.5 -70.5t-77.5 0t-39 70.5v428q0 14 -10 24t-24 10t-23.5 -10t-9.5 -24v-428zM638 257v436q0 14 -9.5 24t-23.5 10
t-23.5 -10t-9.5 -24v-436q0 -51 -18.5 -92t-48.5 -66t-68.5 -38.5t-79 -13.5t-79 13.5t-68.5 38.5t-48.5 66t-18.5 92v436q0 14 -10 24t-24 10t-23.5 -10t-9.5 -24v-436q0 -66 24 -119.5t63.5 -86.5t90 -51t103.5 -18t103.5 17.5t90 50.5t63.5 87t24 120zM449 794l-92 74
l-89 -74q-12 -9 -24.5 -7.5t-20.5 11.5t-7 22.5t11 20.5l111 91q20 18 40 0l111 -91q10 -8 11 -20.5t-7 -22.5q-9 -10 -21.5 -11.5t-22.5 7.5z" />
    <glyph glyph-name="udieresis" unicode="&#xfc;" 
d="M213 265v428q0 14 9.5 24t23.5 10t24 -10t10 -24v-428q0 -50 38.5 -70.5t77.5 0t39 70.5v428q0 14 9.5 24t24.5 10q14 0 23.5 -10t9.5 -24v-428q0 -40 -16 -71.5t-41.5 -48t-56 -24t-61.5 0t-56.5 24t-41.5 48t-16 71.5zM638 257q0 -66 -24 -120t-63.5 -87t-90 -50.5
t-103.5 -17.5t-103.5 18t-90 51t-63.5 86.5t-24 119.5v436q0 14 9.5 24t23.5 10t24 -10t10 -24v-436q0 -67 32 -116t79.5 -71t103 -22t103 22t79.5 71t32 116v436q0 14 9.5 24t23.5 10t23.5 -10t9.5 -24v-436zM484 944q36 0 62 -26t26 -63t-26 -62.5t-62 -25.5
q-37 0 -63 25.5t-26 62.5t26 63t63 26zM232 944q36 0 62.5 -26t26.5 -63q0 -36 -26.5 -62t-62.5 -26q-37 0 -62.5 25.5t-25.5 62.5t25.5 63t62.5 26zM232 893q-16 0 -27.5 -11t-11.5 -27t11.5 -27t27.5 -11t27 11t11 27t-11 27t-27 11zM484 893q-17 0 -28.5 -11t-11.5 -27
t11.5 -27t28.5 -11q15 0 26.5 11t11.5 27t-11.5 27t-26.5 11z" />
    <glyph glyph-name="yacute" unicode="&#xfd;" horiz-adv-x="675" 
d="M309 459l-135 227q-8 13 -4.5 26t16.5 20q11 8 24.5 4.5t20.5 -15.5l108 -183l108 183q7 12 21 15.5t25 -4.5q12 -7 15.5 -20t-3.5 -26l-136 -228q-11 -19 -30 -18.5t-30 19.5zM611 721q7 13 20.5 16t25.5 -5q11 -8 14 -21t-4 -25l-227 -365v-308q0 -14 -10 -24t-24 -10
t-24 10t-10 24v316q0 9 5 19zM306 13q0 -14 -9.5 -24t-23.5 -10t-24 10t-10 24v308l-228 365q-7 12 -4 25.5t15 20.5q11 8 25 5t21 -16l232 -371q6 -10 6 -20v-317zM270 823l102 102q22 19 48 2q18 -21 2 -44l-104 -100q-10 -10 -23 -11t-23 9q-10 8 -10 20.5t8 21.5z" />
    <glyph glyph-name="thorn" unicode="&#xfe;" horiz-adv-x="637" 
d="M281 592h96q55 0 99 -20t71.5 -53t42 -75t14.5 -85.5t-14.5 -85.5t-42 -75t-71.5 -53t-99 -20h-96v-101q0 -21 -17 -29.5t-34 0t-17 29.5v135q0 13 10 23t24 10h130q44 0 79 18.5t53 48t26 65t0 71t-26 65t-53 48t-79 18.5h-134q-13 2 -21.5 11t-8.5 22v126q0 21 17 29.5
t34 0t17 -29.5v-93zM80 24v661q0 21 16.5 29.5t33.5 0t17 -29.5v-661q0 -21 -16.5 -29.5t-33.5 0t-17 29.5zM365 259q-2 0 -14 -0.5t-16.5 0t-14 2t-14 5t-8.5 10t-4 16.5t4 16.5t8.5 10t13.5 5t14.5 2t16.5 0t14 -0.5q22 0 31 16.5t0 33.5t-31 17h-118q-21 0 -29.5 17
t0 33.5t29.5 16.5h118q38 0 64 -20.5t32.5 -50t0 -59t-32.5 -50t-64 -20.5z" />
    <glyph glyph-name="ydieresis" unicode="&#xff;" horiz-adv-x="675" 
d="M309 459l-135 227q-8 13 -4.5 26t16.5 20q11 8 24.5 4.5t20.5 -15.5l108 -183l108 183q7 12 21 15.5t25 -4.5q12 -7 15.5 -20t-3.5 -26l-136 -228q-11 -19 -30 -18.5t-30 19.5zM611 721q7 13 20.5 16t25.5 -5q11 -8 14 -21t-4 -25l-227 -365v-308q0 -14 -10 -24t-24 -10
t-24 10t-10 24v316q0 9 5 19zM306 13q0 -14 -9.5 -24t-23.5 -10t-24 10t-10 24v308l-228 365q-7 12 -4 25.5t15 20.5q11 8 25 5t21 -16l232 -371q6 -10 6 -20v-317zM468 955q38 0 65.5 -26.5t27.5 -63.5t-27.5 -63t-65.5 -26t-66 26t-28 63t28 63.5t66 26.5zM202 955
q38 0 66 -26.5t28 -63.5t-28 -63t-66 -26q-39 0 -66 26t-27 63q0 38 27 64t66 26zM202 904q-17 0 -29 -11.5t-12 -27.5t12 -27t29 -11t28.5 11t11.5 27t-11.5 27.5t-28.5 11.5zM468 904q-17 0 -29.5 -11.5t-12.5 -27.5t12.5 -27t29.5 -11q16 0 28.5 11.5t12.5 26.5
q0 16 -12.5 27.5t-28.5 11.5z" />
    <glyph glyph-name="Amacron" unicode="&#x100;" horiz-adv-x="648" 
d="M273 190q-14 0 -23.5 10t-9.5 24t9.5 23.5t23.5 9.5h48l-30 74q-5 13 0.5 26t17.5 17q14 5 26.5 0t17.5 -17l49 -120q3 -6 3 -13q0 -14 -10.5 -24t-24.5 -10h-97zM224 17q-4 -13 -16.5 -18.5t-26.5 -0.5q-13 6 -18 18.5t0 25.5l24 61q11 21 31 21h207q25 0 32 -24l24 -58
q5 -13 0 -25.5t-18 -18.5q-13 -5 -26 0.5t-18 18.5l-16 39h-162zM81 17q-6 -13 -18.5 -18.5t-25.5 -0.5q-12 6 -17.5 18.5t-1.5 25.5l273 682q5 13 18 18.5t25 0.5q13 -4 19 -19l272 -682q5 -13 0 -25.5t-18 -18.5q-13 -5 -26 0.5t-18 18.5l-241 607zM417 800h-193
q-21 0 -29.5 17t0 33.5t29.5 16.5h193q21 0 29.5 -16.5t0 -33.5t-29.5 -17z" />
    <glyph glyph-name="amacron" unicode="&#x101;" horiz-adv-x="648" 
d="M273 190q-14 0 -23.5 10t-9.5 24t9.5 23.5t23.5 9.5h48l-30 74q-5 13 0.5 26t17.5 17q14 5 26.5 0t17.5 -17l49 -120q3 -6 3 -13q0 -14 -10.5 -24t-24.5 -10h-97zM224 17q-4 -13 -16.5 -18.5t-26.5 -0.5q-13 6 -18 18.5t0 25.5l24 61q11 21 31 21h207q25 0 32 -24l24 -58
q5 -13 0 -25.5t-18 -18.5q-13 -5 -26 0.5t-18 18.5l-16 39h-162zM81 17q-6 -13 -18.5 -18.5t-25.5 -0.5q-12 6 -17.5 18.5t-1.5 25.5l273 682q5 13 18 18.5t25 0.5q13 -4 19 -19l272 -682q5 -13 0 -25.5t-18 -18.5q-13 -5 -26 0.5t-18 18.5l-241 607zM417 800h-193
q-21 0 -29.5 17t0 33.5t29.5 16.5h193q21 0 29.5 -16.5t0 -33.5t-29.5 -17z" />
    <glyph glyph-name="Abreve" unicode="&#x102;" horiz-adv-x="648" 
d="M273 190q-14 0 -23.5 10t-9.5 24t9.5 23.5t23.5 9.5h48l-30 74q-5 13 0.5 26t17.5 17q14 5 26.5 0t17.5 -17l49 -120q3 -6 3 -13q0 -14 -10.5 -24t-24.5 -10h-97zM224 17q-4 -13 -16.5 -18.5t-26.5 -0.5q-13 6 -18 18.5t0 25.5l24 61q11 21 31 21h207q25 0 32 -24l24 -58
q5 -13 0 -25.5t-18 -18.5q-13 -5 -26 0.5t-18 18.5l-16 39h-162zM81 17q-6 -13 -18.5 -18.5t-25.5 -0.5q-12 6 -17.5 18.5t-1.5 25.5l273 682q5 13 18 18.5t25 0.5q13 -4 19 -19l272 -682q5 -13 0 -25.5t-18 -18.5q-13 -5 -26 0.5t-18 18.5l-241 607zM252 911q0 -55 68 -55
q66 0 66 55q0 17 16 24t31.5 0t15.5 -24q0 -55 -35.5 -86t-93.5 -31t-94.5 31t-36.5 86q0 17 15.5 25t31.5 1t16 -26z" />
    <glyph glyph-name="abreve" unicode="&#x103;" horiz-adv-x="648" 
d="M273 190q-14 0 -23.5 10t-9.5 24t9.5 23.5t23.5 9.5h48l-30 74q-5 13 0.5 26t17.5 17q14 5 26.5 0t17.5 -17l49 -120q3 -6 3 -13q0 -14 -10.5 -24t-24.5 -10h-97zM224 17q-4 -13 -16.5 -18.5t-26.5 -0.5q-13 6 -18 18.5t0 25.5l24 61q11 21 31 21h207q25 0 32 -24l24 -58
q5 -13 0 -25.5t-18 -18.5q-13 -5 -26 0.5t-18 18.5l-16 39h-162zM81 17q-6 -13 -18.5 -18.5t-25.5 -0.5q-12 6 -17.5 18.5t-1.5 25.5l273 682q5 13 18 18.5t25 0.5q13 -4 19 -19l272 -682q5 -13 0 -25.5t-18 -18.5q-13 -5 -26 0.5t-18 18.5l-241 607zM252 911q0 -55 68 -55
q66 0 66 55q0 17 16 24t31.5 0t15.5 -24q0 -55 -35.5 -86t-93.5 -31t-94.5 31t-36.5 86q0 17 15.5 25t31.5 1t16 -26z" />
    <glyph glyph-name="Aogonek" unicode="&#x104;" horiz-adv-x="648" 
d="M322 624l-241 -607q-6 -13 -18.5 -18.5t-25.5 -0.5q-12 6 -17.5 18.5t-1.5 25.5l273 682q5 13 18 18.5t25 0.5q13 -4 19 -19l272 -682q9 -23 -6 -38q-94 -91 -96 -149q0 -31 21 -35q25 -3 51 6q11 5 23 -0.5t15 -18.5q11 -28 -19 -40q-42 -15 -82 -9q-72 16 -72 95
q0 78 99 177zM241 56l-17 -39q-4 -13 -16.5 -18.5t-26.5 -0.5q-13 6 -18 18.5t0 25.5l24 61q11 21 31 21h207q25 0 32 -24l24 -58q5 -13 0 -25.5t-18 -18.5q-13 -5 -26 0.5t-18 18.5l-16 39h-162zM370 190h-97q-14 0 -23.5 10t-9.5 24t9.5 23.5t23.5 9.5h48l-30 74
q-5 13 0.5 26t17.5 17q14 5 26.5 0t17.5 -17l49 -120q3 -6 3 -13q0 -14 -10.5 -24t-24.5 -10z" />
    <glyph glyph-name="aogonek" unicode="&#x105;" horiz-adv-x="648" 
d="M322 624l-241 -607q-6 -13 -18.5 -18.5t-25.5 -0.5q-12 6 -17.5 18.5t-1.5 25.5l273 682q5 13 18 18.5t25 0.5q13 -4 19 -19l272 -682q9 -23 -6 -38q-94 -91 -96 -149q0 -31 21 -35q25 -3 51 6q11 5 23 -0.5t15 -18.5q11 -28 -19 -40q-42 -15 -82 -9q-72 16 -72 95
q0 78 99 177zM241 56l-17 -39q-4 -13 -16.5 -18.5t-26.5 -0.5q-13 6 -18 18.5t0 25.5l24 61q11 21 31 21h207q25 0 32 -24l24 -58q5 -13 0 -25.5t-18 -18.5q-13 -5 -26 0.5t-18 18.5l-16 39h-162zM370 190h-97q-14 0 -23.5 10t-9.5 24t9.5 23.5t23.5 9.5h48l-30 74
q-5 13 0.5 26t17.5 17q14 5 26.5 0t17.5 -17l49 -120q3 -6 3 -13q0 -14 -10.5 -24t-24.5 -10z" />
    <glyph glyph-name="Cacute" unicode="&#x106;" horiz-adv-x="627" 
d="M572 710q19 -8 20.5 -26.5t-13 -31t-33.5 -4.5q-59 25 -125 25q-134 0 -221 -89.5t-87 -222.5q1 -81 34.5 -150t106 -114.5t170.5 -45.5q60 0 122 24q19 8 33.5 -4t13 -30.5t-20.5 -26.5q-72 -29 -148 -29q-90 0 -163 32t-118.5 85t-70 119t-24.5 138q0 73 23.5 140
t69 121t119 86.5t164.5 32.5q76 0 148 -29zM526 214q18 9 33.5 -1.5t15 -27.5t-17.5 -29q-63 -37 -136 -35q-96 2 -163 67.5t-67 172.5q0 75 34.5 131.5t87.5 83.5t118.5 26t125.5 -35q17 -12 17.5 -29t-15 -27.5t-33.5 -0.5q-43 24 -91 25.5t-87 -17t-65 -60t-26 -97.5
q0 -79 47.5 -125t115.5 -48q57 -2 106 26zM334 841l103 103q22 21 48 2q18 -21 2 -44l-104 -101q-24 -22 -47 -2q-10 8 -10 21t8 21z" />
    <glyph glyph-name="cacute" unicode="&#x107;" horiz-adv-x="627" 
d="M572 710q19 -8 20.5 -26.5t-13 -31t-33.5 -4.5q-59 25 -125 25q-134 0 -221 -89.5t-87 -222.5q1 -81 34.5 -150t106 -114.5t170.5 -45.5q60 0 122 24q19 8 33.5 -4t13 -30.5t-20.5 -26.5q-72 -29 -148 -29q-90 0 -163 32t-118.5 85t-70 119t-24.5 138q0 73 23.5 140
t69 121t119 86.5t164.5 32.5q76 0 148 -29zM526 214q18 9 33.5 -1.5t15 -27.5t-17.5 -29q-63 -37 -136 -35q-96 2 -163 67.5t-67 172.5q0 75 34.5 131.5t87.5 83.5t118.5 26t125.5 -35q17 -12 17.5 -29t-15 -27.5t-33.5 -0.5q-43 24 -91 25.5t-87 -17t-65 -60t-26 -97.5
q0 -79 47.5 -125t115.5 -48q57 -2 106 26zM334 841l103 103q22 21 48 2q18 -21 2 -44l-104 -101q-24 -22 -47 -2q-10 8 -10 21t8 21z" />
    <glyph glyph-name="Ccircumflex" unicode="&#x108;" horiz-adv-x="627" 
d="M572 710q-72 29 -148 29q-91 0 -164.5 -32.5t-119 -86.5t-69 -121t-23.5 -140q0 -72 24.5 -138t70 -119t118.5 -85t163 -32q76 0 148 29q19 8 20.5 26.5t-13 30.5t-33.5 4q-62 -24 -122 -24q-98 0 -170.5 45.5t-106 114.5t-34.5 150q0 133 87 222.5t221 89.5
q66 0 125 -25q19 -8 33.5 4.5t13 31t-20.5 26.5zM526 214q-49 -28 -106 -26q-68 2 -115.5 48t-47.5 125q0 56 26 97.5t65 60t87 17t91 -25.5q18 -10 33.5 0.5t15 27.5t-17.5 29q-60 34 -125.5 35t-118.5 -26t-87.5 -83.5t-34.5 -131.5q0 -107 67 -172.5t163 -67.5
q73 -2 136 35q17 12 17.5 29t-15 27.5t-33.5 1.5zM494 804l-92 74l-89 -74q-12 -9 -24.5 -7.5t-20.5 11.5t-7 22.5t11 20.5l111 91q20 18 40 0l111 -91q10 -8 11 -20.5t-7 -22.5q-9 -10 -21.5 -11.5t-22.5 7.5z" />
    <glyph glyph-name="ccircumflex" unicode="&#x109;" horiz-adv-x="627" 
d="M572 710q-72 29 -148 29q-91 0 -164.5 -32.5t-119 -86.5t-69 -121t-23.5 -140q0 -72 24.5 -138t70 -119t118.5 -85t163 -32q76 0 148 29q19 8 20.5 26.5t-13 30.5t-33.5 4q-62 -24 -122 -24q-98 0 -170.5 45.5t-106 114.5t-34.5 150q0 133 87 222.5t221 89.5
q66 0 125 -25q19 -8 33.5 4.5t13 31t-20.5 26.5zM526 214q-49 -28 -106 -26q-68 2 -115.5 48t-47.5 125q0 56 26 97.5t65 60t87 17t91 -25.5q18 -10 33.5 0.5t15 27.5t-17.5 29q-60 34 -125.5 35t-118.5 -26t-87.5 -83.5t-34.5 -131.5q0 -107 67 -172.5t163 -67.5
q73 -2 136 35q17 12 17.5 29t-15 27.5t-33.5 1.5zM494 804l-92 74l-89 -74q-12 -9 -24.5 -7.5t-20.5 11.5t-7 22.5t11 20.5l111 91q20 18 40 0l111 -91q10 -8 11 -20.5t-7 -22.5q-9 -10 -21.5 -11.5t-22.5 7.5z" />
    <glyph glyph-name="Cdotaccent" unicode="&#x10a;" horiz-adv-x="627" 
d="M572 710q19 -8 20.5 -26.5t-13 -31t-33.5 -4.5q-59 25 -125 25q-134 0 -221 -89.5t-87 -222.5q1 -81 34.5 -150t106 -114.5t170.5 -45.5q60 0 122 24q19 8 33.5 -4t13 -30.5t-20.5 -26.5q-72 -29 -148 -29q-90 0 -163 32t-118.5 85t-70 119t-24.5 138q0 73 23.5 140
t69 121t119 86.5t164.5 32.5q76 0 148 -29zM526 214q18 9 33.5 -1.5t15 -27.5t-17.5 -29q-63 -37 -136 -35q-96 2 -163 67.5t-67 172.5q0 75 34.5 131.5t87.5 83.5t118.5 26t125.5 -35q17 -12 17.5 -29t-15 -27.5t-33.5 -0.5q-43 24 -91 25.5t-87 -17t-65 -60t-26 -97.5
q0 -79 47.5 -125t115.5 -48q57 -2 106 26zM411 973q47 0 77.5 -27.5t30.5 -69.5q0 -40 -30.5 -68t-77.5 -28q-46 0 -77.5 27.5t-31.5 68.5t31.5 69t77.5 28zM411 919q-21 0 -35 -12t-14 -31t14 -30.5t35 -11.5q22 0 35.5 12t13.5 30q0 20 -13.5 31.5t-35.5 11.5z" />
    <glyph glyph-name="cdotaccent" unicode="&#x10b;" horiz-adv-x="627" 
d="M572 710q19 -8 20.5 -26.5t-13 -31t-33.5 -4.5q-59 25 -125 25q-134 0 -221 -89.5t-87 -222.5q1 -81 34.5 -150t106 -114.5t170.5 -45.5q60 0 122 24q19 8 33.5 -4t13 -30.5t-20.5 -26.5q-72 -29 -148 -29q-90 0 -163 32t-118.5 85t-70 119t-24.5 138q0 73 23.5 140
t69 121t119 86.5t164.5 32.5q76 0 148 -29zM526 214q18 9 33.5 -1.5t15 -27.5t-17.5 -29q-63 -37 -136 -35q-96 2 -163 67.5t-67 172.5q0 75 34.5 131.5t87.5 83.5t118.5 26t125.5 -35q17 -12 17.5 -29t-15 -27.5t-33.5 -0.5q-43 24 -91 25.5t-87 -17t-65 -60t-26 -97.5
q0 -79 47.5 -125t115.5 -48q57 -2 106 26zM411 973q47 0 77.5 -27.5t30.5 -69.5q0 -40 -30.5 -68t-77.5 -28q-46 0 -77.5 27.5t-31.5 68.5t31.5 69t77.5 28zM411 919q-21 0 -35 -12t-14 -31t14 -30.5t35 -11.5q22 0 35.5 12t13.5 30q0 20 -13.5 31.5t-35.5 11.5z" />
    <glyph glyph-name="Ccaron" unicode="&#x10c;" horiz-adv-x="627" 
d="M572 710q19 -8 20.5 -26.5t-13 -31t-33.5 -4.5q-59 25 -125 25q-134 0 -221 -89.5t-87 -222.5q1 -81 34.5 -150t106 -114.5t170.5 -45.5q60 0 122 24q19 8 33.5 -4t13 -30.5t-20.5 -26.5q-72 -29 -148 -29q-90 0 -163 32t-118.5 85t-70 119t-24.5 138q0 73 23.5 140
t69 121t119 86.5t164.5 32.5q76 0 148 -29zM526 214q18 9 33.5 -1.5t15 -27.5t-17.5 -29q-63 -37 -136 -35q-96 2 -163 67.5t-67 172.5q0 75 34.5 131.5t87.5 83.5t118.5 26t125.5 -35q17 -12 17.5 -29t-15 -27.5t-33.5 -0.5q-43 24 -91 25.5t-87 -17t-65 -60t-26 -97.5
q0 -79 47.5 -125t115.5 -48q57 -2 106 26zM394 848l91 70q14 11 30.5 4.5t19.5 -21t-10 -27.5l-110 -86q-20 -18 -40 0l-110 86q-9 8 -10 19.5t7 20.5q7 9 19.5 10.5t24.5 -6.5z" />
    <glyph glyph-name="ccaron" unicode="&#x10d;" horiz-adv-x="627" 
d="M572 710q19 -8 20.5 -26.5t-13 -31t-33.5 -4.5q-59 25 -125 25q-134 0 -221 -89.5t-87 -222.5q1 -81 34.5 -150t106 -114.5t170.5 -45.5q60 0 122 24q19 8 33.5 -4t13 -30.5t-20.5 -26.5q-72 -29 -148 -29q-90 0 -163 32t-118.5 85t-70 119t-24.5 138q0 73 23.5 140
t69 121t119 86.5t164.5 32.5q76 0 148 -29zM526 214q18 9 33.5 -1.5t15 -27.5t-17.5 -29q-63 -37 -136 -35q-96 2 -163 67.5t-67 172.5q0 75 34.5 131.5t87.5 83.5t118.5 26t125.5 -35q17 -12 17.5 -29t-15 -27.5t-33.5 -0.5q-43 24 -91 25.5t-87 -17t-65 -60t-26 -97.5
q0 -79 47.5 -125t115.5 -48q57 -2 106 26zM394 848l91 70q14 11 30.5 4.5t19.5 -21t-10 -27.5l-110 -86q-20 -18 -40 0l-110 86q-9 8 -10 19.5t7 20.5q7 9 19.5 10.5t24.5 -6.5z" />
    <glyph glyph-name="Dcaron" unicode="&#x10e;" horiz-adv-x="735" 
d="M313 123h-66q-14 0 -23.5 10t-9.5 24q0 13 10 23t23 10h66q73 0 117.5 47.5t44.5 120.5q0 72 -44.5 119.5t-117.5 47.5h-33v-234q0 -14 -9.5 -24t-23.5 -10t-23.5 10t-9.5 24v267q0 14 9.5 24t23.5 10h66q101 0 164.5 -67t63.5 -167q0 -101 -63.5 -168t-164.5 -67z
M147 23q0 -14 -10 -23.5t-24 -9.5q-13 0 -23 10t-10 23v669q0 14 10 23.5t23 9.5h200q162 0 265 -104t103 -263q0 -160 -103 -264t-265 -104h-67q-14 0 -23.5 10t-9.5 23q0 14 9.5 24t23.5 10h67q134 0 217.5 84.5t83.5 216.5q0 131 -84 215.5t-217 84.5h-166v-635zM300 848
l92 74q14 12 30.5 5t19.5 -22.5t-10 -29.5l-111 -91q-20 -18 -40 0l-111 91q-10 8 -11 20.5t7 22.5t20.5 11.5t24.5 -7.5z" />
    <glyph glyph-name="dcaron" unicode="&#x10f;" horiz-adv-x="735" 
d="M313 123h-66q-14 0 -23.5 10t-9.5 24q0 13 10 23t23 10h66q73 0 117.5 47.5t44.5 120.5q0 72 -44.5 119.5t-117.5 47.5h-33v-234q0 -14 -9.5 -24t-23.5 -10t-23.5 10t-9.5 24v267q0 14 9.5 24t23.5 10h66q101 0 164.5 -67t63.5 -167q0 -101 -63.5 -168t-164.5 -67z
M147 23q0 -14 -10 -23.5t-24 -9.5q-13 0 -23 10t-10 23v669q0 14 10 23.5t23 9.5h200q162 0 265 -104t103 -263q0 -160 -103 -264t-265 -104h-67q-14 0 -23.5 10t-9.5 23q0 14 9.5 24t23.5 10h67q134 0 217.5 84.5t83.5 216.5q0 131 -84 215.5t-217 84.5h-166v-635zM300 848
l92 74q14 12 30.5 5t19.5 -22.5t-10 -29.5l-111 -91q-20 -18 -40 0l-111 91q-10 8 -11 20.5t7 22.5t20.5 11.5t24.5 -7.5z" />
    <glyph glyph-name="Dcroat" unicode="&#x110;" horiz-adv-x="735" 
d="M147 658v-635q0 -14 -10 -23.5t-24 -9.5q-13 0 -23 10t-10 23v289h-45q-21 0 -29.5 17t0 33.5t29.5 16.5h45v313q0 14 10 23.5t23 9.5h200q162 0 265 -104t103 -263q0 -160 -103 -264t-265 -104h-67q-14 0 -23.5 10t-9.5 23q0 14 9.5 24t23.5 10h67q134 0 217.5 84.5
t83.5 216.5q0 131 -84 215.5t-217 84.5h-166zM313 123h-66q-14 0 -23.5 10t-9.5 24q0 13 10 23t23 10h66q73 0 117.5 47.5t44.5 120.5q0 72 -44.5 119.5t-117.5 47.5h-33v-146h80q21 0 29.5 -16.5t0 -33.5t-29.5 -17h-113q-14 0 -23.5 10t-9.5 24v212q0 14 9.5 24t23.5 10
h66q101 0 164.5 -67t63.5 -167q0 -101 -63.5 -168t-164.5 -67z" />
    <glyph glyph-name="dcroat" unicode="&#x111;" horiz-adv-x="735" 
d="M147 658v-635q0 -14 -10 -23.5t-24 -9.5q-13 0 -23 10t-10 23v289h-45q-21 0 -29.5 17t0 33.5t29.5 16.5h45v313q0 14 10 23.5t23 9.5h200q162 0 265 -104t103 -263q0 -160 -103 -264t-265 -104h-67q-14 0 -23.5 10t-9.5 23q0 14 9.5 24t23.5 10h67q134 0 217.5 84.5
t83.5 216.5q0 131 -84 215.5t-217 84.5h-166zM313 123h-66q-14 0 -23.5 10t-9.5 24q0 13 10 23t23 10h66q73 0 117.5 47.5t44.5 120.5q0 72 -44.5 119.5t-117.5 47.5h-33v-146h80q21 0 29.5 -16.5t0 -33.5t-29.5 -17h-113q-14 0 -23.5 10t-9.5 24v212q0 14 9.5 24t23.5 10
h66q101 0 164.5 -67t63.5 -167q0 -101 -63.5 -168t-164.5 -67z" />
    <glyph glyph-name="Emacron" unicode="&#x112;" horiz-adv-x="547" 
d="M459 591q14 0 24 -9.5t10 -23.5t-10 -23.5t-24 -9.5h-179v-67h117q14 0 24 -10t10 -24t-10 -23.5t-24 -9.5h-150q-14 0 -24 9.5t-10 23.5v134q0 14 10 23.5t24 9.5h212zM397 324q14 0 24 -9.5t10 -23.5t-10 -24t-24 -10h-117v-66h179q14 0 24 -10t10 -24t-10 -23.5
t-24 -9.5h-212q-14 0 -24 9.5t-10 23.5v134q0 14 10 23.5t24 9.5h150zM459 57q14 0 24 -10t10 -24t-10 -23.5t-24 -9.5h-346q-13 0 -23 10t-10 23v669q0 14 10 23.5t23 9.5h346q14 0 24 -9.5t10 -23.5t-10 -24t-24 -10h-312v-601h312zM382 792h-193q-21 0 -29.5 17t0 33.5
t29.5 16.5h193q21 0 29.5 -16.5t0 -33.5t-29.5 -17z" />
    <glyph glyph-name="emacron" unicode="&#x113;" horiz-adv-x="547" 
d="M459 591q14 0 24 -9.5t10 -23.5t-10 -23.5t-24 -9.5h-179v-67h117q14 0 24 -10t10 -24t-10 -23.5t-24 -9.5h-150q-14 0 -24 9.5t-10 23.5v134q0 14 10 23.5t24 9.5h212zM397 324q14 0 24 -9.5t10 -23.5t-10 -24t-24 -10h-117v-66h179q14 0 24 -10t10 -24t-10 -23.5
t-24 -9.5h-212q-14 0 -24 9.5t-10 23.5v134q0 14 10 23.5t24 9.5h150zM459 57q14 0 24 -10t10 -24t-10 -23.5t-24 -9.5h-346q-13 0 -23 10t-10 23v669q0 14 10 23.5t23 9.5h346q14 0 24 -9.5t10 -23.5t-10 -24t-24 -10h-312v-601h312zM382 792h-193q-21 0 -29.5 17t0 33.5
t29.5 16.5h193q21 0 29.5 -16.5t0 -33.5t-29.5 -17z" />
    <glyph glyph-name="Ebreve" unicode="&#x114;" horiz-adv-x="547" 
d="M459 591q14 0 24 -9.5t10 -23.5t-10 -23.5t-24 -9.5h-179v-67h117q14 0 24 -10t10 -24t-10 -23.5t-24 -9.5h-150q-14 0 -24 9.5t-10 23.5v134q0 14 10 23.5t24 9.5h212zM397 324q14 0 24 -9.5t10 -23.5t-10 -24t-24 -10h-117v-66h179q14 0 24 -10t10 -24t-10 -23.5
t-24 -9.5h-212q-14 0 -24 9.5t-10 23.5v134q0 14 10 23.5t24 9.5h150zM459 57q14 0 24 -10t10 -24t-10 -23.5t-24 -9.5h-346q-13 0 -23 10t-10 23v669q0 14 10 23.5t23 9.5h346q14 0 24 -9.5t10 -23.5t-10 -24t-24 -10h-312v-601h312zM220 879q0 -52 69 -52q68 0 68 52
q0 16 16.5 22.5t32.5 0t16 -22.5q0 -51 -37 -80.5t-96 -29.5t-96 29t-37 81q0 16 16 23.5t32 1t16 -24.5z" />
    <glyph glyph-name="ebreve" unicode="&#x115;" horiz-adv-x="547" 
d="M459 591q14 0 24 -9.5t10 -23.5t-10 -23.5t-24 -9.5h-179v-67h117q14 0 24 -10t10 -24t-10 -23.5t-24 -9.5h-150q-14 0 -24 9.5t-10 23.5v134q0 14 10 23.5t24 9.5h212zM397 324q14 0 24 -9.5t10 -23.5t-10 -24t-24 -10h-117v-66h179q14 0 24 -10t10 -24t-10 -23.5
t-24 -9.5h-212q-14 0 -24 9.5t-10 23.5v134q0 14 10 23.5t24 9.5h150zM459 57q14 0 24 -10t10 -24t-10 -23.5t-24 -9.5h-346q-13 0 -23 10t-10 23v669q0 14 10 23.5t23 9.5h346q14 0 24 -9.5t10 -23.5t-10 -24t-24 -10h-312v-601h312zM220 879q0 -52 69 -52q68 0 68 52
q0 16 16.5 22.5t32.5 0t16 -22.5q0 -51 -37 -80.5t-96 -29.5t-96 29t-37 81q0 16 16 23.5t32 1t16 -24.5z" />
    <glyph glyph-name="Edotaccent" unicode="&#x116;" horiz-adv-x="547" 
d="M459 591q14 0 24 -9.5t10 -23.5t-10 -23.5t-24 -9.5h-179v-67h117q14 0 24 -10t10 -24t-10 -23.5t-24 -9.5h-150q-14 0 -24 9.5t-10 23.5v134q0 14 10 23.5t24 9.5h212zM397 324q14 0 24 -9.5t10 -23.5t-10 -24t-24 -10h-117v-66h179q14 0 24 -10t10 -24t-10 -23.5
t-24 -9.5h-212q-14 0 -24 9.5t-10 23.5v134q0 14 10 23.5t24 9.5h150zM459 57q14 0 24 -10t10 -24t-10 -23.5t-24 -9.5h-346q-13 0 -23 10t-10 23v669q0 14 10 23.5t23 9.5h346q14 0 24 -9.5t10 -23.5t-10 -24t-24 -10h-312v-601h312zM289 954q46 0 76 -27t30 -67
q0 -39 -30 -66t-76 -27t-76.5 27t-30.5 66q0 40 30.5 67t76.5 27zM289 901q-21 0 -34.5 -11t-13.5 -30t13.5 -30t34.5 -11q22 0 35 11.5t13 29.5q0 19 -13 30t-35 11z" />
    <glyph glyph-name="edotaccent" unicode="&#x117;" horiz-adv-x="547" 
d="M459 591q14 0 24 -9.5t10 -23.5t-10 -23.5t-24 -9.5h-179v-67h117q14 0 24 -10t10 -24t-10 -23.5t-24 -9.5h-150q-14 0 -24 9.5t-10 23.5v134q0 14 10 23.5t24 9.5h212zM397 324q14 0 24 -9.5t10 -23.5t-10 -24t-24 -10h-117v-66h179q14 0 24 -10t10 -24t-10 -23.5
t-24 -9.5h-212q-14 0 -24 9.5t-10 23.5v134q0 14 10 23.5t24 9.5h150zM459 57q14 0 24 -10t10 -24t-10 -23.5t-24 -9.5h-346q-13 0 -23 10t-10 23v669q0 14 10 23.5t23 9.5h346q14 0 24 -9.5t10 -23.5t-10 -24t-24 -10h-312v-601h312zM289 954q46 0 76 -27t30 -67
q0 -39 -30 -66t-76 -27t-76.5 27t-30.5 66q0 40 30.5 67t76.5 27zM289 901q-21 0 -34.5 -11t-13.5 -30t13.5 -30t34.5 -11q22 0 35 11.5t13 29.5q0 19 -13 30t-35 11z" />
    <glyph glyph-name="Eogonek" unicode="&#x118;" horiz-adv-x="547" 
d="M147 57h312q14 0 24 -10t10 -24q0 -17 -16 -28q-92 -89 -94 -147q0 -31 21 -35q25 -3 51 6q11 5 23 -0.5t15 -18.5q11 -28 -19 -40q-42 -15 -82 -9q-72 16 -72 95q0 67 66 144h-273q-13 0 -23 10t-10 23v669q0 14 10 23.5t23 9.5h346q14 0 24 -9.5t10 -23.5t-10 -24
t-24 -10h-312v-601zM247 324h150q14 0 24 -9.5t10 -23.5t-10 -24t-24 -10h-117v-66h179q14 0 24 -10t10 -24t-10 -23.5t-24 -9.5h-212q-14 0 -24 9.5t-10 23.5v134q0 14 10 23.5t24 9.5zM247 591h212q14 0 24 -9.5t10 -23.5t-10 -23.5t-24 -9.5h-179v-67h117q14 0 24 -10
t10 -24t-10 -23.5t-24 -9.5h-150q-14 0 -24 9.5t-10 23.5v134q0 14 10 23.5t24 9.5z" />
    <glyph glyph-name="eogonek" unicode="&#x119;" horiz-adv-x="547" 
d="M147 57h312q14 0 24 -10t10 -24q0 -17 -16 -28q-92 -89 -94 -147q0 -31 21 -35q25 -3 51 6q11 5 23 -0.5t15 -18.5q11 -28 -19 -40q-42 -15 -82 -9q-72 16 -72 95q0 67 66 144h-273q-13 0 -23 10t-10 23v669q0 14 10 23.5t23 9.5h346q14 0 24 -9.5t10 -23.5t-10 -24
t-24 -10h-312v-601zM247 324h150q14 0 24 -9.5t10 -23.5t-10 -24t-24 -10h-117v-66h179q14 0 24 -10t10 -24t-10 -23.5t-24 -9.5h-212q-14 0 -24 9.5t-10 23.5v134q0 14 10 23.5t24 9.5zM247 591h212q14 0 24 -9.5t10 -23.5t-10 -23.5t-24 -9.5h-179v-67h117q14 0 24 -10
t10 -24t-10 -23.5t-24 -9.5h-150q-14 0 -24 9.5t-10 23.5v134q0 14 10 23.5t24 9.5z" />
    <glyph glyph-name="Ecaron" unicode="&#x11a;" horiz-adv-x="547" 
d="M459 591q14 0 24 -9.5t10 -23.5t-10 -23.5t-24 -9.5h-179v-67h117q14 0 24 -10t10 -24t-10 -23.5t-24 -9.5h-150q-14 0 -24 9.5t-10 23.5v134q0 14 10 23.5t24 9.5h212zM397 324q14 0 24 -9.5t10 -23.5t-10 -24t-24 -10h-117v-66h179q14 0 24 -10t10 -24t-10 -23.5
t-24 -9.5h-212q-14 0 -24 9.5t-10 23.5v134q0 14 10 23.5t24 9.5h150zM459 57q14 0 24 -10t10 -24t-10 -23.5t-24 -9.5h-346q-13 0 -23 10t-10 23v669q0 14 10 23.5t23 9.5h346q14 0 24 -9.5t10 -23.5t-10 -24t-24 -10h-312v-601h312zM296 837l91 70q13 12 29 5t19.5 -22
t-9.5 -28l-109 -87q-20 -16 -40 0l-109 87q-23 20 -4 41q8 10 20.5 11.5t23.5 -7.5z" />
    <glyph glyph-name="ecaron" unicode="&#x11b;" horiz-adv-x="547" 
d="M459 591q14 0 24 -9.5t10 -23.5t-10 -23.5t-24 -9.5h-179v-67h117q14 0 24 -10t10 -24t-10 -23.5t-24 -9.5h-150q-14 0 -24 9.5t-10 23.5v134q0 14 10 23.5t24 9.5h212zM397 324q14 0 24 -9.5t10 -23.5t-10 -24t-24 -10h-117v-66h179q14 0 24 -10t10 -24t-10 -23.5
t-24 -9.5h-212q-14 0 -24 9.5t-10 23.5v134q0 14 10 23.5t24 9.5h150zM459 57q14 0 24 -10t10 -24t-10 -23.5t-24 -9.5h-346q-13 0 -23 10t-10 23v669q0 14 10 23.5t23 9.5h346q14 0 24 -9.5t10 -23.5t-10 -24t-24 -10h-312v-601h312zM296 837l91 70q13 12 29 5t19.5 -22
t-9.5 -28l-109 -87q-20 -16 -40 0l-109 87q-23 20 -4 41q8 10 20.5 11.5t23.5 -7.5z" />
    <glyph glyph-name="Gcircumflex" unicode="&#x11c;" horiz-adv-x="708" 
d="M631 62v296q0 21 -16.5 29.5t-33.5 0t-17 -29.5v-276q-57 -28 -120 -33t-120.5 14.5t-104 57t-75 98t-29.5 133.5q-1 70 23 129.5t67 99t101 63.5t124.5 23.5t137.5 -21.5q14 -4 25 -1t16 12t6 19t-6 19.5t-21 13.5q-105 36 -203 22t-173.5 -60.5t-120.5 -131t-43 -188.5
q2 -110 55.5 -196.5t134.5 -129t182 -43t193 50.5q18 10 18 29zM578 571q-69 29 -155 26q-76 -3 -130.5 -39.5t-78.5 -89.5t-23 -114t26.5 -113.5t79.5 -87t127 -34.5q71 0 71 37v202q0 21 -17 29.5t-34 0t-17 -29.5v-171q-46 0 -82.5 18t-55.5 48t-28 66t-1 72.5t26.5 67
t55 50.5t83.5 22q73 2 126 -22q19 -8 33.5 4t13.5 30.5t-20 27.5zM486 794l-92 74l-89 -74q-12 -9 -24.5 -7.5t-20.5 11.5t-7 22.5t11 20.5l111 91q20 18 40 0l111 -91q10 -8 11 -20.5t-7 -22.5q-9 -10 -21.5 -11.5t-22.5 7.5z" />
    <glyph glyph-name="gcircumflex" unicode="&#x11d;" horiz-adv-x="708" 
d="M631 62v296q0 21 -16.5 29.5t-33.5 0t-17 -29.5v-276q-57 -28 -120 -33t-120.5 14.5t-104 57t-75 98t-29.5 133.5q-1 70 23 129.5t67 99t101 63.5t124.5 23.5t137.5 -21.5q14 -4 25 -1t16 12t6 19t-6 19.5t-21 13.5q-105 36 -203 22t-173.5 -60.5t-120.5 -131t-43 -188.5
q2 -110 55.5 -196.5t134.5 -129t182 -43t193 50.5q18 10 18 29zM578 571q-69 29 -155 26q-76 -3 -130.5 -39.5t-78.5 -89.5t-23 -114t26.5 -113.5t79.5 -87t127 -34.5q71 0 71 37v202q0 21 -17 29.5t-34 0t-17 -29.5v-171q-46 0 -82.5 18t-55.5 48t-28 66t-1 72.5t26.5 67
t55 50.5t83.5 22q73 2 126 -22q19 -8 33.5 4t13.5 30.5t-20 27.5zM486 794l-92 74l-89 -74q-12 -9 -24.5 -7.5t-20.5 11.5t-7 22.5t11 20.5l111 91q20 18 40 0l111 -91q10 -8 11 -20.5t-7 -22.5q-9 -10 -21.5 -11.5t-22.5 7.5z" />
    <glyph glyph-name="Gbreve" unicode="&#x11e;" horiz-adv-x="708" 
d="M631 62q0 -19 -18 -29q-92 -51 -193 -50.5t-182 43t-134.5 129t-55.5 196.5q-2 104 43 188.5t120.5 131t173.5 60.5t203 -22q14 -4 21 -13.5t6 -19.5t-6 -19t-16 -12t-25 1q-71 21 -137.5 21.5t-124.5 -23.5t-101 -63.5t-67 -99t-23 -129.5q1 -73 29.5 -133.5t75 -98
t104 -57t120.5 -14.5t120 33v276q0 21 17 29.5t33.5 0t16.5 -29.5v-296zM578 571q19 -9 20 -27.5t-13.5 -30.5t-33.5 -4q-53 24 -126 22q-47 -2 -83.5 -22t-55 -50.5t-26.5 -67t1 -72.5t28 -66t55.5 -48t82.5 -18v171q0 21 17 29.5t34 0t17 -29.5v-202q0 -37 -71 -37
q-73 0 -127 34.5t-79.5 87t-26.5 113.5t23 114t78.5 89.5t130.5 39.5q86 3 155 -26zM340 901q0 -28 18 -42.5t49 -14.5q66 0 66 57q0 13 10 21t21.5 8t21.5 -7.5t10 -21.5q0 -57 -35.5 -89t-93.5 -32q-57 0 -93.5 32t-36.5 89q0 18 15.5 26t31.5 1t16 -27z" />
    <glyph glyph-name="gbreve" unicode="&#x11f;" horiz-adv-x="708" 
d="M631 62q0 -19 -18 -29q-92 -51 -193 -50.5t-182 43t-134.5 129t-55.5 196.5q-2 104 43 188.5t120.5 131t173.5 60.5t203 -22q14 -4 21 -13.5t6 -19.5t-6 -19t-16 -12t-25 1q-71 21 -137.5 21.5t-124.5 -23.5t-101 -63.5t-67 -99t-23 -129.5q1 -73 29.5 -133.5t75 -98
t104 -57t120.5 -14.5t120 33v276q0 21 17 29.5t33.5 0t16.5 -29.5v-296zM578 571q19 -9 20 -27.5t-13.5 -30.5t-33.5 -4q-53 24 -126 22q-47 -2 -83.5 -22t-55 -50.5t-26.5 -67t1 -72.5t28 -66t55.5 -48t82.5 -18v171q0 21 17 29.5t34 0t17 -29.5v-202q0 -37 -71 -37
q-73 0 -127 34.5t-79.5 87t-26.5 113.5t23 114t78.5 89.5t130.5 39.5q86 3 155 -26zM340 901q0 -28 18 -42.5t49 -14.5q66 0 66 57q0 13 10 21t21.5 8t21.5 -7.5t10 -21.5q0 -57 -35.5 -89t-93.5 -32q-57 0 -93.5 32t-36.5 89q0 18 15.5 26t31.5 1t16 -27z" />
    <glyph glyph-name="Gdotaccent" unicode="&#x120;" horiz-adv-x="708" 
d="M631 62q0 -19 -18 -29q-92 -51 -193 -50.5t-182 43t-134.5 129t-55.5 196.5q-2 104 43 188.5t120.5 131t173.5 60.5t203 -22q14 -4 21 -13.5t6 -19.5t-6 -19t-16 -12t-25 1q-71 21 -137.5 21.5t-124.5 -23.5t-101 -63.5t-67 -99t-23 -129.5q1 -73 29.5 -133.5t75 -98
t104 -57t120.5 -14.5t120 33v276q0 21 17 29.5t33.5 0t16.5 -29.5v-296zM578 571q19 -9 20 -27.5t-13.5 -30.5t-33.5 -4q-53 24 -126 22q-47 -2 -83.5 -22t-55 -50.5t-26.5 -67t1 -72.5t28 -66t55.5 -48t82.5 -18v171q0 21 17 29.5t34 0t17 -29.5v-202q0 -37 -71 -37
q-73 0 -127 34.5t-79.5 87t-26.5 113.5t23 114t78.5 89.5t130.5 39.5q86 3 155 -26zM409 962q44 0 72.5 -27t28.5 -68q0 -40 -28.5 -68t-72.5 -28q-43 0 -72.5 27.5t-29.5 68.5t29.5 68t72.5 27zM409 909q-20 0 -33 -11.5t-13 -30.5t12.5 -30.5t33.5 -11.5t33.5 11.5
t12.5 30.5t-12.5 30.5t-33.5 11.5z" />
    <glyph glyph-name="gdotaccent" unicode="&#x121;" horiz-adv-x="708" 
d="M631 62q0 -19 -18 -29q-92 -51 -193 -50.5t-182 43t-134.5 129t-55.5 196.5q-2 104 43 188.5t120.5 131t173.5 60.5t203 -22q14 -4 21 -13.5t6 -19.5t-6 -19t-16 -12t-25 1q-71 21 -137.5 21.5t-124.5 -23.5t-101 -63.5t-67 -99t-23 -129.5q1 -73 29.5 -133.5t75 -98
t104 -57t120.5 -14.5t120 33v276q0 21 17 29.5t33.5 0t16.5 -29.5v-296zM578 571q19 -9 20 -27.5t-13.5 -30.5t-33.5 -4q-53 24 -126 22q-47 -2 -83.5 -22t-55 -50.5t-26.5 -67t1 -72.5t28 -66t55.5 -48t82.5 -18v171q0 21 17 29.5t34 0t17 -29.5v-202q0 -37 -71 -37
q-73 0 -127 34.5t-79.5 87t-26.5 113.5t23 114t78.5 89.5t130.5 39.5q86 3 155 -26zM409 962q44 0 72.5 -27t28.5 -68q0 -40 -28.5 -68t-72.5 -28q-43 0 -72.5 27.5t-29.5 68.5t29.5 68t72.5 27zM409 909q-20 0 -33 -11.5t-13 -30.5t12.5 -30.5t33.5 -11.5t33.5 11.5
t12.5 30.5t-12.5 30.5t-33.5 11.5z" />
    <glyph glyph-name="uni0122" unicode="&#x122;" horiz-adv-x="708" 
d="M321 -224l52 125q12 17 29 18t28.5 -15t2.5 -34l-52 -124q-12 -17 -29 -18t-28.5 14.5t-2.5 33.5zM631 62q0 -19 -18 -29q-92 -51 -193 -50.5t-182 43t-134.5 129t-55.5 196.5q-2 104 43 188.5t120.5 131t173.5 60.5t203 -22q14 -4 21 -13.5t6 -19.5t-6 -19t-16 -12
t-25 1q-71 21 -137.5 21.5t-124.5 -23.5t-101 -63.5t-67 -99t-23 -129.5q1 -73 29.5 -133.5t75 -98t104 -57t120.5 -14.5t120 33v276q0 21 17 29.5t33.5 0t16.5 -29.5v-296zM578 571q19 -9 20 -27.5t-13.5 -30.5t-33.5 -4q-53 24 -126 22q-47 -2 -83.5 -22t-55 -50.5
t-26.5 -67t1 -72.5t28 -66t55.5 -48t82.5 -18v171q0 21 17 29.5t34 0t17 -29.5v-202q0 -37 -71 -37q-73 0 -127 34.5t-79.5 87t-26.5 113.5t23 114t78.5 89.5t130.5 39.5q86 3 155 -26z" />
    <glyph glyph-name="uni0123" unicode="&#x123;" horiz-adv-x="708" 
d="M321 -224l52 125q12 17 29 18t28.5 -15t2.5 -34l-52 -124q-12 -17 -29 -18t-28.5 14.5t-2.5 33.5zM631 62q0 -19 -18 -29q-92 -51 -193 -50.5t-182 43t-134.5 129t-55.5 196.5q-2 104 43 188.5t120.5 131t173.5 60.5t203 -22q14 -4 21 -13.5t6 -19.5t-6 -19t-16 -12
t-25 1q-71 21 -137.5 21.5t-124.5 -23.5t-101 -63.5t-67 -99t-23 -129.5q1 -73 29.5 -133.5t75 -98t104 -57t120.5 -14.5t120 33v276q0 21 17 29.5t33.5 0t16.5 -29.5v-296zM578 571q19 -9 20 -27.5t-13.5 -30.5t-33.5 -4q-53 24 -126 22q-47 -2 -83.5 -22t-55 -50.5
t-26.5 -67t1 -72.5t28 -66t55.5 -48t82.5 -18v171q0 21 17 29.5t34 0t17 -29.5v-202q0 -37 -71 -37q-73 0 -127 34.5t-79.5 87t-26.5 113.5t23 114t78.5 89.5t130.5 39.5q86 3 155 -26z" />
    <glyph glyph-name="Hcircumflex" unicode="&#x124;" horiz-adv-x="696" 
d="M214 692v-268q0 -14 10 -23.5t23 -9.5h201q14 0 23.5 9.5t9.5 23.5v268q0 14 -9.5 23.5t-23.5 9.5t-24 -9.5t-10 -23.5v-234h-133v234q0 14 -10 23.5t-24 9.5q-13 0 -23 -9.5t-10 -23.5zM481 23v268q0 13 -9.5 23t-23.5 10h-201q-13 0 -23 -10t-10 -23v-268q0 -13 10 -23
t23 -10q14 0 24 9.5t10 23.5v234h133v-234q0 -14 10 -23.5t24 -9.5t23.5 10t9.5 23zM147 23v669q0 14 -9.5 23.5t-23.5 9.5t-24 -9.5t-10 -23.5v-669q0 -14 10 -23.5t24 -9.5t23.5 10t9.5 23zM548 692v-669q0 -13 10 -23t23 -10q14 0 24 9.5t10 23.5v669q0 14 -10 23.5
t-24 9.5q-13 0 -23 -9.5t-10 -23.5zM439 781l-92 74l-89 -74q-12 -9 -24.5 -7.5t-20.5 11.5t-7 22.5t11 20.5l111 91q20 18 40 0l111 -91q10 -8 11 -20.5t-7 -22.5q-9 -10 -21.5 -11.5t-22.5 7.5z" />
    <glyph glyph-name="hcircumflex" unicode="&#x125;" horiz-adv-x="696" 
d="M214 692v-268q0 -14 10 -23.5t23 -9.5h201q14 0 23.5 9.5t9.5 23.5v268q0 14 -9.5 23.5t-23.5 9.5t-24 -9.5t-10 -23.5v-234h-133v234q0 14 -10 23.5t-24 9.5q-13 0 -23 -9.5t-10 -23.5zM481 23v268q0 13 -9.5 23t-23.5 10h-201q-13 0 -23 -10t-10 -23v-268q0 -13 10 -23
t23 -10q14 0 24 9.5t10 23.5v234h133v-234q0 -14 10 -23.5t24 -9.5t23.5 10t9.5 23zM147 23v669q0 14 -9.5 23.5t-23.5 9.5t-24 -9.5t-10 -23.5v-669q0 -14 10 -23.5t24 -9.5t23.5 10t9.5 23zM548 692v-669q0 -13 10 -23t23 -10q14 0 24 9.5t10 23.5v669q0 14 -10 23.5
t-24 9.5q-13 0 -23 -9.5t-10 -23.5zM439 781l-92 74l-89 -74q-12 -9 -24.5 -7.5t-20.5 11.5t-7 22.5t11 20.5l111 91q20 18 40 0l111 -91q10 -8 11 -20.5t-7 -22.5q-9 -10 -21.5 -11.5t-22.5 7.5z" />
    <glyph glyph-name="Hbar" unicode="&#x126;" horiz-adv-x="696" 
d="M214 424v268q0 14 10 23.5t23 9.5q14 0 24 -9.5t10 -23.5v-90h133v90q0 14 10 23.5t24 9.5t23.5 -9.5t9.5 -23.5v-268q0 -14 -9.5 -23.5t-23.5 -9.5h-201q-13 0 -23 9.5t-10 23.5zM548 23v669q0 14 10 23.5t23 9.5q14 0 24 -9.5t10 -23.5v-90h61q20 0 28.5 -15.5t0 -31
t-28.5 -15.5h-61v-517q0 -14 -10 -23.5t-24 -9.5q-13 0 -23 10t-10 23zM147 692v-669q0 -13 -9.5 -23t-23.5 -10t-24 9.5t-10 23.5v517h-53q-20 0 -28.5 15.5t0 31t28.5 15.5h53v90q0 14 10 23.5t24 9.5t23.5 -9.5t9.5 -23.5zM481 291v-268q0 -13 -9.5 -23t-23.5 -10
t-24 9.5t-10 23.5v234h-133v-234q0 -14 -10 -23.5t-24 -9.5q-13 0 -23 10t-10 23v268q0 13 10 23t23 10h201q14 0 23.5 -10t9.5 -23zM281 458h133v82h-133v-82z" />
    <glyph glyph-name="hbar" unicode="&#x127;" horiz-adv-x="696" 
d="M214 424v268q0 14 10 23.5t23 9.5q14 0 24 -9.5t10 -23.5v-90h133v90q0 14 10 23.5t24 9.5t23.5 -9.5t9.5 -23.5v-268q0 -14 -9.5 -23.5t-23.5 -9.5h-201q-13 0 -23 9.5t-10 23.5zM548 23v669q0 14 10 23.5t23 9.5q14 0 24 -9.5t10 -23.5v-90h61q20 0 28.5 -15.5t0 -31
t-28.5 -15.5h-61v-517q0 -14 -10 -23.5t-24 -9.5q-13 0 -23 10t-10 23zM147 692v-669q0 -13 -9.5 -23t-23.5 -10t-24 9.5t-10 23.5v517h-53q-20 0 -28.5 15.5t0 31t28.5 15.5h53v90q0 14 10 23.5t24 9.5t23.5 -9.5t9.5 -23.5zM481 291v-268q0 -13 -9.5 -23t-23.5 -10
t-24 9.5t-10 23.5v234h-133v-234q0 -14 -10 -23.5t-24 -9.5q-13 0 -23 10t-10 23v268q0 13 10 23t23 10h201q14 0 23.5 -10t9.5 -23zM281 458h133v82h-133v-82z" />
    <glyph glyph-name="Itilde" unicode="&#x128;" horiz-adv-x="362" 
d="M281 23q0 -13 -9.5 -23t-23.5 -10t-24 9.5t-10 23.5v669q0 14 10 23.5t24 9.5t23.5 -9.5t9.5 -23.5v-669zM147 23q0 -13 -9.5 -23t-23.5 -10t-24 9.5t-10 23.5v669q0 14 10 23.5t24 9.5t23.5 -9.5t9.5 -23.5v-669zM85 799q-14 -25 -42 -13q-23 13 -11 39q24 43 58 57
t75 -8q12 -6 28.5 -18.5t22.5 -15.5q34 -18 55 24q13 23 41 12q10 -5 13.5 -18t-1.5 -23q-22 -42 -56 -56t-78 7q-10 5 -25.5 17.5t-24.5 17.5q-35 18 -55 -22z" />
    <glyph glyph-name="itilde" unicode="&#x129;" horiz-adv-x="362" 
d="M281 23q0 -13 -9.5 -23t-23.5 -10t-24 9.5t-10 23.5v669q0 14 10 23.5t24 9.5t23.5 -9.5t9.5 -23.5v-669zM147 23q0 -13 -9.5 -23t-23.5 -10t-24 9.5t-10 23.5v669q0 14 10 23.5t24 9.5t23.5 -9.5t9.5 -23.5v-669zM85 799q-14 -25 -42 -13q-23 13 -11 39q24 43 58 57
t75 -8q12 -6 28.5 -18.5t22.5 -15.5q34 -18 55 24q13 23 41 12q10 -5 13.5 -18t-1.5 -23q-22 -42 -56 -56t-78 7q-10 5 -25.5 17.5t-24.5 17.5q-35 18 -55 -22z" />
    <glyph glyph-name="Imacron" unicode="&#x12a;" horiz-adv-x="362" 
d="M281 23q0 -13 -9.5 -23t-23.5 -10t-24 9.5t-10 23.5v669q0 14 10 23.5t24 9.5t23.5 -9.5t9.5 -23.5v-669zM147 23q0 -13 -9.5 -23t-23.5 -10t-24 9.5t-10 23.5v669q0 14 10 23.5t24 9.5t23.5 -9.5t9.5 -23.5v-669zM277 776h-193q-21 0 -29.5 17t0 33.5t29.5 16.5h193
q21 0 29.5 -16.5t0 -33.5t-29.5 -17z" />
    <glyph glyph-name="imacron" unicode="&#x12b;" horiz-adv-x="362" 
d="M281 23q0 -13 -9.5 -23t-23.5 -10t-24 9.5t-10 23.5v669q0 14 10 23.5t24 9.5t23.5 -9.5t9.5 -23.5v-669zM147 23q0 -13 -9.5 -23t-23.5 -10t-24 9.5t-10 23.5v669q0 14 10 23.5t24 9.5t23.5 -9.5t9.5 -23.5v-669zM277 776h-193q-21 0 -29.5 17t0 33.5t29.5 16.5h193
q21 0 29.5 -16.5t0 -33.5t-29.5 -17z" />
    <glyph glyph-name="Ibreve" unicode="&#x12c;" horiz-adv-x="362" 
d="M281 23q0 -13 -9.5 -23t-23.5 -10t-24 9.5t-10 23.5v669q0 14 10 23.5t24 9.5t23.5 -9.5t9.5 -23.5v-669zM147 23q0 -13 -9.5 -23t-23.5 -10t-24 9.5t-10 23.5v669q0 14 10 23.5t24 9.5t23.5 -9.5t9.5 -23.5v-669zM114 890q0 -28 18 -42.5t49 -14.5q66 0 66 57
q0 13 10 21t21.5 8t21.5 -7.5t10 -21.5q0 -57 -35.5 -89t-93.5 -32q-57 0 -93.5 32t-36.5 89q0 18 15.5 26t31.5 1t16 -27z" />
    <glyph glyph-name="ibreve" unicode="&#x12d;" horiz-adv-x="362" 
d="M281 23q0 -13 -9.5 -23t-23.5 -10t-24 9.5t-10 23.5v669q0 14 10 23.5t24 9.5t23.5 -9.5t9.5 -23.5v-669zM147 23q0 -13 -9.5 -23t-23.5 -10t-24 9.5t-10 23.5v669q0 14 10 23.5t24 9.5t23.5 -9.5t9.5 -23.5v-669zM114 890q0 -28 18 -42.5t49 -14.5q66 0 66 57
q0 13 10 21t21.5 8t21.5 -7.5t10 -21.5q0 -57 -35.5 -89t-93.5 -32q-57 0 -93.5 32t-36.5 89q0 18 15.5 26t31.5 1t16 -27z" />
    <glyph glyph-name="Iogonek" unicode="&#x12e;" horiz-adv-x="362" 
d="M281 692v-669q0 -19 -15 -27q-89 -89 -91 -145q0 -31 21 -35q25 -3 51 6q11 5 23 -0.5t15 -18.5q11 -28 -19 -40q-42 -15 -82 -9q-72 16 -72 95q0 80 102 182v661q0 14 10 23.5t24 9.5t23.5 -9.5t9.5 -23.5zM147 692v-669q0 -13 -9.5 -23t-23.5 -10t-24 9.5t-10 23.5v669
q0 14 10 23.5t24 9.5t23.5 -9.5t9.5 -23.5z" />
    <glyph glyph-name="iogonek" unicode="&#x12f;" horiz-adv-x="362" 
d="M281 692v-669q0 -19 -15 -27q-89 -89 -91 -145q0 -31 21 -35q25 -3 51 6q11 5 23 -0.5t15 -18.5q11 -28 -19 -40q-42 -15 -82 -9q-72 16 -72 95q0 80 102 182v661q0 14 10 23.5t24 9.5t23.5 -9.5t9.5 -23.5zM147 692v-669q0 -13 -9.5 -23t-23.5 -10t-24 9.5t-10 23.5v669
q0 14 10 23.5t24 9.5t23.5 -9.5t9.5 -23.5z" />
    <glyph glyph-name="Idotaccent" unicode="&#x130;" horiz-adv-x="362" 
d="M281 23q0 -13 -9.5 -23t-23.5 -10t-24 9.5t-10 23.5v669q0 14 10 23.5t24 9.5t23.5 -9.5t9.5 -23.5v-669zM147 23q0 -13 -9.5 -23t-23.5 -10t-24 9.5t-10 23.5v669q0 14 10 23.5t24 9.5t23.5 -9.5t9.5 -23.5v-669zM180 949q45 0 74.5 -27t29.5 -67q0 -39 -29.5 -66.5
t-74.5 -27.5t-75 27t-30 67t30 67t75 27zM180 897q-21 0 -34.5 -11.5t-13.5 -30.5t13.5 -30t34.5 -11t33.5 11.5t12.5 29.5q0 19 -12.5 30.5t-33.5 11.5z" />
    <glyph glyph-name="dotlessi" unicode="&#x131;" horiz-adv-x="362" 
d="M281 23q0 -13 -9.5 -23t-23.5 -10t-24 9.5t-10 23.5v669q0 14 10 23.5t24 9.5t23.5 -9.5t9.5 -23.5v-669zM147 23q0 -13 -9.5 -23t-23.5 -10t-24 9.5t-10 23.5v669q0 14 10 23.5t24 9.5t23.5 -9.5t9.5 -23.5v-669z" />
    <glyph glyph-name="IJ" unicode="&#x132;" horiz-adv-x="869" 
d="M281 23q0 -13 -9.5 -23t-23.5 -10t-24 9.5t-10 23.5v669q0 14 10 23.5t24 9.5t23.5 -9.5t9.5 -23.5v-669zM147 23q0 -13 -9.5 -23t-23.5 -10t-24 9.5t-10 23.5v669q0 14 10 23.5t24 9.5t23.5 -9.5t9.5 -23.5v-669zM427 -10q-13 0 -23 10t-10 23q0 14 9.5 24t23.5 10h132
q76 -1 120 47t44 120v468q0 14 10 23.5t24 9.5q13 0 23 -9.5t10 -23.5v-468q0 -99 -62.5 -166.5t-168.5 -67.5h-132zM590 224v468q0 14 10 23.5t23 9.5t23 -9.5t10 -23.5v-468q0 -42 -29.5 -71t-71.5 -29h-118q-14 0 -24 9.5t-10 23.5t10 24t24 10h118q15 0 25 9t10 24z" />
    <glyph glyph-name="ij" unicode="&#x133;" horiz-adv-x="869" 
d="M281 23q0 -13 -9.5 -23t-23.5 -10t-24 9.5t-10 23.5v669q0 14 10 23.5t24 9.5t23.5 -9.5t9.5 -23.5v-669zM147 23q0 -13 -9.5 -23t-23.5 -10t-24 9.5t-10 23.5v669q0 14 10 23.5t24 9.5t23.5 -9.5t9.5 -23.5v-669zM427 -10q-13 0 -23 10t-10 23q0 14 9.5 24t23.5 10h132
q76 -1 120 47t44 120v468q0 14 10 23.5t24 9.5q13 0 23 -9.5t10 -23.5v-468q0 -99 -62.5 -166.5t-168.5 -67.5h-132zM590 224v468q0 14 10 23.5t23 9.5t23 -9.5t10 -23.5v-468q0 -42 -29.5 -71t-71.5 -29h-118q-14 0 -24 9.5t-10 23.5t10 24t24 10h118q15 0 25 9t10 24z" />
    <glyph glyph-name="Jcircumflex" unicode="&#x134;" horiz-adv-x="507" 
d="M65 -10h132q106 0 168.5 67.5t62.5 166.5v468q0 14 -10 23.5t-23 9.5q-14 0 -24 -9.5t-10 -23.5v-468q0 -72 -44 -120t-120 -47h-132q-14 0 -23.5 -10t-9.5 -24q0 -13 10 -23t23 -10zM228 224q0 -15 -10 -24t-25 -9h-118q-14 0 -24 -10t-10 -24t10 -23.5t24 -9.5h118
q42 0 71.5 29t29.5 71v468q0 14 -10 23.5t-23 9.5t-23 -9.5t-10 -23.5v-468zM417 767l-92 74l-89 -74q-12 -9 -24.5 -7.5t-20.5 11.5t-7 22.5t11 20.5l111 91q20 18 40 0l111 -91q10 -8 11 -20.5t-7 -22.5q-9 -10 -21.5 -11.5t-22.5 7.5z" />
    <glyph glyph-name="jcircumflex" unicode="&#x135;" horiz-adv-x="507" 
d="M65 -10h132q106 0 168.5 67.5t62.5 166.5v468q0 14 -10 23.5t-23 9.5q-14 0 -24 -9.5t-10 -23.5v-468q0 -72 -44 -120t-120 -47h-132q-14 0 -23.5 -10t-9.5 -24q0 -13 10 -23t23 -10zM228 224q0 -15 -10 -24t-25 -9h-118q-14 0 -24 -10t-10 -24t10 -23.5t24 -9.5h118
q42 0 71.5 29t29.5 71v468q0 14 -10 23.5t-23 9.5t-23 -9.5t-10 -23.5v-468zM417 767l-92 74l-89 -74q-12 -9 -24.5 -7.5t-20.5 11.5t-7 22.5t11 20.5l111 91q20 18 40 0l111 -91q10 -8 11 -20.5t-7 -22.5q-9 -10 -21.5 -11.5t-22.5 7.5z" />
    <glyph glyph-name="uni0136" unicode="&#x136;" horiz-adv-x="611" 
d="M246 -222l52 125q12 17 29 18t28.5 -15t2.5 -34l-52 -124q-12 -17 -29 -18t-28.5 14.5t-2.5 33.5zM147 23q0 -14 -10 -23.5t-24 -9.5q-13 0 -23 10t-10 23v669q0 14 10 23.5t23 9.5q14 0 24 -9.5t10 -23.5v-669zM428 43q8 -12 5.5 -25.5t-14.5 -21.5q-11 -8 -24.5 -5.5
t-21.5 13.5l-93 133v-114q0 -14 -9.5 -23.5t-23.5 -9.5q-13 0 -23 10t-10 23v219q0 25 23 32.5t37 -12.5zM373 711q8 11 21.5 13.5t24.5 -5.5q12 -8 14.5 -21.5t-5.5 -24.5l-154 -220q-8 -11 -21.5 -13.5t-24.5 5.5q-14 10 -14 29v218q0 14 10 23.5t23 9.5q14 0 23.5 -9.5
t9.5 -23.5v-114zM536 711q8 11 21.5 13.5t24.5 -5.5q12 -8 14.5 -21.5t-5.5 -24.5l-220 -315l220 -315q8 -12 5.5 -25.5t-14.5 -21.5q-11 -8 -24.5 -5.5t-21.5 13.5l-233 334q-14 19 0 39z" />
    <glyph glyph-name="uni0137" unicode="&#x137;" horiz-adv-x="611" 
d="M246 -222l52 125q12 17 29 18t28.5 -15t2.5 -34l-52 -124q-12 -17 -29 -18t-28.5 14.5t-2.5 33.5zM147 23q0 -14 -10 -23.5t-24 -9.5q-13 0 -23 10t-10 23v669q0 14 10 23.5t23 9.5q14 0 24 -9.5t10 -23.5v-669zM428 43q8 -12 5.5 -25.5t-14.5 -21.5q-11 -8 -24.5 -5.5
t-21.5 13.5l-93 133v-114q0 -14 -9.5 -23.5t-23.5 -9.5q-13 0 -23 10t-10 23v219q0 25 23 32.5t37 -12.5zM373 711q8 11 21.5 13.5t24.5 -5.5q12 -8 14.5 -21.5t-5.5 -24.5l-154 -220q-8 -11 -21.5 -13.5t-24.5 5.5q-14 10 -14 29v218q0 14 10 23.5t23 9.5q14 0 23.5 -9.5
t9.5 -23.5v-114zM536 711q8 11 21.5 13.5t24.5 -5.5q12 -8 14.5 -21.5t-5.5 -24.5l-220 -315l220 -315q8 -12 5.5 -25.5t-14.5 -21.5q-11 -8 -24.5 -5.5t-21.5 13.5l-233 334q-14 19 0 39z" />
    <glyph glyph-name="kgreenlandic" unicode="&#x138;" horiz-adv-x="611" 
d="M147 23q0 -14 -10 -23.5t-24 -9.5q-13 0 -23 10t-10 23v669q0 14 10 23.5t23 9.5q14 0 24 -9.5t10 -23.5v-669zM428 43q8 -12 5.5 -25.5t-14.5 -21.5q-11 -8 -24.5 -5.5t-21.5 13.5l-93 133v-114q0 -14 -9.5 -23.5t-23.5 -9.5q-13 0 -23 10t-10 23v219q0 25 23 32.5
t37 -12.5zM373 711q8 11 21.5 13.5t24.5 -5.5q12 -8 14.5 -21.5t-5.5 -24.5l-154 -220q-8 -11 -21.5 -13.5t-24.5 5.5q-14 10 -14 29v218q0 14 10 23.5t23 9.5q14 0 23.5 -9.5t9.5 -23.5v-114zM536 711q8 11 21.5 13.5t24.5 -5.5q12 -8 14.5 -21.5t-5.5 -24.5l-220 -315
l220 -315q8 -12 5.5 -25.5t-14.5 -21.5q-11 -8 -24.5 -5.5t-21.5 13.5l-233 334q-14 19 0 39z" />
    <glyph glyph-name="Lacute" unicode="&#x139;" horiz-adv-x="579" 
d="M503 57q14 0 23.5 -10t9.5 -24t-9.5 -23.5t-23.5 -9.5h-389q-14 0 -24 9.5t-10 23.5v669q0 14 10 23.5t24 9.5t23.5 -9.5t9.5 -23.5v-635h356zM214 692q0 14 10 23.5t23 9.5q14 0 24 -9.5t10 -23.5v-501h222q14 0 23.5 -10t9.5 -24t-9.5 -23.5t-23.5 -9.5h-256
q-13 0 -23 10t-10 23v535zM143 816l100 108q21 21 46 2q18 -23 2 -46l-101 -106q-10 -10 -22.5 -11t-22.5 9q-10 9 -10 22t8 22z" />
    <glyph glyph-name="lacute" unicode="&#x13a;" horiz-adv-x="579" 
d="M503 57q14 0 23.5 -10t9.5 -24t-9.5 -23.5t-23.5 -9.5h-389q-14 0 -24 9.5t-10 23.5v669q0 14 10 23.5t24 9.5t23.5 -9.5t9.5 -23.5v-635h356zM214 692q0 14 10 23.5t23 9.5q14 0 24 -9.5t10 -23.5v-501h222q14 0 23.5 -10t9.5 -24t-9.5 -23.5t-23.5 -9.5h-256
q-13 0 -23 10t-10 23v535zM143 816l100 108q21 21 46 2q18 -23 2 -46l-101 -106q-10 -10 -22.5 -11t-22.5 9q-10 9 -10 22t8 22z" />
    <glyph glyph-name="uni013B" unicode="&#x13b;" horiz-adv-x="579" 
d="M230 -222l52 125q12 17 29 18t28.5 -15t2.5 -34l-52 -124q-12 -17 -29 -18t-28.5 14.5t-2.5 33.5zM503 57q14 0 23.5 -10t9.5 -24t-9.5 -23.5t-23.5 -9.5h-389q-14 0 -24 9.5t-10 23.5v669q0 14 10 23.5t24 9.5t23.5 -9.5t9.5 -23.5v-635h356zM214 692q0 14 10 23.5
t23 9.5q14 0 24 -9.5t10 -23.5v-501h222q14 0 23.5 -10t9.5 -24t-9.5 -23.5t-23.5 -9.5h-256q-13 0 -23 10t-10 23v535z" />
    <glyph glyph-name="uni013C" unicode="&#x13c;" horiz-adv-x="579" 
d="M230 -222l52 125q12 17 29 18t28.5 -15t2.5 -34l-52 -124q-12 -17 -29 -18t-28.5 14.5t-2.5 33.5zM503 57q14 0 23.5 -10t9.5 -24t-9.5 -23.5t-23.5 -9.5h-389q-14 0 -24 9.5t-10 23.5v669q0 14 10 23.5t24 9.5t23.5 -9.5t9.5 -23.5v-635h356zM214 692q0 14 10 23.5
t23 9.5q14 0 24 -9.5t10 -23.5v-501h222q14 0 23.5 -10t9.5 -24t-9.5 -23.5t-23.5 -9.5h-256q-13 0 -23 10t-10 23v535z" />
    <glyph glyph-name="Lcaron" unicode="&#x13d;" horiz-adv-x="579" 
d="M503 57q14 0 23.5 -10t9.5 -24t-9.5 -23.5t-23.5 -9.5h-389q-14 0 -24 9.5t-10 23.5v669q0 14 10 23.5t24 9.5t23.5 -9.5t9.5 -23.5v-635h356zM214 692q0 14 10 23.5t23 9.5q14 0 24 -9.5t10 -23.5v-501h222q14 0 23.5 -10t9.5 -24t-9.5 -23.5t-23.5 -9.5h-256
q-13 0 -23 10t-10 23v535zM406 568l39 123q6 19 24 23t31.5 -8t7.5 -32l-41 -122q-11 -31 -39 -22q-13 3 -19.5 14.5t-2.5 23.5z" />
    <glyph glyph-name="lcaron" unicode="&#x13e;" horiz-adv-x="579" 
d="M503 57q14 0 23.5 -10t9.5 -24t-9.5 -23.5t-23.5 -9.5h-389q-14 0 -24 9.5t-10 23.5v669q0 14 10 23.5t24 9.5t23.5 -9.5t9.5 -23.5v-635h356zM214 692q0 14 10 23.5t23 9.5q14 0 24 -9.5t10 -23.5v-501h222q14 0 23.5 -10t9.5 -24t-9.5 -23.5t-23.5 -9.5h-256
q-13 0 -23 10t-10 23v535zM406 568l39 123q6 19 24 23t31.5 -8t7.5 -32l-41 -122q-11 -31 -39 -22q-13 3 -19.5 14.5t-2.5 23.5z" />
    <glyph glyph-name="Ldot" unicode="&#x13f;" horiz-adv-x="579" 
d="M503 57q14 0 23.5 -10t9.5 -24t-9.5 -23.5t-23.5 -9.5h-389q-14 0 -24 9.5t-10 23.5v669q0 14 10 23.5t24 9.5t23.5 -9.5t9.5 -23.5v-635h356zM214 692q0 14 10 23.5t23 9.5q14 0 24 -9.5t10 -23.5v-501h222q14 0 23.5 -10t9.5 -24t-9.5 -23.5t-23.5 -9.5h-256
q-13 0 -23 10t-10 23v535zM440 493q43 0 71 -28.5t28 -71.5q0 -41 -28 -70t-71 -29q-42 0 -71 29t-29 70q0 43 28.5 71.5t71.5 28.5zM440 438q-20 0 -32.5 -12.5t-12.5 -32.5q0 -19 12.5 -31t32.5 -12t32 12t12 31q0 20 -12 32.5t-32 12.5z" />
    <glyph glyph-name="ldot" unicode="&#x140;" horiz-adv-x="579" 
d="M503 57q14 0 23.5 -10t9.5 -24t-9.5 -23.5t-23.5 -9.5h-389q-14 0 -24 9.5t-10 23.5v669q0 14 10 23.5t24 9.5t23.5 -9.5t9.5 -23.5v-635h356zM214 692q0 14 10 23.5t23 9.5q14 0 24 -9.5t10 -23.5v-501h222q14 0 23.5 -10t9.5 -24t-9.5 -23.5t-23.5 -9.5h-256
q-13 0 -23 10t-10 23v535zM440 493q43 0 71 -28.5t28 -71.5q0 -41 -28 -70t-71 -29q-42 0 -71 29t-29 70q0 43 28.5 71.5t71.5 28.5zM440 438q-20 0 -32.5 -12.5t-12.5 -32.5q0 -19 12.5 -31t32.5 -12t32 12t12 31q0 20 -12 32.5t-32 12.5z" />
    <glyph glyph-name="Lslash" unicode="&#x141;" horiz-adv-x="604" 
d="M160 56h363q14 0 24 -10t10 -25q0 -13 -10.5 -23t-23.5 -10h-398q-13 0 -22.5 10t-9.5 23v271l-48 -15q-31 -10 -42 20q-5 13 1 25.5t19 17.5l70 24v341q0 13 9.5 23t22.5 10q14 0 24.5 -10t10.5 -23v-649zM297 705v-271l79 26q13 5 25.5 -1t18.5 -20q5 -13 -2 -26
t-21 -17l-100 -34v-170h226q14 0 24 -9.5t10 -23.5t-10 -24t-24 -10h-261q-14 0 -24 10t-10 24v546q0 13 10.5 23t23.5 10q15 0 25 -10t10 -23z" />
    <glyph glyph-name="lslash" unicode="&#x142;" horiz-adv-x="604" 
d="M160 56h363q14 0 24 -10t10 -25q0 -13 -10.5 -23t-23.5 -10h-398q-13 0 -22.5 10t-9.5 23v271l-48 -15q-31 -10 -42 20q-5 13 1 25.5t19 17.5l70 24v341q0 13 9.5 23t22.5 10q14 0 24.5 -10t10.5 -23v-649zM297 705v-271l79 26q13 5 25.5 -1t18.5 -20q5 -13 -2 -26
t-21 -17l-100 -34v-170h226q14 0 24 -9.5t10 -23.5t-10 -24t-24 -10h-261q-14 0 -24 10t-10 24v546q0 13 10.5 23t23.5 10q15 0 25 -10t10 -23z" />
    <glyph glyph-name="Nacute" unicode="&#x143;" horiz-adv-x="773" 
d="M146 23q0 -14 -9.5 -24t-23.5 -10q-13 0 -23 10t-10 24v669q0 13 9.5 22.5t23.5 9.5t23.5 -9t9.5 -23v-669zM692 23q0 -14 -10 -24t-24 -10q-13 0 -23 10t-10 24v669q0 13 9.5 22.5t23.5 9.5t24 -9.5t10 -22.5v-669zM565 42q7 -11 5 -24.5t-13 -22.5q-28 -17 -47 9
l-230 329v-310q0 -14 -10 -23.5t-24 -9.5q-13 0 -22.5 9.5t-9.5 23.5v416q0 19 14 27q11 9 24.5 6.5t21.5 -14.5zM207 672q-8 12 -5.5 25t13.5 21q11 9 24.5 6.5t21.5 -14.5l230 -329v311q0 13 10 22.5t24 9.5t23.5 -9.5t9.5 -22.5v-416q0 -19 -15 -28q-11 -8 -24.5 -5.5
t-21.5 13.5zM336 820l100 108q21 21 46 2q18 -23 2 -46l-101 -106q-10 -10 -22.5 -11t-22.5 9q-10 9 -10 22t8 22z" />
    <glyph glyph-name="nacute" unicode="&#x144;" horiz-adv-x="773" 
d="M146 23q0 -14 -9.5 -24t-23.5 -10q-13 0 -23 10t-10 24v669q0 13 9.5 22.5t23.5 9.5t23.5 -9t9.5 -23v-669zM692 23q0 -14 -10 -24t-24 -10q-13 0 -23 10t-10 24v669q0 13 9.5 22.5t23.5 9.5t24 -9.5t10 -22.5v-669zM565 42q7 -11 5 -24.5t-13 -22.5q-28 -17 -47 9
l-230 329v-310q0 -14 -10 -23.5t-24 -9.5q-13 0 -22.5 9.5t-9.5 23.5v416q0 19 14 27q11 9 24.5 6.5t21.5 -14.5zM207 672q-8 12 -5.5 25t13.5 21q11 9 24.5 6.5t21.5 -14.5l230 -329v311q0 13 10 22.5t24 9.5t23.5 -9.5t9.5 -22.5v-416q0 -19 -15 -28q-11 -8 -24.5 -5.5
t-21.5 13.5zM336 820l100 108q21 21 46 2q18 -23 2 -46l-101 -106q-10 -10 -22.5 -11t-22.5 9q-10 9 -10 22t8 22z" />
    <glyph glyph-name="uni0145" unicode="&#x145;" horiz-adv-x="773" 
d="M303 -219l52 125q12 17 29 18t28.5 -15t2.5 -34l-52 -124q-12 -17 -29 -18t-28.5 14.5t-2.5 33.5zM146 23q0 -14 -9.5 -24t-23.5 -10q-13 0 -23 10t-10 24v669q0 13 9.5 22.5t23.5 9.5t23.5 -9t9.5 -23v-669zM692 23q0 -14 -10 -24t-24 -10q-13 0 -23 10t-10 24v669
q0 13 9.5 22.5t23.5 9.5t24 -9.5t10 -22.5v-669zM565 42q7 -11 5 -24.5t-13 -22.5q-28 -17 -47 9l-230 329v-310q0 -14 -10 -23.5t-24 -9.5q-13 0 -22.5 9.5t-9.5 23.5v416q0 19 14 27q11 9 24.5 6.5t21.5 -14.5zM207 672q-8 12 -5.5 25t13.5 21q11 9 24.5 6.5t21.5 -14.5
l230 -329v311q0 13 10 22.5t24 9.5t23.5 -9.5t9.5 -22.5v-416q0 -19 -15 -28q-11 -8 -24.5 -5.5t-21.5 13.5z" />
    <glyph glyph-name="uni0146" unicode="&#x146;" horiz-adv-x="773" 
d="M303 -219l52 125q12 17 29 18t28.5 -15t2.5 -34l-52 -124q-12 -17 -29 -18t-28.5 14.5t-2.5 33.5zM146 23q0 -14 -9.5 -24t-23.5 -10q-13 0 -23 10t-10 24v669q0 13 9.5 22.5t23.5 9.5t23.5 -9t9.5 -23v-669zM692 23q0 -14 -10 -24t-24 -10q-13 0 -23 10t-10 24v669
q0 13 9.5 22.5t23.5 9.5t24 -9.5t10 -22.5v-669zM565 42q7 -11 5 -24.5t-13 -22.5q-28 -17 -47 9l-230 329v-310q0 -14 -10 -23.5t-24 -9.5q-13 0 -22.5 9.5t-9.5 23.5v416q0 19 14 27q11 9 24.5 6.5t21.5 -14.5zM207 672q-8 12 -5.5 25t13.5 21q11 9 24.5 6.5t21.5 -14.5
l230 -329v311q0 13 10 22.5t24 9.5t23.5 -9.5t9.5 -22.5v-416q0 -19 -15 -28q-11 -8 -24.5 -5.5t-21.5 13.5z" />
    <glyph glyph-name="Ncaron" unicode="&#x147;" horiz-adv-x="773" 
d="M146 23q0 -14 -9.5 -24t-23.5 -10q-13 0 -23 10t-10 24v669q0 13 9.5 22.5t23.5 9.5t23.5 -9t9.5 -23v-669zM692 23q0 -14 -10 -24t-24 -10q-13 0 -23 10t-10 24v669q0 13 9.5 22.5t23.5 9.5t24 -9.5t10 -22.5v-669zM565 42q7 -11 5 -24.5t-13 -22.5q-28 -17 -47 9
l-230 329v-310q0 -14 -10 -23.5t-24 -9.5q-13 0 -22.5 9.5t-9.5 23.5v416q0 19 14 27q11 9 24.5 6.5t21.5 -14.5zM207 672q-8 12 -5.5 25t13.5 21q11 9 24.5 6.5t21.5 -14.5l230 -329v311q0 13 10 22.5t24 9.5t23.5 -9.5t9.5 -22.5v-416q0 -19 -15 -28q-11 -8 -24.5 -5.5
t-21.5 13.5zM377 833l92 74q14 12 30.5 5t19.5 -22.5t-10 -29.5l-111 -91q-20 -18 -40 0l-111 91q-10 8 -11 20.5t7 22.5t20.5 11.5t24.5 -7.5z" />
    <glyph glyph-name="ncaron" unicode="&#x148;" horiz-adv-x="773" 
d="M146 23q0 -14 -9.5 -24t-23.5 -10q-13 0 -23 10t-10 24v669q0 13 9.5 22.5t23.5 9.5t23.5 -9t9.5 -23v-669zM692 23q0 -14 -10 -24t-24 -10q-13 0 -23 10t-10 24v669q0 13 9.5 22.5t23.5 9.5t24 -9.5t10 -22.5v-669zM565 42q7 -11 5 -24.5t-13 -22.5q-28 -17 -47 9
l-230 329v-310q0 -14 -10 -23.5t-24 -9.5q-13 0 -22.5 9.5t-9.5 23.5v416q0 19 14 27q11 9 24.5 6.5t21.5 -14.5zM207 672q-8 12 -5.5 25t13.5 21q11 9 24.5 6.5t21.5 -14.5l230 -329v311q0 13 10 22.5t24 9.5t23.5 -9.5t9.5 -22.5v-416q0 -19 -15 -28q-11 -8 -24.5 -5.5
t-21.5 13.5zM377 833l92 74q14 12 30.5 5t19.5 -22.5t-10 -29.5l-111 -91q-20 -18 -40 0l-111 91q-10 8 -11 20.5t7 22.5t20.5 11.5t24.5 -7.5z" />
    <glyph glyph-name="napostrophe" unicode="&#x149;" horiz-adv-x="773" 
d="M146 23q0 -14 -9.5 -24t-23.5 -10q-13 0 -23 10t-10 24v669q0 13 9.5 22.5t23.5 9.5t23.5 -9t9.5 -23v-669zM692 23q0 -14 -10 -24t-24 -10q-13 0 -23 10t-10 24v669q0 13 9.5 22.5t23.5 9.5t24 -9.5t10 -22.5v-669zM565 42q7 -11 5 -24.5t-13 -22.5q-28 -17 -47 9
l-230 329v-310q0 -14 -10 -23.5t-24 -9.5q-13 0 -22.5 9.5t-9.5 23.5v416q0 19 14 27q11 9 24.5 6.5t21.5 -14.5zM207 672q-8 12 -5.5 25t13.5 21q11 9 24.5 6.5t21.5 -14.5l230 -329v311q0 13 10 22.5t24 9.5t23.5 -9.5t9.5 -22.5v-416q0 -19 -15 -28q-11 -8 -24.5 -5.5
t-21.5 13.5z" />
    <glyph glyph-name="Eng" unicode="&#x14a;" horiz-adv-x="773" 
d="M274 458l266 -385q1 -2 5.5 -7.5t5.5 -7.5l4 -8t4 -10.5t1.5 -12.5t0.5 -18v-31q0 -43 -27 -71.5t-69 -28.5h-21q-14 0 -24 9.5t-10 23.5t10 24t24 10h21q30 0 30 33v47l-215 308v-310q0 -14 -10 -23.5t-24 -9.5q-13 0 -22.5 9.5t-9.5 23.5v416q0 19 14 27q11 9 24.5 6.5
t21.5 -14.5zM692 692v-714q0 -100 -60.5 -167t-165.5 -67h-22q-14 0 -23.5 10t-9.5 23q0 14 9.5 24t23.5 10h22q76 -1 117.5 46.5t41.5 120.5v714q0 13 9.5 22.5t23.5 9.5t24 -9.5t10 -22.5zM497 256l-290 416q-8 12 -5.5 25t13.5 21q11 9 24.5 6.5t21.5 -14.5l230 -329v311
q0 13 10 22.5t24 9.5t23.5 -9.5t9.5 -22.5v-416q0 -19 -15 -28q-11 -8 -24.5 -5.5t-21.5 13.5zM146 692v-669q0 -14 -9.5 -24t-23.5 -10q-13 0 -23 10t-10 24v669q0 13 9.5 22.5t23.5 9.5t23.5 -9t9.5 -23z" />
    <glyph glyph-name="eng" unicode="&#x14b;" horiz-adv-x="773" 
d="M274 458l266 -385q1 -2 5.5 -7.5t5.5 -7.5l4 -8t4 -10.5t1.5 -12.5t0.5 -18v-31q0 -43 -27 -71.5t-69 -28.5h-21q-14 0 -24 9.5t-10 23.5t10 24t24 10h21q30 0 30 33v47l-215 308v-310q0 -14 -10 -23.5t-24 -9.5q-13 0 -22.5 9.5t-9.5 23.5v416q0 19 14 27q11 9 24.5 6.5
t21.5 -14.5zM692 692v-714q0 -100 -60.5 -167t-165.5 -67h-22q-14 0 -23.5 10t-9.5 23q0 14 9.5 24t23.5 10h22q76 -1 117.5 46.5t41.5 120.5v714q0 13 9.5 22.5t23.5 9.5t24 -9.5t10 -22.5zM497 256l-290 416q-8 12 -5.5 25t13.5 21q11 9 24.5 6.5t21.5 -14.5l230 -329v311
q0 13 10 22.5t24 9.5t23.5 -9.5t9.5 -22.5v-416q0 -19 -15 -28q-11 -8 -24.5 -5.5t-21.5 13.5zM146 692v-669q0 -14 -9.5 -24t-23.5 -10q-13 0 -23 10t-10 24v669q0 13 9.5 22.5t23.5 9.5t23.5 -9t9.5 -23z" />
    <glyph glyph-name="Omacron" unicode="&#x14c;" horiz-adv-x="861" 
d="M805 473q4 -14 -2.5 -26t-19.5 -16q-14 -5 -26.5 2t-16.5 20q-32 98 -116 159q-84 60 -188 60q-75 0 -136 -27t-98.5 -71t-58 -100t-20.5 -115t20.5 -115t58 -100t98.5 -71t136 -27q106 0 188 60q84 59 116 159q4 13 16.5 19.5t26.5 2.5q13 -4 19.5 -16.5t2.5 -26.5
q-38 -119 -140 -193q-105 -74 -229 -74q-92 0 -166 33t-119.5 86.5t-70.5 122t-25 140t25 140t70.5 122t119.5 86.5t166 33q126 0 229 -73q103 -76 140 -194zM230 238q-7 13 -3.5 25.5t15.5 20.5q13 7 26 3.5t20 -16.5q26 -43 64 -63q38 -24 84 -24q73 0 121 51
q51 49 51 124q0 74 -51 123q-49 51 -121 51q-46 0 -84 -23q-39 -23 -64 -63q-7 -13 -20 -17t-26 3q-12 7 -15.5 20.5t3.5 26.5q32 57 87 89t119 32q100 0 171 -71q69 -72 69 -171t-69 -171q-70 -72 -171 -72q-61 0 -119 32q-55 34 -87 90zM529 809h-193q-21 0 -29.5 16.5
t0 33.5t29.5 17h193q21 0 29.5 -17t0 -33.5t-29.5 -16.5z" />
    <glyph glyph-name="omacron" unicode="&#x14d;" horiz-adv-x="861" 
d="M805 473q4 -14 -2.5 -26t-19.5 -16q-14 -5 -26.5 2t-16.5 20q-32 98 -116 159q-84 60 -188 60q-75 0 -136 -27t-98.5 -71t-58 -100t-20.5 -115t20.5 -115t58 -100t98.5 -71t136 -27q106 0 188 60q84 59 116 159q4 13 16.5 19.5t26.5 2.5q13 -4 19.5 -16.5t2.5 -26.5
q-38 -119 -140 -193q-105 -74 -229 -74q-92 0 -166 33t-119.5 86.5t-70.5 122t-25 140t25 140t70.5 122t119.5 86.5t166 33q126 0 229 -73q103 -76 140 -194zM230 238q-7 13 -3.5 25.5t15.5 20.5q13 7 26 3.5t20 -16.5q26 -43 64 -63q38 -24 84 -24q73 0 121 51
q51 49 51 124q0 74 -51 123q-49 51 -121 51q-46 0 -84 -23q-39 -23 -64 -63q-7 -13 -20 -17t-26 3q-12 7 -15.5 20.5t3.5 26.5q32 57 87 89t119 32q100 0 171 -71q69 -72 69 -171t-69 -171q-70 -72 -171 -72q-61 0 -119 32q-55 34 -87 90zM529 809h-193q-21 0 -29.5 16.5
t0 33.5t29.5 17h193q21 0 29.5 -17t0 -33.5t-29.5 -16.5z" />
    <glyph glyph-name="Obreve" unicode="&#x14e;" horiz-adv-x="861" 
d="M805 473q4 -14 -2.5 -26t-19.5 -16q-14 -5 -26.5 2t-16.5 20q-32 98 -116 159q-84 60 -188 60q-75 0 -136 -27t-98.5 -71t-58 -100t-20.5 -115t20.5 -115t58 -100t98.5 -71t136 -27q106 0 188 60q84 59 116 159q4 13 16.5 19.5t26.5 2.5q13 -4 19.5 -16.5t2.5 -26.5
q-38 -119 -140 -193q-105 -74 -229 -74q-92 0 -166 33t-119.5 86.5t-70.5 122t-25 140t25 140t70.5 122t119.5 86.5t166 33q126 0 229 -73q103 -76 140 -194zM230 238q-7 13 -3.5 25.5t15.5 20.5q13 7 26 3.5t20 -16.5q26 -43 64 -63q38 -24 84 -24q73 0 121 51
q51 49 51 124q0 74 -51 123q-49 51 -121 51q-46 0 -84 -23q-39 -23 -64 -63q-7 -13 -20 -17t-26 3q-12 7 -15.5 20.5t3.5 26.5q32 57 87 89t119 32q100 0 171 -71q69 -72 69 -171t-69 -171q-70 -72 -171 -72q-61 0 -119 32q-55 34 -87 90zM360 911q0 -27 19.5 -40.5
t51.5 -13.5q71 0 71 54q0 17 17 24t33.5 0t16.5 -24q0 -54 -38 -84.5t-100 -30.5q-61 0 -100 30.5t-39 84.5q0 17 17 25t34 1t17 -26z" />
    <glyph glyph-name="obreve" unicode="&#x14f;" horiz-adv-x="861" 
d="M805 473q4 -14 -2.5 -26t-19.5 -16q-14 -5 -26.5 2t-16.5 20q-32 98 -116 159q-84 60 -188 60q-75 0 -136 -27t-98.5 -71t-58 -100t-20.5 -115t20.5 -115t58 -100t98.5 -71t136 -27q106 0 188 60q84 59 116 159q4 13 16.5 19.5t26.5 2.5q13 -4 19.5 -16.5t2.5 -26.5
q-38 -119 -140 -193q-105 -74 -229 -74q-92 0 -166 33t-119.5 86.5t-70.5 122t-25 140t25 140t70.5 122t119.5 86.5t166 33q126 0 229 -73q103 -76 140 -194zM230 238q-7 13 -3.5 25.5t15.5 20.5q13 7 26 3.5t20 -16.5q26 -43 64 -63q38 -24 84 -24q73 0 121 51
q51 49 51 124q0 74 -51 123q-49 51 -121 51q-46 0 -84 -23q-39 -23 -64 -63q-7 -13 -20 -17t-26 3q-12 7 -15.5 20.5t3.5 26.5q32 57 87 89t119 32q100 0 171 -71q69 -72 69 -171t-69 -171q-70 -72 -171 -72q-61 0 -119 32q-55 34 -87 90zM360 911q0 -27 19.5 -40.5
t51.5 -13.5q71 0 71 54q0 17 17 24t33.5 0t16.5 -24q0 -54 -38 -84.5t-100 -30.5q-61 0 -100 30.5t-39 84.5q0 17 17 25t34 1t17 -26z" />
    <glyph glyph-name="Ohungarumlaut" unicode="&#x150;" horiz-adv-x="861" 
d="M805 473q4 -14 -2.5 -26t-19.5 -16q-14 -5 -26.5 2t-16.5 20q-32 98 -116 159q-84 60 -188 60q-75 0 -136 -27t-98.5 -71t-58 -100t-20.5 -115t20.5 -115t58 -100t98.5 -71t136 -27q106 0 188 60q84 59 116 159q4 13 16.5 19.5t26.5 2.5q13 -4 19.5 -16.5t2.5 -26.5
q-38 -119 -140 -193q-105 -74 -229 -74q-92 0 -166 33t-119.5 86.5t-70.5 122t-25 140t25 140t70.5 122t119.5 86.5t166 33q126 0 229 -73q103 -76 140 -194zM230 238q-7 13 -3.5 25.5t15.5 20.5q13 7 26 3.5t20 -16.5q26 -43 64 -63q38 -24 84 -24q73 0 121 51
q51 49 51 124q0 74 -51 123q-49 51 -121 51q-46 0 -84 -23q-39 -23 -64 -63q-7 -13 -20 -17t-26 3q-12 7 -15.5 20.5t3.5 26.5q32 57 87 89t119 32q100 0 171 -71q69 -72 69 -171t-69 -171q-70 -72 -171 -72q-61 0 -119 32q-55 34 -87 90zM329 839l69 83q21 21 46 2
q18 -23 2 -46l-70 -81q-24 -23 -45 -2q-10 9 -10 22t8 22zM490 839l69 83q21 21 46 2q18 -23 2 -46l-70 -81q-23 -23 -45 -2q-10 9 -10 22t8 22z" />
    <glyph glyph-name="ohungarumlaut" unicode="&#x151;" horiz-adv-x="861" 
d="M805 473q4 -14 -2.5 -26t-19.5 -16q-14 -5 -26.5 2t-16.5 20q-32 98 -116 159q-84 60 -188 60q-75 0 -136 -27t-98.5 -71t-58 -100t-20.5 -115t20.5 -115t58 -100t98.5 -71t136 -27q106 0 188 60q84 59 116 159q4 13 16.5 19.5t26.5 2.5q13 -4 19.5 -16.5t2.5 -26.5
q-38 -119 -140 -193q-105 -74 -229 -74q-92 0 -166 33t-119.5 86.5t-70.5 122t-25 140t25 140t70.5 122t119.5 86.5t166 33q126 0 229 -73q103 -76 140 -194zM230 238q-7 13 -3.5 25.5t15.5 20.5q13 7 26 3.5t20 -16.5q26 -43 64 -63q38 -24 84 -24q73 0 121 51
q51 49 51 124q0 74 -51 123q-49 51 -121 51q-46 0 -84 -23q-39 -23 -64 -63q-7 -13 -20 -17t-26 3q-12 7 -15.5 20.5t3.5 26.5q32 57 87 89t119 32q100 0 171 -71q69 -72 69 -171t-69 -171q-70 -72 -171 -72q-61 0 -119 32q-55 34 -87 90zM329 839l69 83q21 21 46 2
q18 -23 2 -46l-70 -81q-24 -23 -45 -2q-10 9 -10 22t8 22zM490 839l69 83q21 21 46 2q18 -23 2 -46l-70 -81q-23 -23 -45 -2q-10 9 -10 22t8 22z" />
    <glyph glyph-name="OE" unicode="&#x152;" horiz-adv-x="898" 
d="M606 595h200q15 0 25 -10t10 -24t-10 -23.5t-25 -9.5h-167v-70h120q12 0 22.5 -9.5t10.5 -22.5q0 -14 -10 -24.5t-23 -10.5h-153q-15 0 -25.5 10t-10.5 25v135q0 13 11 23.5t25 10.5zM415 670q-75 0 -136 -27t-98 -71t-57.5 -100t-20.5 -115t20.5 -115t57.5 -100t98 -71
t136 -27q21 0 72 4.5t79 4.5h240q15 0 25 -10t10 -24q0 -15 -10 -25.5t-25 -10.5h-317q-35 -7 -74 -7q-91 0 -165 32.5t-119.5 86t-70 122t-24.5 139.5t24.5 139.5t70 122t119.5 86t165 32.5q32 0 74 -5h317q15 0 25 -10.5t10 -25.5q0 -13 -10 -22.5t-25 -9.5h-274
q-23 0 -61 3.5t-56 3.5zM210 238q-13 29 12 45q13 6 27 2.5t21 -15.5q22 -45 61 -63q46 -24 84 -24h22v347q-7 2 -22 2q-47 0 -84 -24q-41 -22 -61 -64q-8 -12 -21.5 -15.5t-26.5 4.5q-26 12 -12 45q26 54 88 90q59 32 117 32q39 0 89 -16v-7v-69v-301v-63v-12
q-50 -18 -89 -18q-61 0 -117 35q-60 32 -88 89zM606 322h153q13 0 23 -9.5t10 -23.5t-10 -23.5t-23 -9.5h-120v-68h167q15 0 25 -10.5t10 -24.5t-10 -24t-25 -10h-200q-14 0 -25 10.5t-11 23.5v136q0 14 10.5 23.5t25.5 9.5z" />
    <glyph glyph-name="oe" unicode="&#x153;" horiz-adv-x="898" 
d="M606 595h200q15 0 25 -10t10 -24t-10 -23.5t-25 -9.5h-167v-70h120q12 0 22.5 -9.5t10.5 -22.5q0 -14 -10 -24.5t-23 -10.5h-153q-15 0 -25.5 10t-10.5 25v135q0 13 11 23.5t25 10.5zM415 670q-75 0 -136 -27t-98 -71t-57.5 -100t-20.5 -115t20.5 -115t57.5 -100t98 -71
t136 -27q21 0 72 4.5t79 4.5h240q15 0 25 -10t10 -24q0 -15 -10 -25.5t-25 -10.5h-317q-35 -7 -74 -7q-91 0 -165 32.5t-119.5 86t-70 122t-24.5 139.5t24.5 139.5t70 122t119.5 86t165 32.5q32 0 74 -5h317q15 0 25 -10.5t10 -25.5q0 -13 -10 -22.5t-25 -9.5h-274
q-23 0 -61 3.5t-56 3.5zM210 238q-13 29 12 45q13 6 27 2.5t21 -15.5q22 -45 61 -63q46 -24 84 -24h22v347q-7 2 -22 2q-47 0 -84 -24q-41 -22 -61 -64q-8 -12 -21.5 -15.5t-26.5 4.5q-26 12 -12 45q26 54 88 90q59 32 117 32q39 0 89 -16v-7v-69v-301v-63v-12
q-50 -18 -89 -18q-61 0 -117 35q-60 32 -88 89zM606 322h153q13 0 23 -9.5t10 -23.5t-10 -23.5t-23 -9.5h-120v-68h167q15 0 25 -10.5t10 -24.5t-10 -24t-25 -10h-200q-14 0 -25 10.5t-11 23.5v136q0 14 10.5 23.5t25.5 9.5z" />
    <glyph glyph-name="Racute" unicode="&#x154;" horiz-adv-x="624" 
d="M366 391h-9.5h-12.5h-11q-15 1 -25 8t-13 16.5t-0.5 19t13 16t25.5 6.5h11.5h12t11 0.5t11 2t9 4t7.5 6t4 9t2 12.5q0 15 -10 24.5t-25 9.5h-119q-21 0 -29.5 16.5t0 33.5t29.5 17h119q44 0 72.5 -31t28.5 -71q0 -42 -29.5 -70.5t-71.5 -28.5zM428 43q12 -17 2.5 -34
t-26.5 -19t-31 14l-92 133v-114q0 -21 -16.5 -29.5t-33.5 0t-17 29.5v218q0 26 23.5 33t37.5 -12zM147 23q0 -21 -16.5 -29.5t-33.5 0t-17 29.5v669q0 13 10 23t24 10h263q50 0 93 -19.5t72.5 -51t47 -73.5t19 -85.5t-15.5 -88.5t-52 -81q-46 -46 -105 -61l155 -222
q12 -17 2.5 -34t-26.5 -19t-30 14l-185 265q-14 19 -4.5 37t29.5 18q53 0 94 30.5t58.5 73.5t9 93.5t-45.5 88.5q-48 48 -116 48h-230v-635zM275 826l100 108q21 21 46 2q18 -23 2 -46l-101 -106q-10 -10 -22.5 -11t-22.5 9q-10 9 -10 22t8 22z" />
    <glyph glyph-name="racute" unicode="&#x155;" horiz-adv-x="624" 
d="M366 391h-9.5h-12.5h-11q-15 1 -25 8t-13 16.5t-0.5 19t13 16t25.5 6.5h11.5h12t11 0.5t11 2t9 4t7.5 6t4 9t2 12.5q0 15 -10 24.5t-25 9.5h-119q-21 0 -29.5 16.5t0 33.5t29.5 17h119q44 0 72.5 -31t28.5 -71q0 -42 -29.5 -70.5t-71.5 -28.5zM428 43q12 -17 2.5 -34
t-26.5 -19t-31 14l-92 133v-114q0 -21 -16.5 -29.5t-33.5 0t-17 29.5v218q0 26 23.5 33t37.5 -12zM147 23q0 -21 -16.5 -29.5t-33.5 0t-17 29.5v669q0 13 10 23t24 10h263q50 0 93 -19.5t72.5 -51t47 -73.5t19 -85.5t-15.5 -88.5t-52 -81q-46 -46 -105 -61l155 -222
q12 -17 2.5 -34t-26.5 -19t-30 14l-185 265q-14 19 -4.5 37t29.5 18q53 0 94 30.5t58.5 73.5t9 93.5t-45.5 88.5q-48 48 -116 48h-230v-635zM275 826l100 108q21 21 46 2q18 -23 2 -46l-101 -106q-10 -10 -22.5 -11t-22.5 9q-10 9 -10 22t8 22z" />
    <glyph glyph-name="uni0156" unicode="&#x156;" horiz-adv-x="624" 
d="M245 -214l52 125q12 17 29 18t28.5 -15t2.5 -34l-52 -124q-12 -17 -29 -18t-28.5 14.5t-2.5 33.5zM366 391h-9.5h-12.5h-11q-15 1 -25 8t-13 16.5t-0.5 19t13 16t25.5 6.5h11.5h12t11 0.5t11 2t9 4t7.5 6t4 9t2 12.5q0 15 -10 24.5t-25 9.5h-119q-21 0 -29.5 16.5t0 33.5
t29.5 17h119q44 0 72.5 -31t28.5 -71q0 -42 -29.5 -70.5t-71.5 -28.5zM428 43q12 -17 2.5 -34t-26.5 -19t-31 14l-92 133v-114q0 -21 -16.5 -29.5t-33.5 0t-17 29.5v218q0 26 23.5 33t37.5 -12zM147 23q0 -21 -16.5 -29.5t-33.5 0t-17 29.5v669q0 13 10 23t24 10h263
q50 0 93 -19.5t72.5 -51t47 -73.5t19 -85.5t-15.5 -88.5t-52 -81q-46 -46 -105 -61l155 -222q12 -17 2.5 -34t-26.5 -19t-30 14l-185 265q-14 19 -4.5 37t29.5 18q53 0 94 30.5t58.5 73.5t9 93.5t-45.5 88.5q-48 48 -116 48h-230v-635z" />
    <glyph glyph-name="uni0157" unicode="&#x157;" horiz-adv-x="624" 
d="M245 -214l52 125q12 17 29 18t28.5 -15t2.5 -34l-52 -124q-12 -17 -29 -18t-28.5 14.5t-2.5 33.5zM366 391h-9.5h-12.5h-11q-15 1 -25 8t-13 16.5t-0.5 19t13 16t25.5 6.5h11.5h12t11 0.5t11 2t9 4t7.5 6t4 9t2 12.5q0 15 -10 24.5t-25 9.5h-119q-21 0 -29.5 16.5t0 33.5
t29.5 17h119q44 0 72.5 -31t28.5 -71q0 -42 -29.5 -70.5t-71.5 -28.5zM428 43q12 -17 2.5 -34t-26.5 -19t-31 14l-92 133v-114q0 -21 -16.5 -29.5t-33.5 0t-17 29.5v218q0 26 23.5 33t37.5 -12zM147 23q0 -21 -16.5 -29.5t-33.5 0t-17 29.5v669q0 13 10 23t24 10h263
q50 0 93 -19.5t72.5 -51t47 -73.5t19 -85.5t-15.5 -88.5t-52 -81q-46 -46 -105 -61l155 -222q12 -17 2.5 -34t-26.5 -19t-30 14l-185 265q-14 19 -4.5 37t29.5 18q53 0 94 30.5t58.5 73.5t9 93.5t-45.5 88.5q-48 48 -116 48h-230v-635z" />
    <glyph glyph-name="Rcaron" unicode="&#x158;" horiz-adv-x="624" 
d="M366 391h-9.5h-12.5h-11q-15 1 -25 8t-13 16.5t-0.5 19t13 16t25.5 6.5h11.5h12t11 0.5t11 2t9 4t7.5 6t4 9t2 12.5q0 15 -10 24.5t-25 9.5h-119q-21 0 -29.5 16.5t0 33.5t29.5 17h119q44 0 72.5 -31t28.5 -71q0 -42 -29.5 -70.5t-71.5 -28.5zM428 43q12 -17 2.5 -34
t-26.5 -19t-31 14l-92 133v-114q0 -21 -16.5 -29.5t-33.5 0t-17 29.5v218q0 26 23.5 33t37.5 -12zM147 23q0 -21 -16.5 -29.5t-33.5 0t-17 29.5v669q0 13 10 23t24 10h263q50 0 93 -19.5t72.5 -51t47 -73.5t19 -85.5t-15.5 -88.5t-52 -81q-46 -46 -105 -61l155 -222
q12 -17 2.5 -34t-26.5 -19t-30 14l-185 265q-14 19 -4.5 37t29.5 18q53 0 94 30.5t58.5 73.5t9 93.5t-45.5 88.5q-48 48 -116 48h-230v-635zM307 838l92 74q14 12 30.5 5t19.5 -22.5t-10 -29.5l-111 -91q-20 -18 -40 0l-111 91q-10 8 -11 20.5t7 22.5t20.5 11.5t24.5 -7.5z
" />
    <glyph glyph-name="rcaron" unicode="&#x159;" horiz-adv-x="624" 
d="M366 391h-9.5h-12.5h-11q-15 1 -25 8t-13 16.5t-0.5 19t13 16t25.5 6.5h11.5h12t11 0.5t11 2t9 4t7.5 6t4 9t2 12.5q0 15 -10 24.5t-25 9.5h-119q-21 0 -29.5 16.5t0 33.5t29.5 17h119q44 0 72.5 -31t28.5 -71q0 -42 -29.5 -70.5t-71.5 -28.5zM428 43q12 -17 2.5 -34
t-26.5 -19t-31 14l-92 133v-114q0 -21 -16.5 -29.5t-33.5 0t-17 29.5v218q0 26 23.5 33t37.5 -12zM147 23q0 -21 -16.5 -29.5t-33.5 0t-17 29.5v669q0 13 10 23t24 10h263q50 0 93 -19.5t72.5 -51t47 -73.5t19 -85.5t-15.5 -88.5t-52 -81q-46 -46 -105 -61l155 -222
q12 -17 2.5 -34t-26.5 -19t-30 14l-185 265q-14 19 -4.5 37t29.5 18q53 0 94 30.5t58.5 73.5t9 93.5t-45.5 88.5q-48 48 -116 48h-230v-635zM307 838l92 74q14 12 30.5 5t19.5 -22.5t-10 -29.5l-111 -91q-20 -18 -40 0l-111 91q-10 8 -11 20.5t7 22.5t20.5 11.5t24.5 -7.5z
" />
    <glyph glyph-name="Sacute" unicode="&#x15a;" horiz-adv-x="566" 
d="M455 699q19 -7 21.5 -25.5t-11 -31.5t-33.5 -6q-183 65 -264 -24q-43 -46 -45 -110.5t49 -113.5q27 -25 68.5 -44t71 -29t53 -33.5t25.5 -60.5q2 -41 -28 -69.5t-72 -31.5q-119 -7 -212 60q-17 12 -13.5 31t19 26t33.5 -3q37 -27 87.5 -40t86 -6.5t32.5 30.5
q-1 16 -19.5 27.5t-44 19.5t-63.5 27t-69 46q-53 46 -66.5 113t8.5 126.5t77.5 103t129.5 47.5q82 4 179 -29zM65 38q-17 12 -17.5 29t15.5 28t34 2q79 -42 162 -46.5t142 39t59 131.5q0 39 -18.5 69.5t-48.5 50t-60 33.5t-61 27t-43 23q-40 32 -36 83q4 56 60 77
q69 27 187 -21q18 -8 19.5 -26.5t-12.5 -30.5t-33 -4q-112 45 -148 14q-18 -16 -2 -36l6 -5q8 -6 40.5 -18.5t66.5 -30t69 -43t57.5 -68t22.5 -94.5q0 -134 -102.5 -196.5t-246.5 -27.5q-58 12 -112 41zM333 925l-99 -100q-8 -8 -7.5 -20.5t9.5 -20.5q21 -20 45 2l100 98
q16 22 -2 43q-25 18 -46 -2z" />
    <glyph glyph-name="sacute" unicode="&#x15b;" horiz-adv-x="566" 
d="M455 699q19 -7 21.5 -25.5t-11 -31.5t-33.5 -6q-183 65 -264 -24q-43 -46 -45 -110.5t49 -113.5q27 -25 68.5 -44t71 -29t53 -33.5t25.5 -60.5q2 -41 -28 -69.5t-72 -31.5q-119 -7 -212 60q-17 12 -13.5 31t19 26t33.5 -3q37 -27 87.5 -40t86 -6.5t32.5 30.5
q-1 16 -19.5 27.5t-44 19.5t-63.5 27t-69 46q-53 46 -66.5 113t8.5 126.5t77.5 103t129.5 47.5q82 4 179 -29zM65 38q-17 12 -17.5 29t15.5 28t34 2q79 -42 162 -46.5t142 39t59 131.5q0 39 -18.5 69.5t-48.5 50t-60 33.5t-61 27t-43 23q-40 32 -36 83q4 56 60 77
q69 27 187 -21q18 -8 19.5 -26.5t-12.5 -30.5t-33 -4q-112 45 -148 14q-18 -16 -2 -36l6 -5q8 -6 40.5 -18.5t66.5 -30t69 -43t57.5 -68t22.5 -94.5q0 -134 -102.5 -196.5t-246.5 -27.5q-58 12 -112 41zM333 925l-99 -100q-8 -8 -7.5 -20.5t9.5 -20.5q21 -20 45 2l100 98
q16 22 -2 43q-25 18 -46 -2z" />
    <glyph glyph-name="Scircumflex" unicode="&#x15c;" horiz-adv-x="566" 
d="M455 699q-97 33 -179 29q-74 -4 -129.5 -47.5t-77.5 -103t-8.5 -126.5t66.5 -113q31 -27 69 -46t63.5 -27t44 -19.5t19.5 -27.5q3 -24 -32.5 -30.5t-86 6.5t-87.5 40q-17 12 -33.5 3t-18.5 -26t13 -31q93 -67 212 -60q42 3 72 31.5t28 69.5q-2 37 -25.5 60.5t-53 33.5
t-71 29t-68.5 44q-51 49 -49 113.5t45 110.5q81 89 264 24q20 -7 33.5 6t11 31.5t-21.5 25.5zM65 38q54 -29 112 -41q144 -35 246.5 27.5t102.5 196.5q0 52 -22.5 94.5t-57.5 68t-69 43t-66.5 30t-40.5 18.5q-21 17 -9 35q19 32 101 10q24 -7 52 -18q19 -8 33 4t12.5 30.5
t-19.5 26.5q-148 60 -216 5q-42 -34 -30 -89q8 -34 35 -55q12 -10 43 -23t61 -27t60 -33.5t48.5 -50t18.5 -69.5q0 -88 -59 -131.5t-142 -39t-162 46.5q-18 9 -34 -2t-15.5 -28t17.5 -29zM284 186zM386 783l-92 74l-89 -74q-12 -9 -24.5 -7.5t-20.5 11.5t-7 22.5t11 20.5
l111 91q20 18 40 0l111 -91q10 -8 11 -20.5t-7 -22.5q-9 -10 -21.5 -11.5t-22.5 7.5z" />
    <glyph glyph-name="scircumflex" unicode="&#x15d;" horiz-adv-x="566" 
d="M455 699q-97 33 -179 29q-74 -4 -129.5 -47.5t-77.5 -103t-8.5 -126.5t66.5 -113q31 -27 69 -46t63.5 -27t44 -19.5t19.5 -27.5q3 -24 -32.5 -30.5t-86 6.5t-87.5 40q-17 12 -33.5 3t-18.5 -26t13 -31q93 -67 212 -60q42 3 72 31.5t28 69.5q-2 37 -25.5 60.5t-53 33.5
t-71 29t-68.5 44q-51 49 -49 113.5t45 110.5q81 89 264 24q20 -7 33.5 6t11 31.5t-21.5 25.5zM65 38q54 -29 112 -41q144 -35 246.5 27.5t102.5 196.5q0 52 -22.5 94.5t-57.5 68t-69 43t-66.5 30t-40.5 18.5q-21 17 -9 35q19 32 101 10q24 -7 52 -18q19 -8 33 4t12.5 30.5
t-19.5 26.5q-148 60 -216 5q-42 -34 -30 -89q8 -34 35 -55q12 -10 43 -23t61 -27t60 -33.5t48.5 -50t18.5 -69.5q0 -88 -59 -131.5t-142 -39t-162 46.5q-18 9 -34 -2t-15.5 -28t17.5 -29zM284 186zM386 783l-92 74l-89 -74q-12 -9 -24.5 -7.5t-20.5 11.5t-7 22.5t11 20.5
l111 91q20 18 40 0l111 -91q10 -8 11 -20.5t-7 -22.5q-9 -10 -21.5 -11.5t-22.5 7.5z" />
    <glyph glyph-name="Scedilla" unicode="&#x15e;" horiz-adv-x="566" 
d="M65 38q-17 12 -17.5 29t15.5 28t34 2q79 -42 162 -46.5t142 39t59 131.5q0 39 -18.5 69.5t-48.5 50t-60 33.5t-61 27t-43 23q-40 32 -36 83q4 56 60 77q69 27 187 -21q18 -8 19.5 -26.5t-12.5 -30.5t-33 -4q-112 45 -148 14q-18 -16 -2 -36l6 -5q8 -6 40.5 -18.5
t66.5 -30t69 -43t57.5 -68t22.5 -94.5q0 -102 -61.5 -163.5t-160.5 -70.5l-6 -38q65 -6 99 -50q34 -49 7.5 -99t-87.5 -58q-61 -10 -146 37q-25 15 -11 41q15 24 43 10q63 -35 105 -28q25 2 37.5 21.5t-0.5 42.5q-22 28 -78 21q-17 -2 -28.5 8.5t-7.5 27.5l10 64
q-25 1 -64 10q-58 12 -112 41zM455 699q19 -7 21.5 -25.5t-11 -31.5t-33.5 -6q-183 65 -264 -24q-43 -46 -45 -110.5t49 -113.5q27 -25 68.5 -44t71 -29t53 -33.5t25.5 -60.5q2 -41 -28 -69.5t-72 -31.5q-119 -7 -212 60q-17 12 -13.5 31t19 26t33.5 -3q37 -27 87.5 -40
t86 -6.5t32.5 30.5q-1 16 -19.5 27.5t-44 19.5t-63.5 27t-69 46q-53 46 -66.5 113t8.5 126.5t77.5 103t129.5 47.5q82 4 179 -29z" />
    <glyph glyph-name="scedilla" unicode="&#x15f;" horiz-adv-x="566" 
d="M65 38q-17 12 -17.5 29t15.5 28t34 2q79 -42 162 -46.5t142 39t59 131.5q0 39 -18.5 69.5t-48.5 50t-60 33.5t-61 27t-43 23q-40 32 -36 83q4 56 60 77q69 27 187 -21q18 -8 19.5 -26.5t-12.5 -30.5t-33 -4q-112 45 -148 14q-18 -16 -2 -36l6 -5q8 -6 40.5 -18.5
t66.5 -30t69 -43t57.5 -68t22.5 -94.5q0 -102 -61.5 -163.5t-160.5 -70.5l-6 -38q65 -6 99 -50q34 -49 7.5 -99t-87.5 -58q-61 -10 -146 37q-25 15 -11 41q15 24 43 10q63 -35 105 -28q25 2 37.5 21.5t-0.5 42.5q-22 28 -78 21q-17 -2 -28.5 8.5t-7.5 27.5l10 64
q-25 1 -64 10q-58 12 -112 41zM455 699q19 -7 21.5 -25.5t-11 -31.5t-33.5 -6q-183 65 -264 -24q-43 -46 -45 -110.5t49 -113.5q27 -25 68.5 -44t71 -29t53 -33.5t25.5 -60.5q2 -41 -28 -69.5t-72 -31.5q-119 -7 -212 60q-17 12 -13.5 31t19 26t33.5 -3q37 -27 87.5 -40
t86 -6.5t32.5 30.5q-1 16 -19.5 27.5t-44 19.5t-63.5 27t-69 46q-53 46 -66.5 113t8.5 126.5t77.5 103t129.5 47.5q82 4 179 -29z" />
    <glyph glyph-name="Scaron" unicode="&#x160;" horiz-adv-x="566" 
d="M455 699q19 -7 21.5 -25.5t-11 -31.5t-33.5 -6q-183 65 -264 -24q-43 -46 -45 -110.5t49 -113.5q27 -25 68.5 -44t71 -29t53 -33.5t25.5 -60.5q2 -41 -28 -69.5t-72 -31.5q-119 -7 -212 60q-17 12 -13.5 31t19 26t33.5 -3q37 -27 87.5 -40t86 -6.5t32.5 30.5
q-1 16 -19.5 27.5t-44 19.5t-63.5 27t-69 46q-53 46 -66.5 113t8.5 126.5t77.5 103t129.5 47.5q82 4 179 -29zM65 38q-17 12 -17.5 29t15.5 28t34 2q79 -42 162 -46.5t142 39t59 131.5q0 39 -18.5 69.5t-48.5 50t-60 33.5t-61 27t-43 23q-40 32 -36 83q4 56 60 77
q69 27 187 -21q18 -8 19.5 -26.5t-12.5 -30.5t-33 -4q-112 45 -148 14q-18 -16 -2 -36l6 -5q8 -6 40.5 -18.5t66.5 -30t69 -43t57.5 -68t22.5 -94.5q0 -134 -102.5 -196.5t-246.5 -27.5q-58 12 -112 41zM374 910l-86 -70l-84 70q-25 18 -42 -4q-8 -9 -7 -21t11 -19l104 -86
q7 -6 17.5 -6.5t19.5 6.5l105 86q14 11 9 27.5t-19 21.5t-28 -5z" />
    <glyph glyph-name="scaron" unicode="&#x161;" horiz-adv-x="566" 
d="M455 699q19 -7 21.5 -25.5t-11 -31.5t-33.5 -6q-183 65 -264 -24q-43 -46 -45 -110.5t49 -113.5q27 -25 68.5 -44t71 -29t53 -33.5t25.5 -60.5q2 -41 -28 -69.5t-72 -31.5q-119 -7 -212 60q-17 12 -13.5 31t19 26t33.5 -3q37 -27 87.5 -40t86 -6.5t32.5 30.5
q-1 16 -19.5 27.5t-44 19.5t-63.5 27t-69 46q-53 46 -66.5 113t8.5 126.5t77.5 103t129.5 47.5q82 4 179 -29zM65 38q-17 12 -17.5 29t15.5 28t34 2q79 -42 162 -46.5t142 39t59 131.5q0 39 -18.5 69.5t-48.5 50t-60 33.5t-61 27t-43 23q-40 32 -36 83q4 56 60 77
q69 27 187 -21q18 -8 19.5 -26.5t-12.5 -30.5t-33 -4q-112 45 -148 14q-18 -16 -2 -36l6 -5q8 -6 40.5 -18.5t66.5 -30t69 -43t57.5 -68t22.5 -94.5q0 -134 -102.5 -196.5t-246.5 -27.5q-58 12 -112 41zM374 910l-86 -70l-84 70q-25 18 -42 -4q-8 -9 -7 -21t11 -19l104 -86
q7 -6 17.5 -6.5t19.5 6.5l105 86q14 11 9 27.5t-19 21.5t-28 -5z" />
    <glyph glyph-name="uni0162" unicode="&#x162;" horiz-adv-x="581" 
d="M353 591h168q13 0 22.5 -10t9.5 -24q0 -13 -9.5 -22.5t-22.5 -9.5h-134v-501q0 -6 -2 -12q-1 -1 -1 -3l-41 -70q59 -13 83 -57q27 -55 -7 -103.5t-95 -47.5q-65 -2 -140 59q-23 18 -5 43q18 23 44 5q56 -44 101 -44q25 -1 40.5 17.5t5.5 42.5q-18 32 -76 33
q-17 1 -26.5 13.5t-3.5 29.5l56 91v3v533q0 14 9.5 24t23.5 10zM186 525h-132q-14 0 -24 9.5t-10 22.5q0 14 10 24t24 10h166q14 0 24 -10t10 -24v-533q0 -14 -10 -24t-24 -10t-24 10t-10 24v501zM521 658h-467q-14 0 -24 9.5t-10 23.5t10 23.5t24 9.5h467q14 0 23 -9.5
t9 -23.5t-9.5 -23.5t-22.5 -9.5z" />
    <glyph glyph-name="uni0163" unicode="&#x163;" horiz-adv-x="581" 
d="M353 591h168q13 0 22.5 -10t9.5 -24q0 -13 -9.5 -22.5t-22.5 -9.5h-134v-501q0 -6 -2 -12q-1 -1 -1 -3l-41 -70q59 -13 83 -57q27 -55 -7 -103.5t-95 -47.5q-65 -2 -140 59q-23 18 -5 43q18 23 44 5q56 -44 101 -44q25 -1 40.5 17.5t5.5 42.5q-18 32 -76 33
q-17 1 -26.5 13.5t-3.5 29.5l56 91v3v533q0 14 9.5 24t23.5 10zM186 525h-132q-14 0 -24 9.5t-10 22.5q0 14 10 24t24 10h166q14 0 24 -10t10 -24v-533q0 -14 -10 -24t-24 -10t-24 10t-10 24v501zM521 658h-467q-14 0 -24 9.5t-10 23.5t10 23.5t24 9.5h467q14 0 23 -9.5
t9 -23.5t-9.5 -23.5t-22.5 -9.5z" />
    <glyph glyph-name="Tcaron" unicode="&#x164;" horiz-adv-x="581" 
d="M521 591q13 0 22.5 -10t9.5 -24q0 -13 -9.5 -22.5t-22.5 -9.5h-134v-501q0 -14 -10 -24t-24 -10t-23.5 10t-9.5 24v533q0 14 9.5 24t23.5 10h168zM54 658q-14 0 -24 9.5t-10 23.5t10 23.5t24 9.5h467q14 0 23 -9.5t9 -23.5t-9.5 -23.5t-22.5 -9.5h-467zM54 525
q-14 0 -24 9.5t-10 22.5q0 14 10 24t24 10h166q14 0 24 -10t10 -24v-533q0 -14 -10 -24t-24 -10t-24 10t-10 24v501h-132zM281 839l92 74q14 12 30.5 5t19.5 -22.5t-10 -29.5l-111 -91q-20 -18 -40 0l-111 91q-10 8 -11 20.5t7 22.5t20.5 11.5t24.5 -7.5z" />
    <glyph glyph-name="tcaron" unicode="&#x165;" horiz-adv-x="581" 
d="M521 591q13 0 22.5 -10t9.5 -24q0 -13 -9.5 -22.5t-22.5 -9.5h-134v-501q0 -14 -10 -24t-24 -10t-23.5 10t-9.5 24v533q0 14 9.5 24t23.5 10h168zM54 658q-14 0 -24 9.5t-10 23.5t10 23.5t24 9.5h467q14 0 23 -9.5t9 -23.5t-9.5 -23.5t-22.5 -9.5h-467zM54 525
q-14 0 -24 9.5t-10 22.5q0 14 10 24t24 10h166q14 0 24 -10t10 -24v-533q0 -14 -10 -24t-24 -10t-24 10t-10 24v501h-132zM281 839l92 74q14 12 30.5 5t19.5 -22.5t-10 -29.5l-111 -91q-20 -18 -40 0l-111 91q-10 8 -11 20.5t7 22.5t20.5 11.5t24.5 -7.5z" />
    <glyph glyph-name="Tbar" unicode="&#x166;" horiz-adv-x="581" 
d="M186 525h-132q-14 0 -24 9.5t-10 22.5q0 14 10 24t24 10h166q14 0 24 -10t10 -24v-533q0 -14 -10 -24t-24 -10t-24 10t-10 24v261h-72q-21 0 -29.5 16.5t0 33.5t29.5 17h72v173zM353 591h168q13 0 22.5 -10t9.5 -24q0 -13 -9.5 -22.5t-22.5 -9.5h-134v-173h76
q21 0 29.5 -17t0 -33.5t-29.5 -16.5h-76v-261q0 -14 -10 -24t-24 -10t-23.5 10t-9.5 24v533q0 14 9.5 24t23.5 10zM521 658h-467q-14 0 -24 9.5t-10 23.5t10 23.5t24 9.5h467q14 0 23 -9.5t9 -23.5t-9.5 -23.5t-22.5 -9.5z" />
    <glyph glyph-name="tbar" unicode="&#x167;" horiz-adv-x="581" 
d="M186 525h-132q-14 0 -24 9.5t-10 22.5q0 14 10 24t24 10h166q14 0 24 -10t10 -24v-533q0 -14 -10 -24t-24 -10t-24 10t-10 24v261h-72q-21 0 -29.5 16.5t0 33.5t29.5 17h72v173zM353 591h168q13 0 22.5 -10t9.5 -24q0 -13 -9.5 -22.5t-22.5 -9.5h-134v-173h76
q21 0 29.5 -17t0 -33.5t-29.5 -16.5h-76v-261q0 -14 -10 -24t-24 -10t-23.5 10t-9.5 24v533q0 14 9.5 24t23.5 10zM521 658h-467q-14 0 -24 9.5t-10 23.5t10 23.5t24 9.5h467q14 0 23 -9.5t9 -23.5t-9.5 -23.5t-22.5 -9.5z" />
    <glyph glyph-name="Utilde" unicode="&#x168;" 
d="M213 265v428q0 14 9.5 24t23.5 10t24 -10t10 -24v-428q0 -50 38.5 -70.5t77.5 0t39 70.5v428q0 14 9.5 24t24.5 10q14 0 23.5 -10t9.5 -24v-428q0 -40 -16 -71.5t-41.5 -48t-56 -24t-61.5 0t-56.5 24t-41.5 48t-16 71.5zM638 257q0 -66 -24 -120t-63.5 -87t-90 -50.5
t-103.5 -17.5t-103.5 18t-90 51t-63.5 86.5t-24 119.5v436q0 14 9.5 24t23.5 10t24 -10t10 -24v-436q0 -67 32 -116t79.5 -71t103 -22t103 22t79.5 71t32 116v436q0 14 9.5 24t23.5 10t23.5 -10t9.5 -24v-436zM260 821q-14 -26 -44 -13q-10 5 -13.5 17t1.5 23
q26 45 61.5 59.5t78.5 -7.5q12 -6 30 -19t24 -17q35 -19 58 25q13 24 43 13q10 -6 13.5 -19t-1.5 -24q-23 -45 -59 -59.5t-81 8.5q-11 6 -27.5 19t-25.5 17q-36 18 -58 -23z" />
    <glyph glyph-name="utilde" unicode="&#x169;" 
d="M213 265v428q0 14 9.5 24t23.5 10t24 -10t10 -24v-428q0 -50 38.5 -70.5t77.5 0t39 70.5v428q0 14 9.5 24t24.5 10q14 0 23.5 -10t9.5 -24v-428q0 -40 -16 -71.5t-41.5 -48t-56 -24t-61.5 0t-56.5 24t-41.5 48t-16 71.5zM638 257q0 -66 -24 -120t-63.5 -87t-90 -50.5
t-103.5 -17.5t-103.5 18t-90 51t-63.5 86.5t-24 119.5v436q0 14 9.5 24t23.5 10t24 -10t10 -24v-436q0 -67 32 -116t79.5 -71t103 -22t103 22t79.5 71t32 116v436q0 14 9.5 24t23.5 10t23.5 -10t9.5 -24v-436zM260 821q-14 -26 -44 -13q-10 5 -13.5 17t1.5 23
q26 45 61.5 59.5t78.5 -7.5q12 -6 30 -19t24 -17q35 -19 58 25q13 24 43 13q10 -6 13.5 -19t-1.5 -24q-23 -45 -59 -59.5t-81 8.5q-11 6 -27.5 19t-25.5 17q-36 18 -58 -23z" />
    <glyph glyph-name="Umacron" unicode="&#x16a;" 
d="M213 265v428q0 14 9.5 24t23.5 10t24 -10t10 -24v-428q0 -50 38.5 -70.5t77.5 0t39 70.5v428q0 14 9.5 24t24.5 10q14 0 23.5 -10t9.5 -24v-428q0 -40 -16 -71.5t-41.5 -48t-56 -24t-61.5 0t-56.5 24t-41.5 48t-16 71.5zM638 257q0 -66 -24 -120t-63.5 -87t-90 -50.5
t-103.5 -17.5t-103.5 18t-90 51t-63.5 86.5t-24 119.5v436q0 14 9.5 24t23.5 10t24 -10t10 -24v-436q0 -67 32 -116t79.5 -71t103 -22t103 22t79.5 71t32 116v436q0 14 9.5 24t23.5 10t23.5 -10t9.5 -24v-436zM454 805h-193q-21 0 -29.5 16.5t0 33.5t29.5 17h193
q21 0 29.5 -17t0 -33.5t-29.5 -16.5z" />
    <glyph glyph-name="umacron" unicode="&#x16b;" 
d="M213 265v428q0 14 9.5 24t23.5 10t24 -10t10 -24v-428q0 -50 38.5 -70.5t77.5 0t39 70.5v428q0 14 9.5 24t24.5 10q14 0 23.5 -10t9.5 -24v-428q0 -40 -16 -71.5t-41.5 -48t-56 -24t-61.5 0t-56.5 24t-41.5 48t-16 71.5zM638 257q0 -66 -24 -120t-63.5 -87t-90 -50.5
t-103.5 -17.5t-103.5 18t-90 51t-63.5 86.5t-24 119.5v436q0 14 9.5 24t23.5 10t24 -10t10 -24v-436q0 -67 32 -116t79.5 -71t103 -22t103 22t79.5 71t32 116v436q0 14 9.5 24t23.5 10t23.5 -10t9.5 -24v-436zM454 805h-193q-21 0 -29.5 16.5t0 33.5t29.5 17h193
q21 0 29.5 -17t0 -33.5t-29.5 -16.5z" />
    <glyph glyph-name="Ubreve" unicode="&#x16c;" 
d="M213 265v428q0 14 9.5 24t23.5 10t24 -10t10 -24v-428q0 -50 38.5 -70.5t77.5 0t39 70.5v428q0 14 9.5 24t24.5 10q14 0 23.5 -10t9.5 -24v-428q0 -40 -16 -71.5t-41.5 -48t-56 -24t-61.5 0t-56.5 24t-41.5 48t-16 71.5zM638 257q0 -66 -24 -120t-63.5 -87t-90 -50.5
t-103.5 -17.5t-103.5 18t-90 51t-63.5 86.5t-24 119.5v436q0 14 9.5 24t23.5 10t24 -10t10 -24v-436q0 -67 32 -116t79.5 -71t103 -22t103 22t79.5 71t32 116v436q0 14 9.5 24t23.5 10t23.5 -10t9.5 -24v-436zM289 884q0 -27 18.5 -40.5t49.5 -13.5q67 0 67 54q0 17 16 24.5
t32 0.5t16 -25q0 -54 -36.5 -84.5t-94.5 -30.5t-95 30.5t-37 84.5q0 17 16 25.5t32 1.5t16 -27z" />
    <glyph glyph-name="ubreve" unicode="&#x16d;" 
d="M213 265v428q0 14 9.5 24t23.5 10t24 -10t10 -24v-428q0 -50 38.5 -70.5t77.5 0t39 70.5v428q0 14 9.5 24t24.5 10q14 0 23.5 -10t9.5 -24v-428q0 -40 -16 -71.5t-41.5 -48t-56 -24t-61.5 0t-56.5 24t-41.5 48t-16 71.5zM638 257q0 -66 -24 -120t-63.5 -87t-90 -50.5
t-103.5 -17.5t-103.5 18t-90 51t-63.5 86.5t-24 119.5v436q0 14 9.5 24t23.5 10t24 -10t10 -24v-436q0 -67 32 -116t79.5 -71t103 -22t103 22t79.5 71t32 116v436q0 14 9.5 24t23.5 10t23.5 -10t9.5 -24v-436zM289 884q0 -27 18.5 -40.5t49.5 -13.5q67 0 67 54q0 17 16 24.5
t32 0.5t16 -25q0 -54 -36.5 -84.5t-94.5 -30.5t-95 30.5t-37 84.5q0 17 16 25.5t32 1.5t16 -27z" />
    <glyph glyph-name="Uring" unicode="&#x16e;" 
d="M213 265v428q0 14 9.5 24t23.5 10t24 -10t10 -24v-428q0 -50 38.5 -70.5t77.5 0t39 70.5v428q0 14 9.5 24t24.5 10q14 0 23.5 -10t9.5 -24v-428q0 -40 -16 -71.5t-41.5 -48t-56 -24t-61.5 0t-56.5 24t-41.5 48t-16 71.5zM638 257q0 -66 -24 -120t-63.5 -87t-90 -50.5
t-103.5 -17.5t-103.5 18t-90 51t-63.5 86.5t-24 119.5v436q0 14 9.5 24t23.5 10t24 -10t10 -24v-436q0 -67 32 -116t79.5 -71t103 -22t103 22t79.5 71t32 116v436q0 14 9.5 24t23.5 10t23.5 -10t9.5 -24v-436zM356 966q51 0 84 -31t33 -76q0 -44 -33.5 -75t-83.5 -31t-84 31
t-34 75q0 45 34 76t84 31zM356 913q-26 0 -43.5 -15t-17.5 -39t17 -38.5t44 -14.5t43.5 14.5t16.5 38.5t-16.5 39t-43.5 15z" />
    <glyph glyph-name="uring" unicode="&#x16f;" 
d="M213 265v428q0 14 9.5 24t23.5 10t24 -10t10 -24v-428q0 -50 38.5 -70.5t77.5 0t39 70.5v428q0 14 9.5 24t24.5 10q14 0 23.5 -10t9.5 -24v-428q0 -40 -16 -71.5t-41.5 -48t-56 -24t-61.5 0t-56.5 24t-41.5 48t-16 71.5zM638 257q0 -66 -24 -120t-63.5 -87t-90 -50.5
t-103.5 -17.5t-103.5 18t-90 51t-63.5 86.5t-24 119.5v436q0 14 9.5 24t23.5 10t24 -10t10 -24v-436q0 -67 32 -116t79.5 -71t103 -22t103 22t79.5 71t32 116v436q0 14 9.5 24t23.5 10t23.5 -10t9.5 -24v-436zM356 966q51 0 84 -31t33 -76q0 -44 -33.5 -75t-83.5 -31t-84 31
t-34 75q0 45 34 76t84 31zM356 913q-26 0 -43.5 -15t-17.5 -39t17 -38.5t44 -14.5t43.5 14.5t16.5 38.5t-16.5 39t-43.5 15z" />
    <glyph glyph-name="Uhungarumlaut" unicode="&#x170;" 
d="M213 265v428q0 14 9.5 24t23.5 10t24 -10t10 -24v-428q0 -50 38.5 -70.5t77.5 0t39 70.5v428q0 14 9.5 24t24.5 10q14 0 23.5 -10t9.5 -24v-428q0 -40 -16 -71.5t-41.5 -48t-56 -24t-61.5 0t-56.5 24t-41.5 48t-16 71.5zM638 257q0 -66 -24 -120t-63.5 -87t-90 -50.5
t-103.5 -17.5t-103.5 18t-90 51t-63.5 86.5t-24 119.5v436q0 14 9.5 24t23.5 10t24 -10t10 -24v-436q0 -67 32 -116t79.5 -71t103 -22t103 22t79.5 71t32 116v436q0 14 9.5 24t23.5 10t23.5 -10t9.5 -24v-436zM263 833l69 83q21 21 46 2q18 -23 2 -46l-70 -81
q-24 -23 -45 -2q-10 9 -10 22t8 22zM424 833l69 83q21 21 46 2q18 -23 2 -46l-70 -81q-23 -23 -45 -2q-10 9 -10 22t8 22z" />
    <glyph glyph-name="uhungarumlaut" unicode="&#x171;" 
d="M213 265v428q0 14 9.5 24t23.5 10t24 -10t10 -24v-428q0 -50 38.5 -70.5t77.5 0t39 70.5v428q0 14 9.5 24t24.5 10q14 0 23.5 -10t9.5 -24v-428q0 -40 -16 -71.5t-41.5 -48t-56 -24t-61.5 0t-56.5 24t-41.5 48t-16 71.5zM638 257q0 -66 -24 -120t-63.5 -87t-90 -50.5
t-103.5 -17.5t-103.5 18t-90 51t-63.5 86.5t-24 119.5v436q0 14 9.5 24t23.5 10t24 -10t10 -24v-436q0 -67 32 -116t79.5 -71t103 -22t103 22t79.5 71t32 116v436q0 14 9.5 24t23.5 10t23.5 -10t9.5 -24v-436zM263 833l69 83q21 21 46 2q18 -23 2 -46l-70 -81
q-24 -23 -45 -2q-10 9 -10 22t8 22zM424 833l69 83q21 21 46 2q18 -23 2 -46l-70 -81q-23 -23 -45 -2q-10 9 -10 22t8 22z" />
    <glyph glyph-name="Uogonek" unicode="&#x172;" 
d="M638 693v-436q0 -124 -81 -200q-99 -101 -102 -201q0 -31 21 -35q25 -3 51 6q11 5 23 -0.5t15 -18.5q11 -28 -19 -40q-42 -15 -82 -9q-72 16 -72 95q0 50 46 139q-40 -12 -82.5 -10.5t-83 11t-76 33t-62.5 55t-42.5 77t-15.5 98.5v436q0 14 9.5 24t23.5 10t24 -10t10 -24
v-436q0 -67 32 -116t79.5 -71t103 -22t103 22t79.5 71t32 116v436q0 14 9.5 24t23.5 10t23.5 -10t9.5 -24zM213 265v428q0 14 9.5 24t23.5 10t24 -10t10 -24v-428q0 -50 38.5 -70.5t77.5 0t39 70.5v428q0 14 9.5 24t24.5 10q14 0 23.5 -10t9.5 -24v-428q0 -40 -16 -71.5
t-41.5 -48t-56 -24t-61.5 0t-56.5 24t-41.5 48t-16 71.5z" />
    <glyph glyph-name="uogonek" unicode="&#x173;" 
d="M638 693v-436q0 -124 -81 -200q-99 -101 -102 -201q0 -31 21 -35q25 -3 51 6q11 5 23 -0.5t15 -18.5q11 -28 -19 -40q-42 -15 -82 -9q-72 16 -72 95q0 50 46 139q-40 -12 -82.5 -10.5t-83 11t-76 33t-62.5 55t-42.5 77t-15.5 98.5v436q0 14 9.5 24t23.5 10t24 -10t10 -24
v-436q0 -67 32 -116t79.5 -71t103 -22t103 22t79.5 71t32 116v436q0 14 9.5 24t23.5 10t23.5 -10t9.5 -24zM213 265v428q0 14 9.5 24t23.5 10t24 -10t10 -24v-428q0 -50 38.5 -70.5t77.5 0t39 70.5v428q0 14 9.5 24t24.5 10q14 0 23.5 -10t9.5 -24v-428q0 -40 -16 -71.5
t-41.5 -48t-56 -24t-61.5 0t-56.5 24t-41.5 48t-16 71.5z" />
    <glyph glyph-name="Wcircumflex" unicode="&#x174;" horiz-adv-x="916" 
d="M159 683l134 -328q5 -13 18 -18.5t26 -0.5q11 4 17 19l103 252l103 -252q6 -13 18.5 -18.5t25.5 -0.5q12 4 18 19l134 328q5 13 -0.5 25.5t-17.5 17.5q-13 5 -26 0t-17 -18l-103 -253l-103 253q-8 14 -19 18q-13 5 -26 0t-17 -18l-103 -253l-103 253q-5 13 -17.5 18
t-25.5 0t-18.5 -17.5t-0.5 -25.5zM845 708l-253 -623l-103 251q-10 23 -31.5 22.5t-31.5 -22.5l-102 -251l-254 623q-4 13 -17 18t-26 0q-12 -5 -17.5 -17.5t-1.5 -25.5l285 -697q8 -22 30.5 -22t30.5 21l103 253l103 -253q9 -20 31 -20.5t31 20.5l284 698q6 13 0.5 25.5
t-17.5 17.5q-13 5 -26 0t-18 -18zM549 788l-92 74l-89 -74q-12 -9 -24.5 -7.5t-20.5 11.5t-7 22.5t11 20.5l111 91q20 18 40 0l111 -91q10 -8 11 -20.5t-7 -22.5q-9 -10 -21.5 -11.5t-22.5 7.5z" />
    <glyph glyph-name="wcircumflex" unicode="&#x175;" horiz-adv-x="916" 
d="M159 683l134 -328q5 -13 18 -18.5t26 -0.5q11 4 17 19l103 252l103 -252q6 -13 18.5 -18.5t25.5 -0.5q12 4 18 19l134 328q5 13 -0.5 25.5t-17.5 17.5q-13 5 -26 0t-17 -18l-103 -253l-103 253q-8 14 -19 18q-13 5 -26 0t-17 -18l-103 -253l-103 253q-5 13 -17.5 18
t-25.5 0t-18.5 -17.5t-0.5 -25.5zM845 708l-253 -623l-103 251q-10 23 -31.5 22.5t-31.5 -22.5l-102 -251l-254 623q-4 13 -17 18t-26 0q-12 -5 -17.5 -17.5t-1.5 -25.5l285 -697q8 -22 30.5 -22t30.5 21l103 253l103 -253q9 -20 31 -20.5t31 20.5l284 698q6 13 0.5 25.5
t-17.5 17.5q-13 5 -26 0t-18 -18zM549 788l-92 74l-89 -74q-12 -9 -24.5 -7.5t-20.5 11.5t-7 22.5t11 20.5l111 91q20 18 40 0l111 -91q10 -8 11 -20.5t-7 -22.5q-9 -10 -21.5 -11.5t-22.5 7.5z" />
    <glyph glyph-name="Ycircumflex" unicode="&#x176;" horiz-adv-x="675" 
d="M309 459q11 -19 30 -19.5t30 18.5l136 228q7 13 3.5 26t-15.5 20q-11 8 -25 4.5t-21 -15.5l-108 -183l-108 183q-7 12 -20.5 15.5t-24.5 -4.5q-13 -7 -16.5 -20t4.5 -26zM611 721l-234 -373q-5 -10 -5 -19v-316q0 -14 10 -24t24 -10t24 10t10 24v308l227 365q7 12 4 25
t-14 21q-12 8 -25.5 5t-20.5 -16zM306 13v317q0 10 -6 20l-232 371q-7 13 -21 16t-25 -5q-12 -7 -15 -20.5t4 -25.5l228 -365v-308q0 -14 10 -24t24 -10t23.5 10t9.5 24zM428 794l-92 74l-89 -74q-12 -9 -24.5 -7.5t-20.5 11.5t-7 22.5t11 20.5l111 91q20 18 40 0l111 -91
q10 -8 11 -20.5t-7 -22.5q-9 -10 -21.5 -11.5t-22.5 7.5z" />
    <glyph glyph-name="ycircumflex" unicode="&#x177;" horiz-adv-x="675" 
d="M309 459q11 -19 30 -19.5t30 18.5l136 228q7 13 3.5 26t-15.5 20q-11 8 -25 4.5t-21 -15.5l-108 -183l-108 183q-7 12 -20.5 15.5t-24.5 -4.5q-13 -7 -16.5 -20t4.5 -26zM611 721l-234 -373q-5 -10 -5 -19v-316q0 -14 10 -24t24 -10t24 10t10 24v308l227 365q7 12 4 25
t-14 21q-12 8 -25.5 5t-20.5 -16zM306 13v317q0 10 -6 20l-232 371q-7 13 -21 16t-25 -5q-12 -7 -15 -20.5t4 -25.5l228 -365v-308q0 -14 10 -24t24 -10t23.5 10t9.5 24zM428 794l-92 74l-89 -74q-12 -9 -24.5 -7.5t-20.5 11.5t-7 22.5t11 20.5l111 91q20 18 40 0l111 -91
q10 -8 11 -20.5t-7 -22.5q-9 -10 -21.5 -11.5t-22.5 7.5z" />
    <glyph glyph-name="Ydieresis" unicode="&#x178;" horiz-adv-x="675" 
d="M309 459l-135 227q-8 13 -4.5 26t16.5 20q11 8 24.5 4.5t20.5 -15.5l108 -183l108 183q7 12 21 15.5t25 -4.5q12 -7 15.5 -20t-3.5 -26l-136 -228q-11 -19 -30 -18.5t-30 19.5zM611 721q7 13 20.5 16t25.5 -5q11 -8 14 -21t-4 -25l-227 -365v-308q0 -14 -10 -24t-24 -10
t-24 10t-10 24v316q0 9 5 19zM306 13q0 -14 -9.5 -24t-23.5 -10t-24 10t-10 24v308l-228 365q-7 12 -4 25.5t15 20.5q11 8 25 5t21 -16l232 -371q6 -10 6 -20v-317zM468 955q38 0 65.5 -26.5t27.5 -63.5t-27.5 -63t-65.5 -26t-66 26t-28 63t28 63.5t66 26.5zM202 955
q38 0 66 -26.5t28 -63.5t-28 -63t-66 -26q-39 0 -66 26t-27 63q0 38 27 64t66 26zM202 904q-17 0 -29 -11.5t-12 -27.5t12 -27t29 -11t28.5 11t11.5 27t-11.5 27.5t-28.5 11.5zM468 904q-17 0 -29.5 -11.5t-12.5 -27.5t12.5 -27t29.5 -11q16 0 28.5 11.5t12.5 26.5
q0 16 -12.5 27.5t-28.5 11.5z" />
    <glyph glyph-name="Zacute" unicode="&#x179;" horiz-adv-x="581" 
d="M85 659q-21 0 -29.5 16.5t0 33t29.5 16.5h387q18 0 28 -14.5t3 -32.5l-199 -487h210q21 0 29.5 -16.5t0 -33.5t-29.5 -17h-263q-18 0 -26.5 14t-0.5 32l199 489h-338zM514 58q21 0 29.5 -17t0 -34t-29.5 -17h-458q-18 0 -28 15t-3 33l199 487h-139q-21 0 -29.5 16.5
t0 33.5t29.5 17h186q21 0 30.5 -15t1.5 -35l-198 -484h409zM255 829l100 108q21 21 46 2q18 -23 2 -46l-101 -106q-24 -23 -45 -2q-10 9 -10 22t8 22z" />
    <glyph glyph-name="zacute" unicode="&#x17a;" horiz-adv-x="581" 
d="M85 659q-21 0 -29.5 16.5t0 33t29.5 16.5h387q18 0 28 -14.5t3 -32.5l-199 -487h210q21 0 29.5 -16.5t0 -33.5t-29.5 -17h-263q-18 0 -26.5 14t-0.5 32l199 489h-338zM514 58q21 0 29.5 -17t0 -34t-29.5 -17h-458q-18 0 -28 15t-3 33l199 487h-139q-21 0 -29.5 16.5
t0 33.5t29.5 17h186q21 0 30.5 -15t1.5 -35l-198 -484h409zM255 829l100 108q21 21 46 2q18 -23 2 -46l-101 -106q-24 -23 -45 -2q-10 9 -10 22t8 22z" />
    <glyph glyph-name="Zdotaccent" unicode="&#x17b;" horiz-adv-x="581" 
d="M85 659q-21 0 -29.5 16.5t0 33t29.5 16.5h387q18 0 28 -14.5t3 -32.5l-199 -487h210q21 0 29.5 -16.5t0 -33.5t-29.5 -17h-263q-18 0 -26.5 14t-0.5 32l199 489h-338zM514 58q21 0 29.5 -17t0 -34t-29.5 -17h-458q-18 0 -28 15t-3 33l199 487h-139q-21 0 -29.5 16.5
t0 33.5t29.5 17h186q21 0 30.5 -15t1.5 -35l-198 -484h409zM295 960q44 0 72.5 -27.5t28.5 -67.5t-28.5 -67t-72.5 -27q-43 0 -72.5 27t-29.5 67t29.5 67.5t72.5 27.5zM295 907q-20 0 -33 -11.5t-13 -30.5t13 -30.5t33 -11.5q21 0 33.5 11.5t12.5 30.5t-12.5 30.5
t-33.5 11.5z" />
    <glyph glyph-name="zdotaccent" unicode="&#x17c;" horiz-adv-x="581" 
d="M85 659q-21 0 -29.5 16.5t0 33t29.5 16.5h387q18 0 28 -14.5t3 -32.5l-199 -487h210q21 0 29.5 -16.5t0 -33.5t-29.5 -17h-263q-18 0 -26.5 14t-0.5 32l199 489h-338zM514 58q21 0 29.5 -17t0 -34t-29.5 -17h-458q-18 0 -28 15t-3 33l199 487h-139q-21 0 -29.5 16.5
t0 33.5t29.5 17h186q21 0 30.5 -15t1.5 -35l-198 -484h409zM295 960q44 0 72.5 -27.5t28.5 -67.5t-28.5 -67t-72.5 -27q-43 0 -72.5 27t-29.5 67t29.5 67.5t72.5 27.5zM295 907q-20 0 -33 -11.5t-13 -30.5t13 -30.5t33 -11.5q21 0 33.5 11.5t12.5 30.5t-12.5 30.5
t-33.5 11.5z" />
    <glyph glyph-name="Zcaron" unicode="&#x17d;" horiz-adv-x="581" 
d="M85 659q-21 0 -29.5 16.5t0 33t29.5 16.5h387q18 0 28 -14.5t3 -32.5l-199 -487h210q21 0 29.5 -16.5t0 -33.5t-29.5 -17h-263q-18 0 -26.5 14t-0.5 32l199 489h-338zM514 58q21 0 29.5 -17t0 -34t-29.5 -17h-458q-18 0 -28 15t-3 33l199 487h-139q-21 0 -29.5 16.5
t0 33.5t29.5 17h186q21 0 30.5 -15t1.5 -35l-198 -484h409zM290 839l90 67q13 11 29 4.5t19.5 -20.5t-9.5 -26l-109 -82q-8 -7 -19.5 -7t-19.5 7l-108 82q-10 8 -11 19t7 20q19 20 44 3z" />
    <glyph glyph-name="zcaron" unicode="&#x17e;" horiz-adv-x="581" 
d="M85 659q-21 0 -29.5 16.5t0 33t29.5 16.5h387q18 0 28 -14.5t3 -32.5l-199 -487h210q21 0 29.5 -16.5t0 -33.5t-29.5 -17h-263q-18 0 -26.5 14t-0.5 32l199 489h-338zM514 58q21 0 29.5 -17t0 -34t-29.5 -17h-458q-18 0 -28 15t-3 33l199 487h-139q-21 0 -29.5 16.5
t0 33.5t29.5 17h186q21 0 30.5 -15t1.5 -35l-198 -484h409zM290 839l90 67q13 11 29 4.5t19.5 -20.5t-9.5 -26l-109 -82q-8 -7 -19.5 -7t-19.5 7l-108 82q-10 8 -11 19t7 20q19 20 44 3z" />
    <glyph glyph-name="longs" unicode="&#x17f;" horiz-adv-x="531" 
d="M146 658v-635q0 -13 -10 -23t-23 -10q-14 0 -23.5 9.5t-9.5 23.5v669q0 14 9.5 23.5t23.5 9.5h346q14 0 24 -9.5t10 -23.5t-10 -24t-24 -10h-313zM459 525h-179v-502q0 -13 -10 -23t-23 -10q-14 0 -24 9.5t-10 23.5v535q0 14 10 23.5t24 9.5h212q14 0 24 -9.5t10 -23.5
t-10 -23.5t-24 -9.5z" />
    <glyph glyph-name="circumflex" unicode="&#x2c6;" horiz-adv-x="359" 
d="M269 579l-92 74l-89 -74q-12 -9 -24.5 -7.5t-20.5 11.5t-7 22.5t11 20.5l111 91q20 18 40 0l111 -91q10 -8 11 -20.5t-7 -22.5q-9 -10 -21.5 -11.5t-22.5 7.5z" />
    <glyph glyph-name="caron" unicode="&#x2c7;" horiz-adv-x="367" 
d="M184 645l92 74q14 12 30.5 5t19.5 -22.5t-10 -29.5l-111 -91q-20 -18 -40 0l-111 91q-10 8 -11 20.5t7 22.5t20.5 11.5t24.5 -7.5z" />
    <glyph glyph-name="breve" unicode="&#x2d8;" horiz-adv-x="299" 
d="M84 694q0 -28 18 -42.5t49 -14.5q66 0 66 57q0 18 16 25.5t31.5 0t15.5 -25.5q0 -57 -35.5 -89t-93.5 -32q-57 0 -93.5 32t-36.5 89q0 18 15.5 26t31.5 1t16 -27z" />
    <glyph glyph-name="dotaccent" unicode="&#x2d9;" horiz-adv-x="247" 
d="M121 723q45 0 75 -30.5t30 -75.5q0 -44 -30 -74.5t-75 -30.5t-75.5 30t-30.5 75t30 75.5t76 30.5zM121 664q-21 0 -34.5 -13t-13.5 -34t13.5 -33.5t34.5 -12.5t34 12.5t13 33.5t-12.5 34t-34.5 13z" />
    <glyph glyph-name="ring" unicode="&#x2da;" horiz-adv-x="275" 
d="M139 726q56 0 92.5 -37.5t36.5 -92.5q0 -54 -36.5 -91.5t-92.5 -37.5q-55 0 -92.5 37.5t-37.5 91.5q0 55 37.5 92.5t92.5 37.5zM139 662q-29 0 -48 -18.5t-19 -47.5t19 -47t48 -18q30 0 48 18t18 47q0 30 -18 48t-48 18z" />
    <glyph glyph-name="ogonek" unicode="&#x2db;" horiz-adv-x="278" 
d="M165 26q10 10 22.5 10t20.5 -10q9 -10 9 -23t-9 -22q-94 -91 -96 -149q0 -31 21 -35q25 -3 51 6q11 5 23 -0.5t15 -18.5q11 -28 -19 -40q-42 -15 -82 -9q-72 16 -72 95q0 85 116 196z" />
    <glyph glyph-name="tilde" unicode="&#x2dc;" horiz-adv-x="394" 
d="M100 633q-14 -26 -44 -13q-10 5 -13.5 17t1.5 23q26 45 61.5 59.5t78.5 -7.5q12 -6 30 -19t24 -17q35 -19 58 25q13 24 43 13q10 -6 13.5 -19t-1.5 -24q-23 -45 -59 -59.5t-81 8.5q-11 6 -27.5 19t-25.5 17q-36 18 -58 -23z" />
    <glyph glyph-name="hungarumlaut" unicode="&#x2dd;" horiz-adv-x="394" 
d="M61 625l69 83q21 21 46 2q18 -23 2 -46l-70 -81q-24 -23 -45 -2q-10 9 -10 22t8 22zM222 625l69 83q21 21 46 2q18 -23 2 -46l-70 -81q-23 -23 -45 -2q-10 9 -10 22t8 22z" />
    <glyph glyph-name="endash" unicode="&#x2013;" horiz-adv-x="453" 
d="M390 315h-323q-21 0 -29.5 16.5t0 33.5t29.5 17h323q21 0 29.5 -17t0 -33.5t-29.5 -16.5z" />
    <glyph glyph-name="emdash" unicode="&#x2014;" horiz-adv-x="576" 
d="M503 315h-436q-21 0 -29.5 16.5t0 33.5t29.5 17h436q21 0 29.5 -17t0 -33.5t-29.5 -16.5z" />
    <glyph glyph-name="quoteleft" unicode="&#x2018;" horiz-adv-x="178" 
d="M40 580l39 123q6 19 24 23t31.5 -8t7.5 -32l-41 -122q-11 -31 -39 -22q-13 3 -19.5 14.5t-2.5 23.5z" />
    <glyph glyph-name="quoteright" unicode="&#x2019;" horiz-adv-x="178" 
d="M40 580l39 123q6 19 24 23t31.5 -8t7.5 -32l-41 -122q-11 -31 -39 -22q-13 3 -19.5 14.5t-2.5 23.5z" />
    <glyph glyph-name="quotesinglbase" unicode="&#x201a;" horiz-adv-x="264" 
d="M10 -100l45 194q2 13 12 19.5t21 3.5q28 -7 23 -36l-35 -159h47l65 176q5 12 15.5 17t21.5 1t16 -15.5t1 -22.5l-72 -193q-5 -21 -27 -21h-103q-5 0 -7 1q-28 7 -23 35z" />
    <glyph glyph-name="quotedblleft" unicode="&#x201c;" horiz-adv-x="297" 
d="M40 580l39 123q6 19 24 23t31.5 -8t7.5 -32l-41 -122q-11 -31 -39 -22q-13 3 -19.5 14.5t-2.5 23.5zM166 580l39 123q6 19 23.5 23t31 -8t8.5 -32l-41 -122q-11 -31 -39 -22q-13 3 -19.5 14.5t-2.5 23.5z" />
    <glyph glyph-name="quotedblright" unicode="&#x201d;" horiz-adv-x="297" 
d="M40 580l39 123q6 19 24 23t31.5 -8t7.5 -32l-41 -122q-11 -31 -39 -22q-13 3 -19.5 14.5t-2.5 23.5zM166 580l39 123q6 19 23.5 23t31 -8t8.5 -32l-41 -122q-11 -31 -39 -22q-13 3 -19.5 14.5t-2.5 23.5z" />
    <glyph glyph-name="quotedblbase" unicode="&#x201e;" horiz-adv-x="506" 
d="M10 -100l45 194q2 13 12 19.5t21 3.5q28 -7 23 -36l-35 -159h47l65 176q5 12 15.5 17t21.5 1t16 -15.5t1 -22.5l-72 -193q-5 -21 -27 -21h-103q-5 0 -7 1q-28 7 -23 35zM247 -100l45 194q2 13 12 19.5t21 3.5q28 -7 23 -36l-35 -159h47l65 176q5 12 15.5 17t21.5 1
t16 -15.5t1 -22.5l-72 -193q-5 -21 -27 -21h-103q-5 0 -7 1q-28 7 -23 35z" />
    <glyph glyph-name="bullet" unicode="&#x2022;" horiz-adv-x="247" 
d="M121 439q45 0 75 -30.5t30 -75.5q0 -44 -30 -74.5t-75 -30.5t-75.5 30t-30.5 75t30 75.5t76 30.5z" />
    <glyph glyph-name="ellipsis" unicode="&#x2026;" horiz-adv-x="741" 
d="M121 196q45 0 75 -30.5t30 -75.5q0 -44 -30 -74.5t-75 -30.5t-75.5 30.5t-30.5 74.5q0 45 30 75.5t76 30.5zM121 137q-21 0 -34.5 -13t-13.5 -34t13.5 -33.5t34.5 -12.5t34 13t13 33q0 21 -12.5 34t-34.5 13zM368 196q45 0 75 -30.5t30 -75.5q0 -44 -30 -74.5t-75 -30.5
q-46 0 -76 30.5t-30 74.5q0 45 30 75.5t76 30.5zM368 137q-21 0 -34.5 -13t-13.5 -34t13.5 -33.5t34.5 -12.5q22 0 34.5 13t12.5 33q0 21 -12.5 34t-34.5 13zM615 196q45 0 75 -30.5t30 -75.5q0 -44 -30 -74.5t-75 -30.5t-75.5 30.5t-30.5 74.5q0 45 30 75.5t76 30.5z
M615 137q-21 0 -34.5 -13t-13.5 -34t13.5 -33.5t34.5 -12.5t34 13t13 33q0 21 -12.5 34t-34.5 13z" />
    <glyph glyph-name="Euro" unicode="&#x20ac;" horiz-adv-x="563" 
d="M494 -6q-40 -9 -79 -9q-148 0 -238.5 79.5t-114.5 202.5h-45q-18 0 -25 15t0.5 30t25.5 15h36q-1 10 -1 32l1 22h-35q-18 0 -25 15t0.5 30t25.5 15h42q27 128 124.5 213t250.5 85q23 0 47 -3q22 -2 27.5 -20.5t-6 -34t-30.5 -11.5q-21 3 -42 3q-134 0 -223 -89.5
t-92 -222.5q-1 -82 30 -150.5t100.5 -114t167.5 -45.5q30 0 65 8q26 7 40 -7t6.5 -33.5t-33.5 -24.5zM474 127q-32 -6 -60 -6q-95 2 -157.5 67t-60.5 173q3 119 84 185.5t186 53.5q24 -3 32 -19.5t-4 -31.5t-37 -13q-56 5 -104.5 -20t-72.5 -75h119q18 0 25.5 -15t-0.5 -30
t-26 -15h-135l-1 -20q0 -14 2 -34h133q18 0 25.5 -15t-0.5 -30t-26 -15h-113q38 -76 132 -79q28 0 51 5q25 5 38 -9t5 -32.5t-35 -24.5z" />
    </font>
</defs>
</svg>
